<svg width="32" height="32" viewBox="0 0 32 32" fill="none" xmlns="http://www.w3.org/2000/svg">
<g id="NavigationArrow">
<path id="Vector" d="M30 14.1975C29.9969 14.6201 29.8581 15.0305 29.604 15.3681C29.3499 15.7057 28.9939 15.9527 28.5887 16.0725L19.0187 19.0175L16.0737 28.5875C15.9537 28.9926 15.7067 29.3485 15.3691 29.6026C15.0315 29.8566 14.6212 29.9955 14.1987 29.9988H14.1612C13.7469 30.0026 13.3419 29.8758 13.0037 29.6364C12.6656 29.397 12.4114 29.0571 12.2775 28.665L4.12497 6.67626C4.12233 6.66978 4.12024 6.66309 4.11872 6.65626C3.99685 6.30231 3.97676 5.92125 4.06075 5.55644C4.14474 5.19163 4.32943 4.85772 4.59381 4.59268C4.8582 4.32765 5.19165 4.14214 5.55625 4.05725C5.92085 3.97237 6.30196 3.99151 6.65622 4.11251L6.67622 4.11876L28.6662 12.2763C29.0644 12.4124 29.4086 12.6722 29.6486 13.0179C29.8885 13.3636 30.0117 13.7769 30 14.1975Z" fill="#1F59CE"/>
</g>
</svg>
