<svg width="136" height="48" viewBox="0 0 136 48" fill="none" xmlns="http://www.w3.org/2000/svg">
<g clip-path="url(#clip0_13_990)">
<path d="M24.0122 41.2127V30.499H32.0933V32.5956H26.3531V34.7691H31.4034V36.8657H26.3531V39.1161H32.1702V41.2127H24.0122Z" fill="black"/>
<path d="M36.6956 41.3664C35.0264 41.3664 33.925 40.6314 33.1899 39.7606L34.6736 38.1073C35.2865 38.7813 35.8836 39.1794 36.6322 39.1794C37.5211 39.1794 38.0707 38.6434 38.0707 37.404V30.5013H40.4884V37.5103C40.4884 40.1112 38.9595 41.3664 36.6933 41.3664H36.6956Z" fill="black"/>
<path d="M50.4833 41.2126L49.504 38.8107H44.9738L43.9945 41.2126H41.5903L46.1816 30.4221H48.3551L52.9463 41.2126H50.4811H50.4833ZM47.2401 33.2537L45.8174 36.7277H48.6627L47.2401 33.2537Z" fill="black"/>
<path d="M58.2565 41.3664C56.6348 41.3664 54.9951 40.801 53.7104 39.6521L55.1037 37.9829C56.0671 38.7791 57.0781 39.2834 58.3017 39.2834C59.2652 39.2834 59.8487 38.9012 59.8487 38.2724V38.243C59.8487 37.6459 59.48 37.3406 57.691 36.8815C55.5334 36.3296 54.1402 35.7348 54.1402 33.6065V33.5771C54.1402 31.6344 55.7007 30.3474 57.8901 30.3474C59.4506 30.3474 60.7828 30.8382 61.8684 31.709L60.6448 33.4844C59.6949 32.8263 58.7631 32.4282 57.8584 32.4282C56.9537 32.4282 56.481 32.8421 56.481 33.3623V33.3939C56.481 34.0973 56.9402 34.328 58.7925 34.8007C60.966 35.3661 62.1896 36.1487 62.1896 38.0146V38.0463C62.1896 40.1745 60.5679 41.3664 58.2565 41.3664Z" fill="black"/>
<path d="M75.3096 35.5991C75.0857 36.0379 74.7827 36.4043 74.3982 36.7006C74.0159 36.9969 73.5704 37.2185 73.0592 37.3655C72.5481 37.5125 72.0098 37.5872 71.4376 37.5872H68.8367V41.3665H67.6289V30.6573H71.6366C72.2382 30.6573 72.7856 30.7365 73.2809 30.8948C73.7762 31.0531 74.1991 31.277 74.5497 31.5688C74.9025 31.8583 75.1717 32.2156 75.3616 32.6386C75.5494 33.0615 75.6444 33.5387 75.6444 34.0702C75.6444 34.6515 75.5313 35.1626 75.3074 35.5991H75.3096ZM73.6473 32.3626C73.1203 31.9691 72.4237 31.7746 71.553 31.7746H68.8367V36.488H71.4919C71.9329 36.488 72.3332 36.4314 72.6951 36.3206C73.0592 36.2075 73.3714 36.0469 73.6315 35.8389C73.8915 35.6308 74.0906 35.3797 74.2285 35.0902C74.3665 34.8007 74.4366 34.4751 74.4366 34.1177C74.4366 33.342 74.172 32.7584 73.645 32.3649L73.6473 32.3626Z" fill="black"/>
<path d="M79.0574 36.5468V41.3665H77.8496V30.6573H79.0574V35.4159H85.2386V30.6573H86.4463V41.3665H85.2386V36.5468H79.0574Z" fill="black"/>
<path d="M99.4534 41.3664H98.1529L96.8976 38.5348H91.0693L89.8004 41.3664H88.561L93.4418 30.5804H94.5726L99.4534 41.3664ZM93.9914 32.003L91.5442 37.465H96.425L93.9914 32.003Z" fill="black"/>
<path d="M117.768 38.4285H117.707L113.806 32.7064V41.3665H112.627V30.6573H113.851L117.752 36.5015L121.654 30.6573H122.877V41.3665H121.667V32.6906L117.766 38.4285H117.768Z" fill="black"/>
<path d="M135.885 41.3664H134.584L133.329 38.5348H127.501L126.23 41.3664H124.99L129.871 30.5804H131.004L135.885 41.3664ZM130.423 32.003L127.976 37.465H132.856L130.423 32.003Z" fill="black"/>
<path d="M106.978 41.3664L101.566 36.8023V35.5041H105.13C105.883 35.5041 106.557 35.0518 106.845 34.3507L106.926 34.1562H101.566V33.1474H106.926L106.847 32.9529C106.562 32.2518 105.888 31.7995 105.13 31.7995H101.566V30.5849H110.083V31.5936H107.419L107.587 31.8198C107.862 32.1885 108.046 32.5978 108.136 33.0366L108.159 33.1497H110.081V34.1584H108.159L108.136 34.2715C107.844 35.6918 106.58 36.7232 105.13 36.7232H103.597L108.833 41.3687H106.976L106.978 41.3664Z" fill="black"/>
<path d="M31.7135 46.2653V47.9231H31.2974V44.2365H31.7135V45.874H33.8418V44.2365H34.2579V47.9231H33.8418V46.2653H31.7135Z" fill="black" stroke="black" stroke-width="0.022617" stroke-miterlimit="10"/>
<path d="M36.3839 44.2388V47.9254H35.9678V44.2388H36.3839Z" fill="black" stroke="black" stroke-width="0.022617" stroke-miterlimit="10"/>
<path d="M40.6539 47.8236C40.4029 47.9344 40.1202 47.9887 39.8081 47.9887C39.5163 47.9887 39.2562 47.9389 39.0255 47.8417C38.7948 47.7422 38.598 47.6087 38.4352 47.4368C38.2724 47.265 38.148 47.0637 38.062 46.8307C37.9761 46.5977 37.9331 46.3512 37.9331 46.0889C37.9331 45.8265 37.9783 45.5936 38.0665 45.3629C38.157 45.1322 38.2814 44.9286 38.4442 44.7522C38.6071 44.5758 38.7993 44.4378 39.0255 44.3338C39.2517 44.2298 39.505 44.1777 39.7809 44.1777C39.9347 44.1777 40.0772 44.189 40.2038 44.2094C40.3328 44.2298 40.4526 44.2614 40.5635 44.3044C40.6743 44.3474 40.7783 44.3971 40.8733 44.4604C40.9706 44.5215 41.0633 44.5916 41.156 44.6685L40.8869 44.9852C40.8168 44.9218 40.7421 44.8653 40.6652 44.8155C40.5883 44.7635 40.5047 44.7205 40.4142 44.6844C40.326 44.6482 40.2265 44.6188 40.1202 44.5984C40.0139 44.5781 39.894 44.5667 39.7651 44.5667C39.5615 44.5667 39.3738 44.6075 39.2019 44.6889C39.03 44.7703 38.883 44.8789 38.7609 45.0146C38.6388 45.1525 38.5415 45.3131 38.4714 45.4986C38.4013 45.684 38.3674 45.8785 38.3674 46.0866C38.3674 46.3083 38.4013 46.5141 38.4714 46.7018C38.5392 46.8895 38.6365 47.0523 38.7631 47.1903C38.8898 47.3283 39.0413 47.4346 39.22 47.5115C39.3987 47.5884 39.6 47.6268 39.8261 47.6268C40.0365 47.6268 40.2355 47.5906 40.421 47.5183C40.6064 47.4459 40.7625 47.3599 40.8891 47.2559V46.3354H39.7673V45.9667H41.2895V47.4323C41.1176 47.5861 40.905 47.7196 40.6562 47.8281L40.6539 47.8236Z" fill="black" stroke="black" stroke-width="0.022617" stroke-miterlimit="10"/>
<path d="M43.2731 46.2653V47.9231H42.8569V44.2365H43.2731V45.874H45.4013V44.2365H45.8175V47.9231H45.4013V46.2653H43.2731Z" fill="black" stroke="black" stroke-width="0.022617" stroke-miterlimit="10"/>
<path d="M50.1555 44.6165H47.9074V45.874H49.918V46.254H47.9074V47.5431H50.1826V47.9231H47.4912V44.2365H50.1555V44.6165Z" fill="black" stroke="black" stroke-width="0.022617" stroke-miterlimit="10"/>
<path d="M54.1903 47.9254L53.1205 46.4937H52.0665V47.9254H51.6504V44.2388H53.2358C53.4394 44.2388 53.6226 44.2659 53.7854 44.318C53.9483 44.37 54.0885 44.4446 54.2038 44.5419C54.3192 44.6391 54.4097 44.7545 54.473 44.8902C54.5363 45.0259 54.568 45.1751 54.568 45.3402C54.568 45.494 54.5431 45.632 54.4933 45.7541C54.4436 45.8763 54.3757 45.9803 54.2853 46.0708C54.1971 46.1612 54.0908 46.2359 53.9664 46.2947C53.8442 46.3535 53.7108 46.3965 53.566 46.4213L54.6992 47.9254H54.188H54.1903ZM53.903 44.8155C53.7379 44.6866 53.505 44.6233 53.2064 44.6233H52.0665V46.1251H53.2019C53.3399 46.1251 53.4665 46.107 53.5819 46.073C53.6972 46.0368 53.799 45.9871 53.8827 45.9215C53.9664 45.8559 54.0342 45.7768 54.0817 45.6818C54.1292 45.5868 54.1518 45.4782 54.1518 45.3583C54.1518 45.1254 54.0681 44.9444 53.903 44.8178V44.8155Z" fill="black" stroke="black" stroke-width="0.022617" stroke-miterlimit="10"/>
<path d="M60.0707 46.9144H60.0481L58.7047 44.9444V47.9254H58.2998V44.2388H58.7205L60.0617 46.2494L61.4051 44.2388H61.8258V47.9254H61.4096V44.9399L60.0662 46.9144H60.0707Z" fill="black" stroke="black" stroke-width="0.022617" stroke-miterlimit="10"/>
<path d="M66.9371 47.9254H66.4893L66.0573 46.9506H64.0512L63.6146 47.9254H63.1895L64.8699 44.2139H65.2589L66.9393 47.9254H66.9371ZM65.0576 44.7025L64.2163 46.5819H65.8944L65.0576 44.7025Z" fill="black" stroke="black" stroke-width="0.022617" stroke-miterlimit="10"/>
<path d="M70.8363 47.9254L69.7665 46.4937H68.7125V47.9254H68.2964V44.2388H69.8818C70.0854 44.2388 70.2686 44.2659 70.4314 44.318C70.5943 44.37 70.7345 44.4446 70.8498 44.5419C70.9652 44.6391 71.0534 44.7545 71.119 44.8902C71.1823 45.0259 71.214 45.1751 71.214 45.3402C71.214 45.494 71.1891 45.632 71.1393 45.7541C71.0918 45.8763 71.0217 45.9803 70.9313 46.0708C70.8431 46.1612 70.7368 46.2359 70.6124 46.2947C70.488 46.3535 70.3568 46.3965 70.212 46.4213L71.3429 47.9254H70.8317H70.8363ZM70.549 44.8155C70.3839 44.6866 70.151 44.6233 69.8524 44.6233H68.7125V46.1251H69.8479C69.9859 46.1251 70.1125 46.107 70.2279 46.073C70.3455 46.0368 70.445 45.9871 70.5287 45.9215C70.6124 45.8559 70.6802 45.7768 70.7254 45.6818C70.7729 45.5868 70.7978 45.4782 70.7978 45.3583C70.7978 45.1254 70.7141 44.9444 70.549 44.8178V44.8155Z" fill="black" stroke="black" stroke-width="0.022617" stroke-miterlimit="10"/>
<path d="M75.2921 47.8236C75.0411 47.9344 74.7584 47.9887 74.4462 47.9887C74.1545 47.9887 73.8944 47.9389 73.6637 47.8417C73.433 47.7422 73.2362 47.6087 73.0734 47.4368C72.9105 47.265 72.7862 47.0637 72.7002 46.8307C72.6143 46.5977 72.5713 46.3512 72.5713 46.0889C72.5713 45.8265 72.6143 45.5936 72.7047 45.3629C72.7952 45.1322 72.9196 44.9286 73.0802 44.7522C73.243 44.5758 73.4353 44.4378 73.6614 44.3338C73.8876 44.2298 74.1409 44.1777 74.4168 44.1777C74.5729 44.1777 74.7131 44.189 74.842 44.2094C74.971 44.2298 75.0886 44.2614 75.1994 44.3044C75.3102 44.3474 75.4142 44.3971 75.5115 44.4604C75.6087 44.5215 75.7015 44.5916 75.7919 44.6685L75.5228 44.9852C75.4527 44.9218 75.3781 44.8653 75.3034 44.8155C75.2265 44.7635 75.1428 44.7205 75.0524 44.6844C74.9619 44.6482 74.8647 44.6188 74.7584 44.5984C74.6498 44.5781 74.5322 44.5667 74.401 44.5667C74.1974 44.5667 74.0097 44.6075 73.8378 44.6889C73.666 44.7703 73.5189 44.8789 73.3946 45.0146C73.2724 45.1525 73.1752 45.3131 73.1051 45.4986C73.0349 45.684 72.9988 45.8785 72.9988 46.0866C72.9988 46.3083 73.0327 46.5141 73.1005 46.7018C73.1684 46.8895 73.2679 47.0523 73.3923 47.1903C73.5189 47.3283 73.6727 47.4346 73.8514 47.5115C74.0301 47.5884 74.2314 47.6268 74.4575 47.6268C74.6679 47.6268 74.8669 47.5906 75.0524 47.5183C75.2378 47.4459 75.3962 47.3599 75.5205 47.2559V46.3354H74.3987V45.9667H75.9209V47.4323C75.7467 47.5861 75.5364 47.7196 75.2853 47.8281L75.2921 47.8236Z" fill="black" stroke="black" stroke-width="0.022617" stroke-miterlimit="10"/>
<path d="M77.9494 44.2388V47.9254H77.5332V44.2388H77.9494Z" fill="black" stroke="black" stroke-width="0.022617" stroke-miterlimit="10"/>
<path d="M82.3734 44.2388H82.7782V47.9254H82.4458L80.0665 44.9037V47.9254H79.6616V44.2388H80.0506L82.3734 47.1926V44.2388Z" fill="black" stroke="black" stroke-width="0.022617" stroke-miterlimit="10"/>
<path d="M84.816 45.3923C84.8431 45.4624 84.8951 45.528 84.9698 45.5845C85.0444 45.6433 85.1462 45.6953 85.2751 45.7428C85.404 45.7903 85.5714 45.8355 85.7749 45.8763C86.1866 45.9667 86.4896 46.0934 86.6819 46.2562C86.8764 46.4168 86.9736 46.6407 86.9736 46.9257C86.9736 47.084 86.9442 47.2288 86.8809 47.3577C86.8198 47.4866 86.7316 47.5974 86.6231 47.6901C86.5122 47.7806 86.3811 47.853 86.2273 47.9005C86.0735 47.9502 85.9038 47.9751 85.7206 47.9751C85.4266 47.9751 85.1575 47.9276 84.9132 47.8326C84.669 47.7376 84.436 47.5906 84.2144 47.3893L84.4722 47.084C84.6644 47.2582 84.8589 47.3893 85.0557 47.4753C85.2525 47.5612 85.4786 47.6042 85.7342 47.6042C85.9898 47.6042 86.182 47.5454 86.3313 47.43C86.4806 47.3147 86.5552 47.1609 86.5552 46.9709C86.5552 46.8827 86.5416 46.8058 86.5145 46.7357C86.4874 46.6679 86.4376 46.6045 86.3652 46.548C86.2951 46.4914 86.1979 46.4417 86.0712 46.3942C85.9468 46.349 85.7885 46.306 85.594 46.263C85.3837 46.2178 85.2005 46.1635 85.0444 46.1047C84.8861 46.0459 84.7572 45.9735 84.6554 45.8876C84.5536 45.8039 84.4767 45.7044 84.4292 45.5935C84.3795 45.4805 84.3568 45.347 84.3568 45.1932C84.3568 45.0394 84.3862 44.9105 84.445 44.7884C84.5039 44.664 84.5898 44.5577 84.6984 44.4695C84.8069 44.379 84.9358 44.3089 85.0828 44.2591C85.2299 44.2071 85.3927 44.1823 85.5668 44.1823C85.8382 44.1823 86.0735 44.2184 86.2748 44.2953C86.476 44.37 86.6706 44.4808 86.8605 44.6323L86.6185 44.9535C86.4467 44.8133 86.2725 44.7115 86.1006 44.6482C85.9265 44.5848 85.7455 44.5532 85.5555 44.5532C85.4357 44.5532 85.3294 44.569 85.2321 44.6007C85.1349 44.6323 85.0512 44.6753 84.9856 44.7273C84.9177 44.7793 84.8635 44.8427 84.8273 44.9173C84.7911 44.9919 84.773 45.0711 84.773 45.1548C84.773 45.2385 84.7866 45.3221 84.8137 45.3923H84.816Z" fill="black" stroke="black" stroke-width="0.022617" stroke-miterlimit="10"/>
<path d="M88.3398 47.9254V47.3735H88.8239V47.9254H88.3398Z" fill="black" stroke="black" stroke-width="0.022617" stroke-miterlimit="10"/>
<path d="M95.6856 46.8058C95.5906 47.032 95.4572 47.2288 95.283 47.3939C95.1089 47.559 94.9008 47.6879 94.6611 47.7829C94.4213 47.8779 94.1567 47.9254 93.8695 47.9254H92.5894V44.2388H93.8695C94.1567 44.2388 94.4213 44.2863 94.6611 44.379C94.9008 44.4718 95.1089 44.6007 95.283 44.7658C95.4549 44.9309 95.5906 45.1254 95.6856 45.3493C95.7806 45.5732 95.8281 45.8152 95.8281 46.0753C95.8281 46.3354 95.7806 46.5774 95.6856 46.8036V46.8058ZM95.2876 45.5121C95.2152 45.3335 95.1134 45.1774 94.9822 45.0462C94.851 44.915 94.6905 44.811 94.5005 44.7364C94.3105 44.6617 94.1002 44.6233 93.8695 44.6233H93.0055V47.5409H93.8695C94.1002 47.5409 94.3105 47.5047 94.5005 47.4301C94.6905 47.3554 94.851 47.2536 94.9822 47.1225C95.1134 46.9913 95.2152 46.8375 95.2876 46.6611C95.3599 46.4847 95.3961 46.2947 95.3961 46.0866C95.3961 45.8785 95.3599 45.6908 95.2876 45.5121Z" fill="black" stroke="black" stroke-width="0.022617" stroke-miterlimit="10"/>
<path d="M100.003 44.6165H97.755V45.874H99.7657V46.254H97.755V47.5431H100.03V47.9231H97.3389V44.2365H100.003V44.6165Z" fill="black" stroke="black" stroke-width="0.022617" stroke-miterlimit="10"/>
<path d="M101.498 44.2388H101.914V47.5409H103.988V47.9254H101.498V44.2388Z" fill="black" stroke="black" stroke-width="0.022617" stroke-miterlimit="10"/>
<path d="M105.843 44.2388V47.9254H105.427V44.2388H105.843Z" fill="black" stroke="black" stroke-width="0.022617" stroke-miterlimit="10"/>
<path d="M110.33 44.2388H110.778L109.193 47.9525H108.824L107.241 44.2388H107.704L109.016 47.4142L110.332 44.2388H110.33Z" fill="black" stroke="black" stroke-width="0.022617" stroke-miterlimit="10"/>
<path d="M114.801 44.6165H112.553V45.874H114.564V46.254H112.553V47.5431H114.829V47.9231H112.137V44.2365H114.801V44.6165Z" fill="black" stroke="black" stroke-width="0.022617" stroke-miterlimit="10"/>
<path d="M118.834 47.9254L117.765 46.4937H116.711V47.9254H116.294V44.2388H117.88C118.083 44.2388 118.267 44.2659 118.429 44.318C118.592 44.37 118.733 44.4446 118.848 44.5419C118.963 44.6391 119.051 44.7545 119.117 44.8902C119.18 45.0259 119.212 45.1751 119.212 45.3402C119.212 45.494 119.187 45.632 119.137 45.7541C119.09 45.8763 119.02 45.9803 118.929 46.0708C118.841 46.1612 118.735 46.2359 118.61 46.2947C118.486 46.3535 118.355 46.3965 118.21 46.4213L119.341 47.9254H118.83H118.834ZM118.549 44.8155C118.384 44.6866 118.151 44.6233 117.853 44.6233H116.713V46.1251H117.848C117.986 46.1251 118.113 46.107 118.228 46.073C118.346 46.0368 118.445 45.9871 118.529 45.9215C118.613 45.8559 118.681 45.7768 118.726 45.6818C118.773 45.5868 118.798 45.4782 118.798 45.3583C118.798 45.1254 118.714 44.9444 118.549 44.8178V44.8155Z" fill="black" stroke="black" stroke-width="0.022617" stroke-miterlimit="10"/>
<path d="M123.4 44.6165H121.152V45.874H123.165V46.254H121.152V47.5431H123.427V47.9231H120.738V44.2365H123.403V44.6165H123.4Z" fill="black" stroke="black" stroke-width="0.022617" stroke-miterlimit="10"/>
<path d="M127.992 46.8058C127.897 47.032 127.763 47.2288 127.589 47.3939C127.415 47.559 127.209 47.6879 126.967 47.7829C126.727 47.8779 126.463 47.9254 126.176 47.9254H124.896V44.2388H126.176C126.463 44.2388 126.727 44.2863 126.967 44.379C127.207 44.4718 127.415 44.6007 127.589 44.7658C127.763 44.9309 127.897 45.1254 127.992 45.3493C128.087 45.5732 128.134 45.8152 128.134 46.0753C128.134 46.3354 128.087 46.5774 127.992 46.8036V46.8058ZM127.594 45.5121C127.521 45.3335 127.422 45.1774 127.288 45.0462C127.157 44.915 126.997 44.811 126.807 44.7364C126.617 44.6617 126.406 44.6233 126.176 44.6233H125.312V47.5409H126.176C126.406 47.5409 126.617 47.5047 126.807 47.4301C126.997 47.3554 127.157 47.2536 127.288 47.1225C127.42 46.9913 127.521 46.8375 127.594 46.6611C127.666 46.4847 127.702 46.2947 127.702 46.0866C127.702 45.8785 127.666 45.6908 127.594 45.5121Z" fill="black" stroke="black" stroke-width="0.022617" stroke-miterlimit="10"/>
<path d="M31.4602 0L35.4792 2.852C21.8751 18.4374 0 13.6222 0 13.6222L1.46784 21.8593C30.5329 24.7113 42.5154 8.04712 42.5154 8.04712L45.917 10.9624V0H31.4625H31.4602Z" fill="url(#paint0_linear_13_990)"/>
<path d="M6.71973 46.0685H14.6583L20.9458 26.6043C27.2175 24.6955 31.2795 21.0315 33.0436 19.1611C28.2149 21.7394 21.7985 24.0192 13.6089 24.743L6.71973 46.0708V46.0685Z" fill="url(#paint1_linear_13_990)"/>
</g>
<defs>
<linearGradient id="paint0_linear_13_990" x1="39.5955" y1="5.57056" x2="-16.4425" y2="26.3714" gradientUnits="userSpaceOnUse">
<stop stop-color="#00FFFF"/>
<stop offset="1" stop-color="#2E04B5"/>
</linearGradient>
<linearGradient id="paint1_linear_13_990" x1="46.2474" y1="23.4855" x2="-9.79293" y2="44.2863" gradientUnits="userSpaceOnUse">
<stop stop-color="#00FFFF"/>
<stop offset="1" stop-color="#2E04B5"/>
</linearGradient>
<clipPath id="clip0_13_990">
<rect width="135.885" height="48" fill="white"/>
</clipPath>
</defs>
</svg>
