<svg width="136" height="48" viewBox="0 0 136 48" fill="none" xmlns="http://www.w3.org/2000/svg">
<g id="Asset 1 1" clip-path="url(#clip0_11_269)">
<g id="Layer 1">
<g id="Group">
<g id="Group_2">
<g id="Group_3">
<path id="Vector" d="M24.0122 41.2127V30.499H32.0933V32.5956H26.3531V34.7691H31.4034V36.8657H26.3531V39.1161H32.1702V41.2127H24.0122Z" fill="#1D2534"/>
<path id="Vector_2" d="M36.6956 41.3667C35.0264 41.3667 33.925 40.6316 33.1899 39.7609L34.6736 38.1076C35.2865 38.7815 35.8836 39.1796 36.6322 39.1796C37.5211 39.1796 38.0707 38.6436 38.0707 37.4042V30.5015H40.4884V37.5105C40.4884 40.1114 38.9595 41.3667 36.6933 41.3667H36.6956Z" fill="#1D2534"/>
<path id="Vector_3" d="M50.4833 41.2129L49.504 38.811H44.9738L43.9945 41.2129H41.5903L46.1816 30.4224H48.3551L52.9463 41.2129H50.4811H50.4833ZM47.2401 33.254L45.8174 36.728H48.6627L47.2401 33.254Z" fill="#1D2534"/>
<path id="Vector_4" d="M58.2565 41.3666C56.6348 41.3666 54.9951 40.8012 53.7104 39.6523L55.1037 37.9831C56.0671 38.7793 57.0781 39.2836 58.3017 39.2836C59.2652 39.2836 59.8487 38.9014 59.8487 38.2726V38.2432C59.8487 37.6462 59.48 37.3408 57.691 36.8817C55.5334 36.3298 54.1402 35.735 54.1402 33.6068V33.5774C54.1402 31.6346 55.7007 30.3477 57.8901 30.3477C59.4506 30.3477 60.7828 30.8384 61.8684 31.7092L60.6448 33.4846C59.6949 32.8265 58.7631 32.4284 57.8584 32.4284C56.9537 32.4284 56.481 32.8423 56.481 33.3625V33.3942C56.481 34.0976 56.9402 34.3282 58.7925 34.8009C60.966 35.3664 62.1896 36.1489 62.1896 38.0148V38.0465C62.1896 40.1747 60.5679 41.3666 58.2565 41.3666Z" fill="#1D2534"/>
</g>
<g id="Group_4">
<path id="Vector_5" d="M75.3096 35.599C75.0857 36.0378 74.7827 36.4042 74.3982 36.7005C74.0159 36.9968 73.5704 37.2184 73.0592 37.3654C72.5481 37.5124 72.0098 37.5871 71.4376 37.5871H68.8367V41.3664H67.6289V30.6572H71.6366C72.2382 30.6572 72.7856 30.7364 73.2809 30.8947C73.7762 31.053 74.1991 31.2769 74.5497 31.5687C74.9025 31.8582 75.1717 32.2155 75.3616 32.6385C75.5494 33.0614 75.6444 33.5386 75.6444 34.0701C75.6444 34.6514 75.5313 35.1625 75.3074 35.599H75.3096ZM73.6473 32.3625C73.1203 31.969 72.4237 31.7745 71.553 31.7745H68.8367V36.4879H71.4919C71.9329 36.4879 72.3332 36.4313 72.6951 36.3205C73.0592 36.2074 73.3714 36.0469 73.6315 35.8388C73.8915 35.6307 74.0906 35.3796 74.2285 35.0902C74.3665 34.8007 74.4366 34.475 74.4366 34.1176C74.4366 33.3419 74.172 32.7583 73.645 32.3648L73.6473 32.3625Z" fill="#1D2534"/>
<path id="Vector_6" d="M79.0574 36.5467V41.3664H77.8496V30.6572H79.0574V35.4158H85.2386V30.6572H86.4463V41.3664H85.2386V36.5467H79.0574Z" fill="#1D2534"/>
<path id="Vector_7" d="M99.4534 41.3666H98.1529L96.8976 38.535H91.0693L89.8004 41.3666H88.561L93.4418 30.5806H94.5726L99.4534 41.3666ZM93.9914 32.0032L91.5442 37.4652H96.425L93.9914 32.0032Z" fill="#1D2534"/>
<path id="Vector_8" d="M117.768 38.4284H117.707L113.806 32.7063V41.3664H112.627V30.6572H113.851L117.752 36.5015L121.654 30.6572H122.877V41.3664H121.667V32.6905L117.766 38.4284H117.768Z" fill="#1D2534"/>
<path id="Vector_9" d="M135.885 41.3666H134.584L133.329 38.535H127.501L126.23 41.3666H124.99L129.871 30.5806H131.004L135.885 41.3666ZM130.423 32.0032L127.976 37.4652H132.856L130.423 32.0032Z" fill="#1D2534"/>
<path id="Vector_10" d="M106.978 41.3665L101.566 36.8024V35.5042H105.13C105.883 35.5042 106.557 35.0518 106.845 34.3507L106.926 34.1562H101.566V33.1475H106.926L106.847 32.953C106.562 32.2518 105.888 31.7995 105.13 31.7995H101.566V30.585H110.083V31.5937H107.419L107.587 31.8198C107.862 32.1885 108.046 32.5979 108.136 33.0366L108.159 33.1497H110.081V34.1584H108.159L108.136 34.2715C107.844 35.6919 106.58 36.7232 105.13 36.7232H103.597L108.833 41.3687H106.976L106.978 41.3665Z" fill="#1D2534"/>
</g>
</g>
<g id="Group_5">
<path id="Vector_11" d="M31.7135 46.2651V47.9229H31.2974V44.2363H31.7135V45.8738H33.8418V44.2363H34.2579V47.9229H33.8418V46.2651H31.7135Z" fill="#1D2534" stroke="#1D2534" stroke-width="0.022617" stroke-miterlimit="10"/>
<path id="Vector_12" d="M36.3839 44.2388V47.9253H35.9678V44.2388H36.3839Z" fill="#1D2534" stroke="#1D2534" stroke-width="0.022617" stroke-miterlimit="10"/>
<path id="Vector_13" d="M40.6539 47.8236C40.4029 47.9344 40.1202 47.9887 39.8081 47.9887C39.5163 47.9887 39.2562 47.9389 39.0255 47.8417C38.7948 47.7422 38.598 47.6087 38.4352 47.4368C38.2724 47.265 38.148 47.0637 38.062 46.8307C37.9761 46.5977 37.9331 46.3512 37.9331 46.0889C37.9331 45.8265 37.9783 45.5936 38.0665 45.3629C38.157 45.1322 38.2814 44.9286 38.4442 44.7522C38.6071 44.5758 38.7993 44.4378 39.0255 44.3338C39.2517 44.2298 39.505 44.1777 39.7809 44.1777C39.9347 44.1777 40.0772 44.189 40.2038 44.2094C40.3328 44.2298 40.4526 44.2614 40.5635 44.3044C40.6743 44.3474 40.7783 44.3971 40.8733 44.4604C40.9706 44.5215 41.0633 44.5916 41.156 44.6685L40.8869 44.9852C40.8168 44.9218 40.7421 44.8653 40.6652 44.8155C40.5883 44.7635 40.5047 44.7205 40.4142 44.6844C40.326 44.6482 40.2265 44.6188 40.1202 44.5984C40.0139 44.5781 39.894 44.5667 39.7651 44.5667C39.5615 44.5667 39.3738 44.6075 39.2019 44.6889C39.03 44.7703 38.883 44.8789 38.7609 45.0146C38.6388 45.1525 38.5415 45.3131 38.4714 45.4986C38.4013 45.684 38.3674 45.8785 38.3674 46.0866C38.3674 46.3083 38.4013 46.5141 38.4714 46.7018C38.5392 46.8895 38.6365 47.0523 38.7631 47.1903C38.8898 47.3283 39.0413 47.4346 39.22 47.5115C39.3987 47.5884 39.6 47.6268 39.8261 47.6268C40.0365 47.6268 40.2355 47.5906 40.421 47.5183C40.6064 47.4459 40.7625 47.3599 40.8891 47.2559V46.3354H39.7673V45.9667H41.2895V47.4323C41.1176 47.5861 40.905 47.7196 40.6562 47.8281L40.6539 47.8236Z" fill="#1D2534" stroke="#1D2534" stroke-width="0.022617" stroke-miterlimit="10"/>
<path id="Vector_14" d="M43.2731 46.2651V47.9229H42.8569V44.2363H43.2731V45.8738H45.4013V44.2363H45.8175V47.9229H45.4013V46.2651H43.2731Z" fill="#1D2534" stroke="#1D2534" stroke-width="0.022617" stroke-miterlimit="10"/>
<path id="Vector_15" d="M50.1555 44.6163H47.9074V45.8738H49.918V46.2538H47.9074V47.5429H50.1826V47.9229H47.4912V44.2363H50.1555V44.6163Z" fill="#1D2534" stroke="#1D2534" stroke-width="0.022617" stroke-miterlimit="10"/>
<path id="Vector_16" d="M54.1903 47.9253L53.1205 46.4937H52.0665V47.9253H51.6504V44.2388H53.2358C53.4394 44.2388 53.6226 44.2659 53.7854 44.3179C53.9483 44.3699 54.0885 44.4446 54.2038 44.5418C54.3192 44.6391 54.4097 44.7544 54.473 44.8901C54.5363 45.0258 54.568 45.1751 54.568 45.3402C54.568 45.494 54.5431 45.632 54.4933 45.7541C54.4436 45.8762 54.3757 45.9803 54.2853 46.0707C54.1971 46.1612 54.0908 46.2358 53.9664 46.2947C53.8442 46.3535 53.7108 46.3964 53.566 46.4213L54.6992 47.9253H54.188H54.1903ZM53.903 44.8155C53.7379 44.6866 53.505 44.6233 53.2064 44.6233H52.0665V46.125H53.2019C53.3399 46.125 53.4665 46.1069 53.5819 46.073C53.6972 46.0368 53.799 45.9871 53.8827 45.9215C53.9664 45.8559 54.0342 45.7767 54.0817 45.6817C54.1292 45.5867 54.1518 45.4782 54.1518 45.3583C54.1518 45.1254 54.0681 44.9444 53.903 44.8178V44.8155Z" fill="#1D2534" stroke="#1D2534" stroke-width="0.022617" stroke-miterlimit="10"/>
<path id="Vector_17" d="M60.0707 46.9144H60.0481L58.7047 44.9444V47.9253H58.2998V44.2388H58.7205L60.0617 46.2494L61.4051 44.2388H61.8258V47.9253H61.4096V44.9399L60.0662 46.9144H60.0707Z" fill="#1D2534" stroke="#1D2534" stroke-width="0.022617" stroke-miterlimit="10"/>
<path id="Vector_18" d="M66.9371 47.9253H66.4893L66.0573 46.9505H64.0512L63.6146 47.9253H63.1895L64.8699 44.2139H65.2589L66.9393 47.9253H66.9371ZM65.0576 44.7024L64.2163 46.5819H65.8944L65.0576 44.7024Z" fill="#1D2534" stroke="#1D2534" stroke-width="0.022617" stroke-miterlimit="10"/>
<path id="Vector_19" d="M70.8363 47.9253L69.7665 46.4937H68.7125V47.9253H68.2964V44.2388H69.8818C70.0854 44.2388 70.2686 44.2659 70.4314 44.3179C70.5943 44.3699 70.7345 44.4446 70.8498 44.5418C70.9652 44.6391 71.0534 44.7544 71.119 44.8901C71.1823 45.0258 71.214 45.1751 71.214 45.3402C71.214 45.494 71.1891 45.632 71.1393 45.7541C71.0918 45.8762 71.0217 45.9803 70.9313 46.0707C70.8431 46.1612 70.7368 46.2358 70.6124 46.2947C70.488 46.3535 70.3568 46.3964 70.212 46.4213L71.3429 47.9253H70.8317H70.8363ZM70.549 44.8155C70.3839 44.6866 70.151 44.6233 69.8524 44.6233H68.7125V46.125H69.8479C69.9859 46.125 70.1125 46.1069 70.2279 46.073C70.3455 46.0368 70.445 45.9871 70.5287 45.9215C70.6124 45.8559 70.6802 45.7767 70.7254 45.6817C70.7729 45.5867 70.7978 45.4782 70.7978 45.3583C70.7978 45.1254 70.7141 44.9444 70.549 44.8178V44.8155Z" fill="#1D2534" stroke="#1D2534" stroke-width="0.022617" stroke-miterlimit="10"/>
<path id="Vector_20" d="M75.2921 47.8236C75.0411 47.9344 74.7584 47.9887 74.4462 47.9887C74.1545 47.9887 73.8944 47.9389 73.6637 47.8417C73.433 47.7422 73.2362 47.6087 73.0734 47.4368C72.9105 47.265 72.7862 47.0637 72.7002 46.8307C72.6143 46.5977 72.5713 46.3512 72.5713 46.0889C72.5713 45.8265 72.6143 45.5936 72.7047 45.3629C72.7952 45.1322 72.9196 44.9286 73.0802 44.7522C73.243 44.5758 73.4353 44.4378 73.6614 44.3338C73.8876 44.2298 74.1409 44.1777 74.4168 44.1777C74.5729 44.1777 74.7131 44.189 74.842 44.2094C74.971 44.2298 75.0886 44.2614 75.1994 44.3044C75.3102 44.3474 75.4142 44.3971 75.5115 44.4604C75.6087 44.5215 75.7015 44.5916 75.7919 44.6685L75.5228 44.9852C75.4527 44.9218 75.3781 44.8653 75.3034 44.8155C75.2265 44.7635 75.1428 44.7205 75.0524 44.6844C74.9619 44.6482 74.8647 44.6188 74.7584 44.5984C74.6498 44.5781 74.5322 44.5667 74.401 44.5667C74.1974 44.5667 74.0097 44.6075 73.8378 44.6889C73.666 44.7703 73.5189 44.8789 73.3946 45.0146C73.2724 45.1525 73.1752 45.3131 73.1051 45.4986C73.0349 45.684 72.9988 45.8785 72.9988 46.0866C72.9988 46.3083 73.0327 46.5141 73.1005 46.7018C73.1684 46.8895 73.2679 47.0523 73.3923 47.1903C73.5189 47.3283 73.6727 47.4346 73.8514 47.5115C74.0301 47.5884 74.2314 47.6268 74.4575 47.6268C74.6679 47.6268 74.8669 47.5906 75.0524 47.5183C75.2378 47.4459 75.3962 47.3599 75.5205 47.2559V46.3354H74.3987V45.9667H75.9209V47.4323C75.7467 47.5861 75.5364 47.7196 75.2853 47.8281L75.2921 47.8236Z" fill="#1D2534" stroke="#1D2534" stroke-width="0.022617" stroke-miterlimit="10"/>
<path id="Vector_21" d="M77.9494 44.2388V47.9253H77.5332V44.2388H77.9494Z" fill="#1D2534" stroke="#1D2534" stroke-width="0.022617" stroke-miterlimit="10"/>
<path id="Vector_22" d="M82.3734 44.2388H82.7782V47.9253H82.4458L80.0665 44.9037V47.9253H79.6616V44.2388H80.0506L82.3734 47.1925V44.2388Z" fill="#1D2534" stroke="#1D2534" stroke-width="0.022617" stroke-miterlimit="10"/>
<path id="Vector_23" d="M84.816 45.3921C84.8431 45.4622 84.8951 45.5278 84.9698 45.5844C85.0444 45.6432 85.1462 45.6952 85.2751 45.7427C85.404 45.7902 85.5714 45.8354 85.7749 45.8761C86.1866 45.9666 86.4896 46.0933 86.6819 46.2561C86.8764 46.4167 86.9736 46.6406 86.9736 46.9256C86.9736 47.0839 86.9442 47.2286 86.8809 47.3576C86.8198 47.4865 86.7316 47.5973 86.6231 47.69C86.5122 47.7805 86.3811 47.8529 86.2273 47.9004C86.0735 47.9501 85.9038 47.975 85.7206 47.975C85.4266 47.975 85.1575 47.9275 84.9132 47.8325C84.669 47.7375 84.436 47.5905 84.2144 47.3892L84.4722 47.0839C84.6644 47.258 84.8589 47.3892 85.0557 47.4752C85.2525 47.5611 85.4786 47.6041 85.7342 47.6041C85.9898 47.6041 86.182 47.5453 86.3313 47.4299C86.4806 47.3146 86.5552 47.1608 86.5552 46.9708C86.5552 46.8826 86.5416 46.8057 86.5145 46.7356C86.4874 46.6677 86.4376 46.6044 86.3652 46.5479C86.2951 46.4913 86.1979 46.4416 86.0712 46.3941C85.9468 46.3488 85.7885 46.3059 85.594 46.2629C85.3837 46.2177 85.2005 46.1634 85.0444 46.1046C84.8861 46.0458 84.7572 45.9734 84.6554 45.8874C84.5536 45.8038 84.4767 45.7042 84.4292 45.5934C84.3795 45.4803 84.3568 45.3469 84.3568 45.1931C84.3568 45.0393 84.3862 44.9104 84.445 44.7883C84.5039 44.6639 84.5898 44.5576 84.6984 44.4694C84.8069 44.3789 84.9358 44.3088 85.0828 44.259C85.2299 44.207 85.3927 44.1821 85.5668 44.1821C85.8382 44.1821 86.0735 44.2183 86.2748 44.2952C86.476 44.3698 86.6706 44.4807 86.8605 44.6322L86.6185 44.9534C86.4467 44.8131 86.2725 44.7114 86.1006 44.648C85.9265 44.5847 85.7455 44.553 85.5555 44.553C85.4357 44.553 85.3294 44.5689 85.2321 44.6005C85.1349 44.6322 85.0512 44.6752 84.9856 44.7272C84.9177 44.7792 84.8635 44.8425 84.8273 44.9172C84.7911 44.9918 84.773 45.071 84.773 45.1547C84.773 45.2383 84.7866 45.322 84.8137 45.3921H84.816Z" fill="#1D2534" stroke="#1D2534" stroke-width="0.022617" stroke-miterlimit="10"/>
<path id="Vector_24" d="M88.3398 47.9254V47.3735H88.8239V47.9254H88.3398Z" fill="#1D2534" stroke="#1D2534" stroke-width="0.022617" stroke-miterlimit="10"/>
<path id="Vector_25" d="M95.6856 46.8058C95.5906 47.032 95.4572 47.2287 95.283 47.3938C95.1089 47.5589 94.9008 47.6879 94.6611 47.7828C94.4213 47.8778 94.1567 47.9253 93.8695 47.9253H92.5894V44.2388H93.8695C94.1567 44.2388 94.4213 44.2863 94.6611 44.379C94.9008 44.4717 95.1089 44.6006 95.283 44.7657C95.4549 44.9308 95.5906 45.1254 95.6856 45.3493C95.7806 45.5732 95.8281 45.8152 95.8281 46.0753C95.8281 46.3354 95.7806 46.5774 95.6856 46.8035V46.8058ZM95.2876 45.5121C95.2152 45.3334 95.1134 45.1774 94.9822 45.0462C94.851 44.915 94.6905 44.811 94.5005 44.7363C94.3105 44.6617 94.1002 44.6233 93.8695 44.6233H93.0055V47.5408H93.8695C94.1002 47.5408 94.3105 47.5047 94.5005 47.43C94.6905 47.3554 94.851 47.2536 94.9822 47.1224C95.1134 46.9913 95.2152 46.8375 95.2876 46.661C95.3599 46.4846 95.3961 46.2947 95.3961 46.0866C95.3961 45.8785 95.3599 45.6908 95.2876 45.5121Z" fill="#1D2534" stroke="#1D2534" stroke-width="0.022617" stroke-miterlimit="10"/>
<path id="Vector_26" d="M100.003 44.6163H97.755V45.8738H99.7657V46.2538H97.755V47.5429H100.03V47.9229H97.3389V44.2363H100.003V44.6163Z" fill="#1D2534" stroke="#1D2534" stroke-width="0.022617" stroke-miterlimit="10"/>
<path id="Vector_27" d="M101.498 44.2388H101.914V47.5408H103.988V47.9253H101.498V44.2388Z" fill="#1D2534" stroke="#1D2534" stroke-width="0.022617" stroke-miterlimit="10"/>
<path id="Vector_28" d="M105.843 44.2388V47.9253H105.427V44.2388H105.843Z" fill="#1D2534" stroke="#1D2534" stroke-width="0.022617" stroke-miterlimit="10"/>
<path id="Vector_29" d="M110.33 44.2388H110.778L109.193 47.9525H108.824L107.241 44.2388H107.704L109.016 47.4142L110.332 44.2388H110.33Z" fill="#1D2534" stroke="#1D2534" stroke-width="0.022617" stroke-miterlimit="10"/>
<path id="Vector_30" d="M114.801 44.6163H112.553V45.8738H114.564V46.2538H112.553V47.5429H114.829V47.9229H112.137V44.2363H114.801V44.6163Z" fill="#1D2534" stroke="#1D2534" stroke-width="0.022617" stroke-miterlimit="10"/>
<path id="Vector_31" d="M118.834 47.9253L117.765 46.4937H116.711V47.9253H116.294V44.2388H117.88C118.083 44.2388 118.267 44.2659 118.429 44.3179C118.592 44.3699 118.733 44.4446 118.848 44.5418C118.963 44.6391 119.051 44.7544 119.117 44.8901C119.18 45.0258 119.212 45.1751 119.212 45.3402C119.212 45.494 119.187 45.632 119.137 45.7541C119.09 45.8762 119.02 45.9803 118.929 46.0707C118.841 46.1612 118.735 46.2358 118.61 46.2947C118.486 46.3535 118.355 46.3964 118.21 46.4213L119.341 47.9253H118.83H118.834ZM118.549 44.8155C118.384 44.6866 118.151 44.6233 117.853 44.6233H116.713V46.125H117.848C117.986 46.125 118.113 46.1069 118.228 46.073C118.346 46.0368 118.445 45.9871 118.529 45.9215C118.613 45.8559 118.681 45.7767 118.726 45.6817C118.773 45.5867 118.798 45.4782 118.798 45.3583C118.798 45.1254 118.714 44.9444 118.549 44.8178V44.8155Z" fill="#1D2534" stroke="#1D2534" stroke-width="0.022617" stroke-miterlimit="10"/>
<path id="Vector_32" d="M123.4 44.6163H121.152V45.8738H123.165V46.2538H121.152V47.5429H123.427V47.9229H120.738V44.2363H123.403V44.6163H123.4Z" fill="#1D2534" stroke="#1D2534" stroke-width="0.022617" stroke-miterlimit="10"/>
<path id="Vector_33" d="M127.992 46.8058C127.897 47.032 127.763 47.2287 127.589 47.3938C127.415 47.5589 127.209 47.6879 126.967 47.7828C126.727 47.8778 126.463 47.9253 126.176 47.9253H124.896V44.2388H126.176C126.463 44.2388 126.727 44.2863 126.967 44.379C127.207 44.4717 127.415 44.6006 127.589 44.7657C127.763 44.9308 127.897 45.1254 127.992 45.3493C128.087 45.5732 128.134 45.8152 128.134 46.0753C128.134 46.3354 128.087 46.5774 127.992 46.8035V46.8058ZM127.594 45.5121C127.521 45.3334 127.422 45.1774 127.288 45.0462C127.157 44.915 126.997 44.811 126.807 44.7363C126.617 44.6617 126.406 44.6233 126.176 44.6233H125.312V47.5408H126.176C126.406 47.5408 126.617 47.5047 126.807 47.43C126.997 47.3554 127.157 47.2536 127.288 47.1224C127.42 46.9913 127.521 46.8375 127.594 46.661C127.666 46.4846 127.702 46.2947 127.702 46.0866C127.702 45.8785 127.666 45.6908 127.594 45.5121Z" fill="#1D2534" stroke="#1D2534" stroke-width="0.022617" stroke-miterlimit="10"/>
</g>
<g id="Group_6">
<path id="Vector_34" d="M31.4602 0L35.4792 2.852C21.8751 18.4374 0 13.6222 0 13.6222L1.46784 21.8593C30.5329 24.7113 42.5154 8.04712 42.5154 8.04712L45.917 10.9624V0H31.4625H31.4602Z" fill="#1D2534"/>
<path id="Vector_35" d="M6.71973 46.0685H14.6583L20.9458 26.6044C27.2175 24.6955 31.2795 21.0316 33.0436 19.1611C28.2149 21.7395 21.7985 24.0193 13.6089 24.743L6.71973 46.0708V46.0685Z" fill="#1D2534"/>
</g>
</g>
</g>
</g>
<defs>
<clipPath id="clip0_11_269">
<rect width="135.885" height="48" fill="white"/>
</clipPath>
</defs>
</svg>
