<svg width="48" height="48" viewBox="0 0 48 48" fill="none" xmlns="http://www.w3.org/2000/svg">
<g id="MagnifyingGlass">
<path id="Vector" d="M31.5001 21C31.5001 23.0767 30.8842 25.1068 29.7305 26.8335C28.5767 28.5602 26.9369 29.906 25.0182 30.7008C23.0996 31.4955 20.9884 31.7034 18.9516 31.2983C16.9148 30.8931 15.0439 29.8931 13.5754 28.4247C12.107 26.9562 11.107 25.0853 10.7018 23.0485C10.2967 21.0117 10.5046 18.9005 11.2993 16.9819C12.094 15.0632 13.4399 13.4234 15.1666 12.2696C16.8933 11.1158 18.9234 10.5 21.0001 10.5C23.7848 10.5 26.4555 11.6063 28.4247 13.5754C30.3938 15.5445 31.5001 18.2153 31.5001 21ZM43.0613 43.0613C42.922 43.2007 42.7566 43.3114 42.5745 43.3869C42.3924 43.4624 42.1972 43.5012 42.0001 43.5012C41.8029 43.5012 41.6077 43.4624 41.4256 43.3869C41.2435 43.3114 41.0781 43.2007 40.9388 43.0613L31.5526 33.6732C28.2884 36.3887 24.103 37.7414 19.8669 37.4498C15.6309 37.1582 11.6703 35.2448 8.80897 32.1076C5.94767 28.9704 4.40593 24.8509 4.50445 20.606C4.60296 16.361 6.33414 12.3175 9.3379 9.31636C12.3417 6.31525 16.3867 4.58765 20.6318 4.49288C24.8768 4.39812 28.9949 5.9435 32.1296 8.80758C35.2643 11.6716 37.1742 15.6339 37.462 19.8702C37.7499 24.1065 36.3935 28.2908 33.6751 31.5525L43.0613 40.9388C43.2008 41.0781 43.3114 41.2435 43.3869 41.4256C43.4624 41.6077 43.5012 41.8029 43.5012 42C43.5012 42.1972 43.4624 42.3923 43.3869 42.5744C43.3114 42.7565 43.2008 42.922 43.0613 43.0613ZM21.0001 34.5C23.6701 34.5 26.2802 33.7083 28.5003 32.2249C30.7203 30.7415 32.4506 28.6331 33.4724 26.1663C34.4942 23.6995 34.7616 20.9851 34.2407 18.3663C33.7198 15.7476 32.434 13.3421 30.546 11.4541C28.658 9.56608 26.2525 8.28033 23.6338 7.75943C21.015 7.23853 18.3006 7.50588 15.8338 8.52766C13.367 9.54944 11.2586 11.2798 9.77522 13.4998C8.29182 15.7199 7.50006 18.33 7.50006 21C7.50403 24.5792 8.92762 28.0107 11.4585 30.5416C13.9894 33.0725 17.4209 34.4961 21.0001 34.5Z" fill="#1F59CE"/>
</g>
</svg>
