<svg width="48" height="48" viewBox="0 0 48 48" fill="none" xmlns="http://www.w3.org/2000/svg">
<g id="Pill">
<path id="Vector" d="M40.5808 7.42497C38.7077 5.55213 36.1673 4.5 33.5186 4.5C30.8698 4.5 28.3295 5.55213 26.4564 7.42497L7.42513 26.4543C5.59154 28.3351 4.57279 30.8626 4.58956 33.4892C4.60633 36.1158 5.65728 38.63 7.51473 40.4872C9.37218 42.3444 11.8866 43.3951 14.5132 43.4115C17.1398 43.4279 19.6671 42.4088 21.5476 40.575L40.5808 21.5456C42.4502 19.6714 43.5 17.1324 43.5 14.4853C43.5 11.8382 42.4502 9.29913 40.5808 7.42497ZM38.4583 19.425L28.9426 28.9387L19.0633 19.0612L28.5789 9.5456C29.8942 8.2607 31.663 7.54613 33.5017 7.55688C35.3404 7.56762 37.1007 8.3028 38.4009 9.60298C39.701 10.9032 40.4362 12.6635 40.447 14.5022C40.4577 16.3409 39.7431 18.1097 38.4583 19.425ZM35.5651 15.4387C35.7046 15.578 35.8152 15.7435 35.8907 15.9256C35.9662 16.1077 36.0051 16.3028 36.0051 16.5C36.0051 16.6971 35.9662 16.8923 35.8907 17.0744C35.8152 17.2565 35.7046 17.4219 35.5651 17.5612L31.0651 22.0612C30.9258 22.2005 30.7603 22.3109 30.5783 22.3862C30.3963 22.4615 30.2012 22.5002 30.0042 22.5001C29.8071 22.5001 29.6121 22.4612 29.4301 22.3857C29.2481 22.3102 29.0828 22.1996 28.9436 22.0603C28.8043 21.9209 28.6939 21.7555 28.6186 21.5735C28.5433 21.3914 28.5046 21.1963 28.5046 20.9993C28.5047 20.8023 28.5436 20.6072 28.6191 20.4253C28.6946 20.2433 28.8051 20.078 28.9445 19.9387L33.4445 15.4387C33.7258 15.1576 34.1072 14.9997 34.5048 14.9997C34.9025 14.9997 35.2839 15.1576 35.5651 15.4387Z" fill="#232536"/>
</g>
</svg>
