<svg width="48" height="48" viewBox="0 0 48 48" fill="none" xmlns="http://www.w3.org/2000/svg">
<g id="User">
<path id="Vector" d="M43.2993 41.25C43.1676 41.4781 42.9782 41.6674 42.7501 41.7991C42.522 41.9308 42.2633 42 41.9999 42H5.99993C5.73675 41.9997 5.47828 41.9302 5.25047 41.7984C5.02265 41.6667 4.83351 41.4773 4.70204 41.2493C4.57057 41.0213 4.5014 40.7628 4.50146 40.4996C4.50153 40.2364 4.57084 39.9779 4.70243 39.75C7.55805 34.8131 11.9587 31.2731 17.0943 29.595C14.554 28.0827 12.5803 25.7784 11.4764 23.0358C10.3725 20.2933 10.1993 17.2642 10.9836 14.4138C11.7678 11.5633 13.466 9.04909 15.8175 7.25721C18.1689 5.46533 21.0436 4.49487 23.9999 4.49487C26.9563 4.49487 29.8309 5.46533 32.1824 7.25721C34.5338 9.04909 36.2321 11.5633 37.0163 14.4138C37.8005 17.2642 37.6274 20.2933 36.5235 23.0358C35.4195 25.7784 33.4459 28.0827 30.9056 29.595C36.0412 31.2731 40.4418 34.8131 43.2974 39.75C43.4294 39.9778 43.499 40.2364 43.4993 40.4997C43.4997 40.763 43.4307 41.0218 43.2993 41.25Z" fill="#1F59CE"/>
</g>
</svg>
