<svg width="295" height="631" viewBox="0 0 295 631" fill="none" xmlns="http://www.w3.org/2000/svg">
<g clip-path="url(#clip0_40_152)">
<rect x="10" y="10" width="275" height="611.111" rx="30.5556" fill="white"/>
<rect x="10" y="330.833" width="275" height="290.278" rx="12.2222" fill="white"/>
<rect x="34.4443" y="543.958" width="226.111" height="30.5556" rx="15.2778" fill="url(#paint0_linear_40_152)"/>
<g clip-path="url(#clip1_40_152)">
<path d="M104.012 261.213V250.499H112.093V252.596H106.353V254.769H111.403V256.866H106.353V259.116H112.17V261.213H104.012Z" fill="black"/>
<path d="M116.696 261.367C115.026 261.367 113.925 260.632 113.19 259.761L114.674 258.108C115.287 258.782 115.884 259.18 116.632 259.18C117.521 259.18 118.071 258.644 118.071 257.404V250.501H120.488V257.51C120.488 260.111 118.96 261.367 116.693 261.367H116.696Z" fill="black"/>
<path d="M130.483 261.213L129.504 258.811H124.974L123.995 261.213H121.59L126.182 250.422H128.355L132.946 261.213H130.481H130.483ZM127.24 253.254L125.817 256.728H128.663L127.24 253.254Z" fill="black"/>
<path d="M138.256 261.367C136.635 261.367 134.995 260.801 133.71 259.652L135.104 257.983C136.067 258.779 137.078 259.284 138.302 259.284C139.265 259.284 139.849 258.901 139.849 258.273V258.243C139.849 257.646 139.48 257.341 137.691 256.882C135.533 256.33 134.14 255.735 134.14 253.607V253.577C134.14 251.635 135.701 250.348 137.89 250.348C139.451 250.348 140.783 250.838 141.868 251.709L140.645 253.485C139.695 252.826 138.763 252.428 137.858 252.428C136.954 252.428 136.481 252.842 136.481 253.362V253.394C136.481 254.098 136.94 254.328 138.792 254.801C140.966 255.366 142.19 256.149 142.19 258.015V258.046C142.19 260.175 140.568 261.367 138.256 261.367Z" fill="black"/>
<path d="M155.31 255.599C155.086 256.038 154.783 256.404 154.398 256.7C154.016 256.997 153.57 257.218 153.059 257.365C152.548 257.512 152.01 257.587 151.438 257.587H148.837V261.366H147.629V250.657H151.637C152.238 250.657 152.786 250.736 153.281 250.895C153.776 251.053 154.199 251.277 154.55 251.569C154.903 251.858 155.172 252.216 155.362 252.638C155.549 253.061 155.644 253.539 155.644 254.07C155.644 254.651 155.531 255.163 155.307 255.599H155.31ZM153.647 252.363C153.12 251.969 152.424 251.775 151.553 251.775H148.837V256.488H151.492C151.933 256.488 152.333 256.431 152.695 256.321C153.059 256.207 153.371 256.047 153.631 255.839C153.892 255.631 154.091 255.38 154.229 255.09C154.367 254.801 154.437 254.475 154.437 254.118C154.437 253.342 154.172 252.758 153.645 252.365L153.647 252.363Z" fill="black"/>
<path d="M159.057 256.547V261.366H157.85V250.657H159.057V255.416H165.239V250.657H166.446V261.366H165.239V256.547H159.057Z" fill="black"/>
<path d="M179.453 261.367H178.153L176.898 258.535H171.069L169.8 261.367H168.561L173.442 250.581H174.573L179.453 261.367ZM173.991 252.003L171.544 257.465H176.425L173.991 252.003Z" fill="black"/>
<path d="M197.768 258.428H197.707L193.806 252.706V261.366H192.627V250.657H193.851L197.752 256.501L201.654 250.657H202.877V261.366H201.667V252.69L197.766 258.428H197.768Z" fill="black"/>
<path d="M215.885 261.367H214.584L213.329 258.535H207.501L206.23 261.367H204.99L209.871 250.581H211.004L215.885 261.367ZM210.423 252.003L207.976 257.465H212.856L210.423 252.003Z" fill="black"/>
<path d="M186.978 261.366L181.566 256.802V255.504H185.13C185.883 255.504 186.557 255.052 186.845 254.351L186.926 254.156H181.566V253.147H186.926L186.847 252.953C186.562 252.252 185.888 251.799 185.13 251.799H181.566V250.585H190.083V251.594H187.419L187.587 251.82C187.862 252.189 188.046 252.598 188.136 253.037L188.159 253.15H190.081V254.158H188.159L188.136 254.272C187.844 255.692 186.58 256.723 185.13 256.723H183.597L188.833 261.369H186.976L186.978 261.366Z" fill="black"/>
<path d="M111.714 266.265V267.923H111.297V264.236H111.714V265.874H113.842V264.236H114.258V267.923H113.842V266.265H111.714Z" fill="black" stroke="black" stroke-width="0.022617" stroke-miterlimit="10"/>
<path d="M116.384 264.239V267.925H115.968V264.239H116.384Z" fill="black" stroke="black" stroke-width="0.022617" stroke-miterlimit="10"/>
<path d="M120.654 267.824C120.403 267.934 120.12 267.989 119.808 267.989C119.516 267.989 119.256 267.939 119.026 267.842C118.795 267.742 118.598 267.609 118.435 267.437C118.272 267.265 118.148 267.064 118.062 266.831C117.976 266.598 117.933 266.351 117.933 266.089C117.933 265.827 117.978 265.594 118.067 265.363C118.157 265.132 118.281 264.929 118.444 264.752C118.607 264.576 118.799 264.438 119.026 264.334C119.252 264.23 119.505 264.178 119.781 264.178C119.935 264.178 120.077 264.189 120.204 264.209C120.333 264.23 120.453 264.261 120.563 264.304C120.674 264.347 120.778 264.397 120.873 264.46C120.971 264.522 121.063 264.592 121.156 264.669L120.887 264.985C120.817 264.922 120.742 264.865 120.665 264.816C120.588 264.764 120.505 264.721 120.414 264.684C120.326 264.648 120.226 264.619 120.12 264.598C120.014 264.578 119.894 264.567 119.765 264.567C119.562 264.567 119.374 264.607 119.202 264.689C119.03 264.77 118.883 264.879 118.761 265.015C118.639 265.153 118.542 265.313 118.471 265.499C118.401 265.684 118.367 265.879 118.367 266.087C118.367 266.308 118.401 266.514 118.471 266.702C118.539 266.89 118.636 267.052 118.763 267.19C118.89 267.328 119.041 267.435 119.22 267.511C119.399 267.588 119.6 267.627 119.826 267.627C120.036 267.627 120.236 267.591 120.421 267.518C120.606 267.446 120.762 267.36 120.889 267.256V266.335H119.767V265.967H121.289V267.432C121.118 267.586 120.905 267.72 120.656 267.828L120.654 267.824Z" fill="black" stroke="black" stroke-width="0.022617" stroke-miterlimit="10"/>
<path d="M123.273 266.265V267.923H122.857V264.236H123.273V265.874H125.401V264.236H125.817V267.923H125.401V266.265H123.273Z" fill="black" stroke="black" stroke-width="0.022617" stroke-miterlimit="10"/>
<path d="M130.155 264.616H127.907V265.874H129.918V266.254H127.907V267.543H130.183V267.923H127.491V264.236H130.155V264.616Z" fill="black" stroke="black" stroke-width="0.022617" stroke-miterlimit="10"/>
<path d="M134.19 267.925L133.12 266.494H132.067V267.925H131.65V264.239H133.236C133.439 264.239 133.623 264.266 133.785 264.318C133.948 264.37 134.089 264.445 134.204 264.542C134.319 264.639 134.41 264.754 134.473 264.89C134.536 265.026 134.568 265.175 134.568 265.34C134.568 265.494 134.543 265.632 134.493 265.754C134.444 265.876 134.376 265.98 134.285 266.071C134.197 266.161 134.091 266.236 133.966 266.295C133.844 266.353 133.711 266.396 133.566 266.421L134.699 267.925H134.188H134.19ZM133.903 264.815C133.738 264.687 133.505 264.623 133.206 264.623H132.067V266.125H133.202C133.34 266.125 133.467 266.107 133.582 266.073C133.697 266.037 133.799 265.987 133.883 265.921C133.966 265.856 134.034 265.777 134.082 265.682C134.129 265.587 134.152 265.478 134.152 265.358C134.152 265.125 134.068 264.944 133.903 264.818V264.815Z" fill="black" stroke="black" stroke-width="0.022617" stroke-miterlimit="10"/>
<path d="M140.071 266.914H140.048L138.705 264.944V267.925H138.3V264.239H138.72L140.062 266.249L141.405 264.239H141.826V267.925H141.41V264.94L140.066 266.914H140.071Z" fill="black" stroke="black" stroke-width="0.022617" stroke-miterlimit="10"/>
<path d="M146.937 267.925H146.489L146.057 266.951H144.051L143.615 267.925H143.189L144.87 264.214H145.259L146.939 267.925H146.937ZM145.058 264.702L144.216 266.582H145.894L145.058 264.702Z" fill="black" stroke="black" stroke-width="0.022617" stroke-miterlimit="10"/>
<path d="M150.836 267.925L149.766 266.494H148.713V267.925H148.296V264.239H149.882C150.085 264.239 150.269 264.266 150.431 264.318C150.594 264.37 150.734 264.445 150.85 264.542C150.965 264.639 151.053 264.754 151.119 264.89C151.182 265.026 151.214 265.175 151.214 265.34C151.214 265.494 151.189 265.632 151.139 265.754C151.092 265.876 151.022 265.98 150.931 266.071C150.843 266.161 150.737 266.236 150.612 266.295C150.488 266.353 150.357 266.396 150.212 266.421L151.343 267.925H150.832H150.836ZM150.549 264.815C150.384 264.687 150.151 264.623 149.852 264.623H148.713V266.125H149.848C149.986 266.125 150.113 266.107 150.228 266.073C150.345 266.037 150.445 265.987 150.529 265.921C150.612 265.856 150.68 265.777 150.725 265.682C150.773 265.587 150.798 265.478 150.798 265.358C150.798 265.125 150.714 264.944 150.549 264.818V264.815Z" fill="black" stroke="black" stroke-width="0.022617" stroke-miterlimit="10"/>
<path d="M155.292 267.824C155.041 267.934 154.758 267.989 154.446 267.989C154.154 267.989 153.894 267.939 153.664 267.842C153.433 267.742 153.236 267.609 153.073 267.437C152.911 267.265 152.786 267.064 152.7 266.831C152.614 266.598 152.571 266.351 152.571 266.089C152.571 265.827 152.614 265.594 152.705 265.363C152.795 265.132 152.92 264.929 153.08 264.752C153.243 264.576 153.435 264.438 153.661 264.334C153.888 264.23 154.141 264.178 154.417 264.178C154.573 264.178 154.713 264.189 154.842 264.209C154.971 264.23 155.089 264.261 155.199 264.304C155.31 264.347 155.414 264.397 155.511 264.46C155.609 264.522 155.701 264.592 155.792 264.669L155.523 264.985C155.453 264.922 155.378 264.865 155.303 264.816C155.227 264.764 155.143 264.721 155.052 264.684C154.962 264.648 154.865 264.619 154.758 264.598C154.65 264.578 154.532 264.567 154.401 264.567C154.197 264.567 154.01 264.607 153.838 264.689C153.666 264.77 153.519 264.879 153.395 265.015C153.272 265.153 153.175 265.313 153.105 265.499C153.035 265.684 152.999 265.879 152.999 266.087C152.999 266.308 153.033 266.514 153.101 266.702C153.168 266.89 153.268 267.052 153.392 267.19C153.519 267.328 153.673 267.435 153.851 267.511C154.03 267.588 154.231 267.627 154.458 267.627C154.668 267.627 154.867 267.591 155.052 267.518C155.238 267.446 155.396 267.36 155.521 267.256V266.335H154.399V265.967H155.921V267.432C155.747 267.586 155.536 267.72 155.285 267.828L155.292 267.824Z" fill="black" stroke="black" stroke-width="0.022617" stroke-miterlimit="10"/>
<path d="M157.949 264.239V267.925H157.533V264.239H157.949Z" fill="black" stroke="black" stroke-width="0.022617" stroke-miterlimit="10"/>
<path d="M162.373 264.239H162.778V267.925H162.446L160.066 264.904V267.925H159.662V264.239H160.051L162.373 267.193V264.239Z" fill="black" stroke="black" stroke-width="0.022617" stroke-miterlimit="10"/>
<path d="M164.816 265.392C164.843 265.462 164.895 265.528 164.97 265.584C165.044 265.643 165.146 265.695 165.275 265.743C165.404 265.79 165.571 265.835 165.775 265.876C166.187 265.967 166.49 266.093 166.682 266.256C166.876 266.417 166.974 266.641 166.974 266.926C166.974 267.084 166.944 267.229 166.881 267.358C166.82 267.486 166.732 267.597 166.623 267.69C166.512 267.78 166.381 267.853 166.227 267.9C166.073 267.95 165.904 267.975 165.721 267.975C165.427 267.975 165.157 267.927 164.913 267.833C164.669 267.738 164.436 267.591 164.214 267.389L164.472 267.084C164.664 267.258 164.859 267.389 165.056 267.475C165.252 267.561 165.479 267.604 165.734 267.604C165.99 267.604 166.182 267.545 166.331 267.43C166.481 267.315 166.555 267.161 166.555 266.971C166.555 266.883 166.542 266.806 166.514 266.736C166.487 266.668 166.438 266.604 166.365 266.548C166.295 266.491 166.198 266.442 166.071 266.394C165.947 266.349 165.788 266.306 165.594 266.263C165.384 266.218 165.2 266.163 165.044 266.105C164.886 266.046 164.757 265.973 164.655 265.887C164.554 265.804 164.477 265.704 164.429 265.593C164.379 265.48 164.357 265.347 164.357 265.193C164.357 265.039 164.386 264.91 164.445 264.788C164.504 264.664 164.59 264.558 164.698 264.469C164.807 264.379 164.936 264.309 165.083 264.259C165.23 264.207 165.393 264.182 165.567 264.182C165.838 264.182 166.073 264.218 166.275 264.295C166.476 264.37 166.671 264.481 166.861 264.632L166.619 264.953C166.447 264.813 166.272 264.711 166.101 264.648C165.926 264.585 165.746 264.553 165.556 264.553C165.436 264.553 165.329 264.569 165.232 264.601C165.135 264.632 165.051 264.675 164.986 264.727C164.918 264.779 164.863 264.843 164.827 264.917C164.791 264.992 164.773 265.071 164.773 265.155C164.773 265.238 164.787 265.322 164.814 265.392H164.816Z" fill="black" stroke="black" stroke-width="0.022617" stroke-miterlimit="10"/>
<path d="M168.34 267.925V267.374H168.824V267.925H168.34Z" fill="black" stroke="black" stroke-width="0.022617" stroke-miterlimit="10"/>
<path d="M175.686 266.806C175.591 267.032 175.457 267.229 175.283 267.394C175.109 267.559 174.901 267.688 174.661 267.783C174.421 267.878 174.157 267.925 173.869 267.925H172.589V264.239H173.869C174.157 264.239 174.421 264.286 174.661 264.379C174.901 264.472 175.109 264.601 175.283 264.766C175.455 264.931 175.591 265.125 175.686 265.349C175.781 265.573 175.828 265.815 175.828 266.075C175.828 266.335 175.781 266.577 175.686 266.804V266.806ZM175.288 265.512C175.215 265.333 175.113 265.177 174.982 265.046C174.851 264.915 174.69 264.811 174.5 264.736C174.311 264.662 174.1 264.623 173.869 264.623H173.006V267.541H173.869C174.1 267.541 174.311 267.505 174.5 267.43C174.69 267.355 174.851 267.254 174.982 267.122C175.113 266.991 175.215 266.837 175.288 266.661C175.36 266.485 175.396 266.295 175.396 266.087C175.396 265.878 175.36 265.691 175.288 265.512Z" fill="black" stroke="black" stroke-width="0.022617" stroke-miterlimit="10"/>
<path d="M180.003 264.616H177.755V265.874H179.766V266.254H177.755V267.543H180.03V267.923H177.339V264.236H180.003V264.616Z" fill="black" stroke="black" stroke-width="0.022617" stroke-miterlimit="10"/>
<path d="M181.498 264.239H181.914V267.541H183.988V267.925H181.498V264.239Z" fill="black" stroke="black" stroke-width="0.022617" stroke-miterlimit="10"/>
<path d="M185.843 264.239V267.925H185.427V264.239H185.843Z" fill="black" stroke="black" stroke-width="0.022617" stroke-miterlimit="10"/>
<path d="M190.33 264.239H190.778L189.193 267.952H188.824L187.241 264.239H187.704L189.016 267.414L190.332 264.239H190.33Z" fill="black" stroke="black" stroke-width="0.022617" stroke-miterlimit="10"/>
<path d="M194.801 264.616H192.553V265.874H194.564V266.254H192.553V267.543H194.829V267.923H192.137V264.236H194.801V264.616Z" fill="black" stroke="black" stroke-width="0.022617" stroke-miterlimit="10"/>
<path d="M198.834 267.925L197.765 266.494H196.711V267.925H196.294V264.239H197.88C198.083 264.239 198.267 264.266 198.429 264.318C198.592 264.37 198.733 264.445 198.848 264.542C198.963 264.639 199.051 264.754 199.117 264.89C199.18 265.026 199.212 265.175 199.212 265.34C199.212 265.494 199.187 265.632 199.137 265.754C199.09 265.876 199.02 265.98 198.929 266.071C198.841 266.161 198.735 266.236 198.61 266.295C198.486 266.353 198.355 266.396 198.21 266.421L199.341 267.925H198.83H198.834ZM198.549 264.815C198.384 264.687 198.151 264.623 197.853 264.623H196.713V266.125H197.848C197.986 266.125 198.113 266.107 198.228 266.073C198.346 266.037 198.445 265.987 198.529 265.921C198.613 265.856 198.681 265.777 198.726 265.682C198.773 265.587 198.798 265.478 198.798 265.358C198.798 265.125 198.714 264.944 198.549 264.818V264.815Z" fill="black" stroke="black" stroke-width="0.022617" stroke-miterlimit="10"/>
<path d="M203.4 264.616H201.152V265.874H203.165V266.254H201.152V267.543H203.427V267.923H200.738V264.236H203.403V264.616H203.4Z" fill="black" stroke="black" stroke-width="0.022617" stroke-miterlimit="10"/>
<path d="M207.992 266.806C207.897 267.032 207.763 267.229 207.589 267.394C207.415 267.559 207.209 267.688 206.967 267.783C206.727 267.878 206.463 267.925 206.176 267.925H204.896V264.239H206.176C206.463 264.239 206.727 264.286 206.967 264.379C207.207 264.472 207.415 264.601 207.589 264.766C207.763 264.931 207.897 265.125 207.992 265.349C208.087 265.573 208.134 265.815 208.134 266.075C208.134 266.335 208.087 266.577 207.992 266.804V266.806ZM207.594 265.512C207.521 265.333 207.422 265.177 207.288 265.046C207.157 264.915 206.997 264.811 206.807 264.736C206.617 264.662 206.406 264.623 206.176 264.623H205.312V267.541H206.176C206.406 267.541 206.617 267.505 206.807 267.43C206.997 267.355 207.157 267.254 207.288 267.122C207.42 266.991 207.521 266.837 207.594 266.661C207.666 266.485 207.702 266.295 207.702 266.087C207.702 265.878 207.666 265.691 207.594 265.512Z" fill="black" stroke="black" stroke-width="0.022617" stroke-miterlimit="10"/>
<path d="M111.46 220L115.479 222.852C101.875 238.437 80 233.622 80 233.622L81.4678 241.859C110.533 244.711 122.515 228.047 122.515 228.047L125.917 230.962V220H111.462H111.46Z" fill="url(#paint1_linear_40_152)"/>
<path d="M86.7197 266.069H94.6583L100.946 246.604C107.217 244.696 111.279 241.032 113.044 239.161C108.215 241.739 101.798 244.019 93.6089 244.743L86.7197 266.071V266.069Z" fill="url(#paint2_linear_40_152)"/>
</g>
</g>
<rect x="5.41667" y="5.41667" width="284.167" height="620.278" rx="35.1389" stroke="black" stroke-width="9.16667"/>
<defs>
<linearGradient id="paint0_linear_40_152" x1="34.4443" y1="559.236" x2="260.555" y2="559.236" gradientUnits="userSpaceOnUse">
<stop offset="0.270286" stop-color="#53B1FE"/>
<stop offset="1" stop-color="#075BF3"/>
</linearGradient>
<linearGradient id="paint1_linear_40_152" x1="119.596" y1="225.571" x2="63.5575" y2="246.371" gradientUnits="userSpaceOnUse">
<stop stop-color="#00FFFF"/>
<stop offset="1" stop-color="#2E04B5"/>
</linearGradient>
<linearGradient id="paint2_linear_40_152" x1="126.247" y1="243.485" x2="70.2071" y2="264.286" gradientUnits="userSpaceOnUse">
<stop stop-color="#00FFFF"/>
<stop offset="1" stop-color="#2E04B5"/>
</linearGradient>
<clipPath id="clip0_40_152">
<rect x="10" y="10" width="275" height="611.111" rx="30.5556" fill="white"/>
</clipPath>
<clipPath id="clip1_40_152">
<rect width="135.885" height="48" fill="white" transform="translate(80 220)"/>
</clipPath>
</defs>
</svg>
