<svg xmlns="http://www.w3.org/2000/svg" xmlns:xlink="http://www.w3.org/1999/xlink" id="menarini_apac_logo" width="167.948" height="44.641" viewBox="0 0 167.948 44.641">
  <defs>
    <clipPath id="clip-path">
      <rect id="Rectangle_132" data-name="Rectangle 132" width="167.948" height="44.641" transform="translate(0 0)" fill="none"/>
    </clipPath>
  </defs>
  <g id="Group_464" data-name="Group 464" clip-path="url(#clip-path)">
    <path id="Path_266" data-name="Path 266" d="M165.824,35.448a1.878,1.878,0,0,1-1.348-.5,1.681,1.681,0,0,1-.527-1.277,1.7,1.7,0,0,1,.536-1.283,1.87,1.87,0,0,1,1.346-.512,3.256,3.256,0,0,1,1.62.473v-.727a4.266,4.266,0,0,0-1.653-.389,2.527,2.527,0,0,0-1.813.7,2.306,2.306,0,0,0-.734,1.734,2.382,2.382,0,0,0,.32,1.206,2.34,2.34,0,0,0,.872.875,2.648,2.648,0,0,0,1.341.317,3.527,3.527,0,0,0,1.717-.405v-.743a3.057,3.057,0,0,1-1.676.527m-10.795.568h.676V31.295h-.676Zm-9.927,0h.676v-2.2h1.842v-.6h-1.842V31.9h1.842v-.6H145.1Zm-8.409,0h.676V31.295h-.676Zm-9.194-.568a1.878,1.878,0,0,1-1.348-.5,1.681,1.681,0,0,1-.527-1.277,1.7,1.7,0,0,1,.536-1.283,1.87,1.87,0,0,1,1.346-.512,3.256,3.256,0,0,1,1.62.473v-.727a4.266,4.266,0,0,0-1.653-.389,2.527,2.527,0,0,0-1.813.7,2.306,2.306,0,0,0-.734,1.734,2.382,2.382,0,0,0,.32,1.206,2.34,2.34,0,0,0,.872.875,2.648,2.648,0,0,0,1.342.317,3.527,3.527,0,0,0,1.717-.405v-.743a3.057,3.057,0,0,1-1.676.527m-12.378-1.433.706-1.711.762,1.711Zm-1.553,2h.694l.59-1.4h2.014l.629,1.4h.692l-2.117-4.748H115.6Zm-6.892-3.4a.7.7,0,0,1-.223.556.939.939,0,0,1-.635.194h-.74V31.89h.7q.9,0,.9.727m-1.6,3.4V33.969h.5a2.864,2.864,0,0,0,1.027-.144,1.178,1.178,0,0,0,.564-.461,1.309,1.309,0,0,0,.207-.73,1.259,1.259,0,0,0-.4-.98,1.544,1.544,0,0,0-1.078-.364h-1.5v4.728Zm-9.8-1.2h1.683v-.659H95.275Zm-10.019-.8.706-1.711.762,1.711Zm-1.553,2H84.4l.59-1.4H87l.629,1.4h.692l-2.117-4.748h-.475Zm-7.883,0H76.5V31.295h-.676Zm-8.065-1.16a.553.553,0,0,1-.212.443.79.79,0,0,1-.529.177,1.59,1.59,0,0,1-1.267-.694v.859a2.075,2.075,0,0,0,1.274.43,1.4,1.4,0,0,0,.989-.354,1.2,1.2,0,0,0,.38-.922,1.514,1.514,0,0,0-.864-1.314l-.516-.306a1.94,1.94,0,0,1-.5-.389.6.6,0,0,1-.158-.4A.465.465,0,0,1,66.563,32a.91.91,0,0,1,.543-.153,1.563,1.563,0,0,1,1.1.491v-.768a1.9,1.9,0,0,0-1.085-.332,1.444,1.444,0,0,0-1,.349,1.16,1.16,0,0,0-.388.906,1.1,1.1,0,0,0,.2.657,2.316,2.316,0,0,0,.688.581l.513.312q.621.386.622.818M55.7,34.016l.706-1.711.762,1.711Zm-1.553,2h.694l.59-1.4h2.014l.629,1.4h.692l-2.117-4.748h-.475Z" transform="translate(-1.126 -0.65)" fill="#6d6e71" style="&#10;&#9;fill: #FFFFFF;&#10;"/>
    <path id="Path_267" data-name="Path 267" d="M73.5,27.15H66.148V26.6c1.328-.133,1.969-.2,1.969-1.661V13.781h-.044L62.539,27.15h-.6L56.409,14.113h-.045V24.406c0,1.549.4,2.08,2.236,2.19v.553H53.42V26.6c1.726-.155,2.014-.487,2.014-1.771V14.313c0-1.152-.4-1.461-1.97-1.572v-.553h5.6l4.427,10.447,4.427-10.447H73.5v.553c-1.24.088-1.948.132-1.948,2.036v9.784c0,1.769.487,1.837,1.948,2.036Z" transform="translate(-1.111 -0.254)" style="&#10;&#9;fill: #FFFFFF;&#10;"/>
    <path id="Path_268" data-name="Path 268" d="M74.805,12.188H87.576v4.449h-.553c-.509-3.143-2.081-3.7-5.068-3.7-1.217,0-1.616.088-1.616,1.04v5.135h.111c2.058,0,3.143-.6,3.475-3.3H84.5V23.3h-.576c-.265-2.766-1.394-3.43-3.586-3.43v5.356c0,.973.421,1.24,1.859,1.24a5.653,5.653,0,0,0,5.821-3.918h.619l-.885,4.6H74.805V26.6c1.261-.133,1.948-.2,1.948-1.573V14.313c0-1.461-.929-1.505-1.948-1.572Z" transform="translate(-1.556 -0.254)" style="&#10;&#9;fill: #FFFFFF;&#10;"/>
    <path id="Path_269" data-name="Path 269" d="M89.883,26.6c1.328-.156,1.948-.31,1.948-1.771V14.335c-1.24-1.528-1.594-1.593-1.881-1.593v-.554h4.67l7.68,9.452h.044V14.933c0-1.328-.265-2.058-2.057-2.19v-.554h4.758v.554c-1.593.2-1.725.708-1.725,1.77V27.549h-.62l-9.85-12H92.8v8.854c0,1.593.464,2.014,2.1,2.191v.553H89.883Z" transform="translate(-1.87 -0.254)" style="&#10;&#9;fill: #FFFFFF;&#10;"/>
    <path id="Path_270" data-name="Path 270" d="M113.9,21.92l-2.236-5.378-2.08,5.378Zm6.751,5.224H113.48V26.59c1.372-.111,1.77-.133,1.77-.864a12.607,12.607,0,0,0-1.018-2.943h-4.98a14.456,14.456,0,0,0-.974,2.854c0,.842,1.062.909,1.815.953v.553H105.6V26.59c1.195-.177,1.505-.929,2.169-2.59l4.914-12.129h.62l4.936,11.642c.973,2.3,1.327,3.078,2.324,3.078h.088Z" transform="translate(-2.197 -0.247)" style="&#10;&#9;fill: #FFFFFF;&#10;"/>
    <path id="Path_271" data-name="Path 271" d="M127.837,19.514c2.9-.023,4.05-.509,4.05-3.387,0-2.236-.907-3.187-2.678-3.187-1.217,0-1.261.244-1.372.93Zm9.717,7.636h-4.537l-4.583-6.928h-.6v4.339c0,1.769.487,1.837,1.948,2.036v.553H122.3V26.6c1.506-.177,1.948-.244,1.948-2.036V14.777c0-1.9-.686-1.948-1.948-2.036v-.553h7.128c1.549,0,6.241.177,6.241,3.9,0,2.722-2.281,3.409-3.475,3.785l4.449,6.308a1.013,1.013,0,0,0,.907.421Z" transform="translate(-2.544 -0.254)" style="&#10;&#9;fill: #FFFFFF;&#10;"/>
    <path id="Path_272" data-name="Path 272" d="M146.236,27.15H138.49V26.6c1.195-.111,2.058-.2,2.058-1.572V14.313c0-1.461-1.041-1.505-2.058-1.572v-.553h7.746v.553c-1.04.044-2.1.067-2.1,1.572V25.025c0,1.417.885,1.483,2.1,1.572Z" transform="translate(-2.881 -0.254)" style="&#10;&#9;fill: #FFFFFF;&#10;"/>
    <path id="Path_273" data-name="Path 273" d="M147.193,26.6c1.328-.156,1.949-.31,1.949-1.771V14.335c-1.241-1.528-1.594-1.593-1.882-1.593v-.554h4.671l7.68,9.452h.045V14.933c0-1.328-.266-2.058-2.059-2.19v-.554h4.76v.554c-1.594.2-1.727.708-1.727,1.77V27.549h-.62l-9.85-12h-.044v8.854c0,1.593.465,2.014,2.1,2.191v.553h-5.024Z" transform="translate(-3.062 -0.254)" style="&#10;&#9;fill: #FFFFFF;&#10;"/>
    <path id="Path_274" data-name="Path 274" d="M171.351,27.15H163.6V26.6c1.195-.111,2.058-.2,2.058-1.572V14.313c0-1.461-1.041-1.505-2.058-1.572v-.553h7.746v.553c-1.04.044-2.1.067-2.1,1.572V25.025c0,1.417.885,1.483,2.1,1.572Z" transform="translate(-3.403 -0.254)" style="&#10;&#9;fill: #FFFFFF;&#10;"/>
    <path id="Path_275" data-name="Path 275" d="M22.333,30.391.779.765H.766V43.9H8.231V23.188l14.1,20.162,14.1-20.162V43.9H43.9V.765h-.014Z" transform="translate(-0.016 -0.016)" fill="#fff"/>
    <path id="Path_276" data-name="Path 276" d="M43.887,43.888H36.417V23.172l-14.1,20.162L8.215,23.172V43.888H.749V.749H.764L22.317,30.375,43.872.749h.015Zm-8.218,0H22.843L35.668,25.551Zm-26.7,0V25.551L21.791,43.89ZM20.733,23.533l2.234-.567L20.733,22.4v-1.11H23.9v.765H21.757l2.146.532v.772l-2.145.527H23.9v.766H20.733Zm0-5.376h.654v1.777h.538V18.3h.644v1.632h.674V18.073H23.9v2.66H20.733Zm0-1.33,2-1.252h-2v-.766H23.9V15.6l-2.034,1.286H23.9v.767H20.733Zm0-4.409L23.9,11.183v.884l-.628.217v1.158l.628.233v.855l-3.171-1.243Zm0-3.242a1.75,1.75,0,0,1,.083-.564.928.928,0,0,1,.228-.344,1.023,1.023,0,0,1,.272-.183.9.9,0,0,1,.8.061.662.662,0,0,1,.272.3.625.625,0,0,1,.208-.232,1,1,0,0,1,.509-.1h.206a1.29,1.29,0,0,0,.27-.018.2.2,0,0,0,.14-.1l.017-.029H23.9v.871l-.039.013c-.069.022-.125.037-.165.047a1.538,1.538,0,0,1-.276.03l-.285.006a.477.477,0,0,0-.349.1.6.6,0,0,0-.085.387v.668h1.2v.8H20.733Zm0-2.406H23.9v.811H20.733Zm0-1.355,2-1.25h-2V3.4H23.9v.788L21.869,5.473H23.9v.767H20.733Zm0-3.314H23.9v.81H20.733ZM0,0V44.638H22.315l0,0,14.1,0h8.218V0Z"/>
    <path id="Path_277" data-name="Path 277" d="M22.2,9.021a.319.319,0,0,0-.323.169.814.814,0,0,0-.048.318v.761h.71v-.74a.921.921,0,0,0-.047-.333.279.279,0,0,0-.292-.175" transform="translate(-0.454 -0.188)"/>
    <path id="Path_278" data-name="Path 278" d="M22.117,13.127l.98.351v-.692Z" transform="translate(-0.46 -0.266)"/>
    <path id="Path_279" data-name="Path 279" d="M24.344,24.341H22.2l2.145-.527v-.772L22.2,22.511h2.146v-.765H21.173v1.11l2.233.563-2.233.566v1.121h3.171Z" transform="translate(-0.44 -0.452)" fill="#fff"/>
    <path id="Path_280" data-name="Path 280" d="M24.344,18.457h-.661v1.861h-.674V18.686h-.644v1.632h-.538V18.541h-.654v2.576h3.171Z" transform="translate(-0.44 -0.384)" fill="#fff"/>
    <path id="Path_281" data-name="Path 281" d="M24.344,17.2H22.309l2.035-1.286v-.789H21.173v.766h2l-2,1.252v.824h3.171Z" transform="translate(-0.44 -0.315)" fill="#fff"/>
    <path id="Path_282" data-name="Path 282" d="M23.078,13.451,22.1,13.1l.98-.342Zm1.266.464-.628-.233V12.524l.628-.218v-.883l-3.171,1.234v.871l3.171,1.244Z" transform="translate(-0.44 -0.238)" fill="#fff"/>
    <path id="Path_283" data-name="Path 283" d="M22.527,10.251h-.71v-.76a.8.8,0,0,1,.049-.319A.317.317,0,0,1,22.188,9a.278.278,0,0,1,.292.175.921.921,0,0,1,.047.333Zm1.816,0h-1.2V9.583a.6.6,0,0,1,.085-.387.471.471,0,0,1,.349-.1l.285-.006a1.538,1.538,0,0,0,.276-.03c.04-.01.1-.025.165-.048L24.344,9V8.133H24.18l-.017.028a.2.2,0,0,1-.14.1,1.2,1.2,0,0,1-.27.019h-.206a.987.987,0,0,0-.509.1.6.6,0,0,0-.208.232.675.675,0,0,0-.272-.3.9.9,0,0,0-.8-.06,1.043,1.043,0,0,0-.272.182.928.928,0,0,0-.228.345,1.75,1.75,0,0,0-.083.564v1.7h3.171Z" transform="translate(-0.44 -0.169)" fill="#fff"/>
    <rect id="Rectangle_130" data-name="Rectangle 130" width="3.171" height="0.812" transform="translate(20.733 6.77)" fill="#fff"/>
    <path id="Path_284" data-name="Path 284" d="M24.344,5.545H22.309l2.035-1.286V3.471H21.173v.766h2l-2,1.25v.824h3.171Z" transform="translate(-0.44 -0.072)" fill="#fff"/>
    <rect id="Rectangle_131" data-name="Rectangle 131" width="3.171" height="0.811" transform="translate(20.733 2.101)" fill="#fff"/>
    <path id="Path_285" data-name="Path 285" d="M36.153,44.432V26.094L23.328,44.432Z" transform="translate(-0.485 -0.543)" fill="#ef4135"/>
    <path id="Path_286" data-name="Path 286" d="M9.155,44.432H21.982L9.155,26.094Z" transform="translate(-0.19 -0.543)" fill="#ef4135"/>
  </g>
</svg>