<svg xmlns="http://www.w3.org/2000/svg" width="158" height="99" viewBox="0 0 158 99" fill="none"><g clip-path="url(#clip0_209_10)"><path fill-rule="evenodd" clip-rule="evenodd" d="M10.98 72.4503L20.16 50.7003L29.34 72.4503H10.98ZM0 86.9103H4.93L9.13 76.9703H31.21L35.47 86.9103H40.4L22.33 44.8403H18.05L0 86.9103Z" fill="#307ABD"></path><path fill-rule="evenodd" clip-rule="evenodd" d="M43.9199 86.9103H70.2499V82.3303H48.4699V44.8403H43.9199V86.9103Z" fill="#307ABD"></path><path fill-rule="evenodd" clip-rule="evenodd" d="M81.81 87.0303H86.07L102.63 44.8403H97.72L83.94 80.4403L70.16 44.8403H65.25L81.61 86.5203L81.81 87.0303Z" fill="#307ABD"></path><path fill-rule="evenodd" clip-rule="evenodd" d="M105.87 86.9103H110.37V44.8403H105.87V86.9103Z" fill="#307ABD"></path><path fill-rule="evenodd" clip-rule="evenodd" d="M137.11 87.6102C150.97 87.6102 157.34 76.3802 157.4 65.9402C157.43 59.6202 155.38 53.9602 151.61 50.0002C148 46.2002 142.98 44.2002 137.11 44.2002C123.09 44.2002 116.82 55.0602 116.82 65.8202C116.82 76.5802 123.17 87.6102 137.11 87.6102ZM121.31 65.8702C121.28 60.7802 122.88 56.2802 125.81 53.1902C128.58 50.2702 132.49 48.7302 137.1 48.7302C148.05 48.7302 152.95 57.3402 152.95 65.8702C152.95 74.1602 147.99 83.0702 137.1 83.0702C126.32 83.0702 121.36 74.1502 121.31 65.8602V65.8702Z" fill="#307ABD"></path><path d="M0.779863 96.3702V93.4902H1.03986V96.3702L0.909863 96.5002L0.779863 96.3702ZM0.909863 96.5002H0.779863V96.3702L0.909863 96.5002ZM2.84986 96.5002H0.909863V96.2302H2.84986V96.5002ZM2.84986 93.6202V93.3502H3.01986L3.18986 93.3902L3.33986 93.4302L3.47986 93.4902L3.60986 93.5602L3.72986 93.6402L3.83986 93.7402L3.93986 93.8502L4.02986 93.9702L4.09986 94.0902L4.15986 94.2202L4.20986 94.3602L4.24986 94.5002L4.27986 94.6402L4.29986 94.7802V94.9302V95.0802L4.27986 95.2202L4.24986 95.3602L4.20986 95.5002L4.15986 95.6402L4.09986 95.7702L4.02986 95.8902L3.93986 96.0102L3.83986 96.1202L3.72986 96.2202L3.60986 96.3002L3.47986 96.3702L3.33986 96.4302L3.18986 96.4702L3.01986 96.5002H2.84986V96.2402H2.99986L3.13986 96.2102L3.26986 96.1702L3.38986 96.1202L3.49986 96.0602L3.59986 95.9902L3.68986 95.9102L3.76986 95.8202L3.83986 95.7302L3.89986 95.6302L3.94986 95.5202L3.98986 95.4102L4.01986 95.2902L4.03986 95.1702V95.0502L4.05986 94.9302V94.8102L4.03986 94.6902L4.01986 94.5702L3.98986 94.4502L3.94986 94.3402L3.89986 94.2302L3.83986 94.1302L3.76986 94.0402L3.68986 93.9502L3.59986 93.8702L3.49986 93.8002L3.38986 93.7402L3.26986 93.6902L3.13986 93.6502L2.99986 93.6302H2.84986V93.6202ZM0.909863 93.3402H2.84986V93.6102H0.909863L0.779863 93.4802L0.909863 93.3502V93.3402ZM0.779863 93.4702V93.3402H0.909863L0.779863 93.4702ZM0.779863 98.6802V96.7402H1.03986V98.6802L0.909863 98.8102L0.779863 98.6802ZM1.03986 98.6802V98.8102H0.909863L1.03986 98.6802ZM0.499863 98.5502H0.909863V98.8202H0.489863L0.359863 98.6902L0.489863 98.5602L0.499863 98.5502ZM0.499863 98.8202H0.369863V98.6902L0.499863 98.8202ZM0.629863 93.0702V98.6902H0.359863V93.0702L0.489863 92.9402L0.619863 93.0702H0.629863ZM0.369863 93.0702V92.9402H0.499863L0.369863 93.0702ZM2.84986 93.2002H0.489863V92.9302H2.84986V93.2002ZM2.84986 96.8702V96.6002H3.04986L3.23986 96.5602L3.40986 96.5102L3.56986 96.4502L3.70986 96.3702L3.83986 96.2802L3.95986 96.1802L4.06986 96.0702L4.15986 95.9502L4.23986 95.8202L4.30986 95.6802L4.36986 95.5302L4.40986 95.3802L4.43986 95.2202L4.45986 95.0602V94.9002V94.7402L4.43986 94.5802L4.40986 94.4202L4.36986 94.2702L4.30986 94.1202L4.23986 93.9802L4.15986 93.8502L4.06986 93.7302L3.95986 93.6202L3.83986 93.5202L3.70986 93.4302L3.56986 93.3502L3.40986 93.2902L3.23986 93.2402L3.04986 93.2102H2.84986V92.9302H3.06986L3.27986 92.9702L3.47986 93.0202L3.65986 93.0902L3.82986 93.1802L3.98986 93.2902L4.12986 93.4102L4.25986 93.5402L4.36986 93.6902L4.46986 93.8402L4.54986 94.0002L4.61986 94.1702L4.66986 94.3502L4.70986 94.5302L4.72986 94.7102V94.8902V95.0702L4.70986 95.2502L4.66986 95.4302L4.61986 95.6102L4.54986 95.7802L4.46986 95.9402L4.36986 96.0902L4.25986 96.2402L4.12986 96.3702L3.98986 96.4902L3.82986 96.6002L3.65986 96.6902L3.47986 96.7602L3.27986 96.8102L3.06986 96.8402H2.84986V96.8702ZM0.909863 96.6002H2.84986V96.8702H0.909863L0.779863 96.7402L0.909863 96.6102V96.6002ZM0.779863 96.7302V96.6002H0.909863L0.779863 96.7302Z" fill="#373435"></path><path d="M0.909746 93.4901V96.3701H2.84975C4.63975 96.3701 4.63975 93.4901 2.84975 93.4901H0.909746ZM0.909746 96.7601V98.7001H0.489746V93.0801H2.84975C5.17975 93.0801 5.17975 96.7501 2.84975 96.7501H0.909746V96.7601Z" fill="#373435"></path><path d="M11.4001 96.1502V98.7002H11.1401V96.1502L11.2701 96.0202L11.4001 96.1502ZM11.2701 96.0202H11.4001V96.1502L11.2701 96.0202ZM7.85006 96.0202H11.2701V96.2902H7.85006L7.72006 96.1602L7.85006 96.0302V96.0202ZM7.72006 96.1502V96.0202H7.85006L7.72006 96.1502ZM7.72006 98.7002V96.1502H7.98006V98.7002L7.85006 98.8302L7.72006 98.7002ZM7.98006 98.7002V98.8302H7.85006L7.98006 98.7002ZM7.44006 98.5702H7.85006V98.8402H7.44006L7.31006 98.7102L7.44006 98.5802V98.5702ZM7.44006 98.8402H7.31006V98.7102L7.44006 98.8402ZM7.57006 93.0902V98.7102H7.31006V93.0902L7.44006 92.9602L7.57006 93.0902ZM7.31006 93.0902V92.9602H7.44006L7.31006 93.0902ZM7.85006 93.2202H7.44006V92.9502H7.85006L7.98006 93.0802L7.85006 93.2102V93.2202ZM7.85006 92.9502H7.98006V93.0802L7.85006 92.9502ZM7.72006 95.7602V93.0902H7.98006V95.7602L7.85006 95.8902L7.72006 95.7602ZM7.85006 95.8902H7.72006V95.7602L7.85006 95.8902ZM11.2701 95.8902H7.85006V95.6202H11.2701L11.4001 95.7502L11.2701 95.8802V95.8902ZM11.4001 95.7602V95.8902H11.2701L11.4001 95.7602ZM11.4001 93.0902V95.7602H11.1401V93.0902L11.2701 92.9602L11.4001 93.0902ZM11.1401 93.0902V92.9602H11.2701L11.1401 93.0902ZM11.6801 93.2202H11.2701V92.9502H11.6801L11.8101 93.0802L11.6801 93.2102V93.2202ZM11.6801 92.9502H11.8101V93.0802L11.6801 92.9502ZM11.5501 98.7002V93.0802H11.8101V98.7002L11.6801 98.8302L11.5501 98.7002ZM11.8101 98.7002V98.8302H11.6801L11.8101 98.7002ZM11.2701 98.5702H11.6801V98.8402H11.2701L11.1401 98.7102L11.2701 98.5802V98.5702ZM11.2701 98.8402H11.1401V98.7102L11.2701 98.8402Z" fill="#373435"></path><path d="M11.2799 98.7001V96.1501H7.84994V98.7001H7.43994V93.0801H7.84994V95.7601H11.2799V93.0801H11.6899V98.7001H11.2799Z" fill="#373435"></path><path d="M16.9898 93.4502L18.4298 96.8702L18.1998 96.9802L16.7598 93.5602V93.4502H16.9898ZM16.7598 93.4502L16.8798 93.1702L16.9998 93.4502H16.7698H16.7598ZM15.3198 96.8702L16.7598 93.4502L16.9898 93.5602L15.5498 96.9802L15.4298 97.0602L15.3098 96.8702H15.3198ZM15.4398 97.0602H15.2398L15.3198 96.8702L15.4398 97.0602ZM18.3298 97.0602H15.4398V96.7902H18.3298L18.4498 96.8702L18.3298 97.0602ZM18.4498 96.8702L18.5298 97.0602H18.3298L18.4498 96.8702ZM18.6098 97.2702L19.1998 98.6502L18.9698 98.7602L18.3798 97.3802L18.4998 97.1902L18.6198 97.2702H18.6098ZM18.4898 97.1902H18.5698L18.5998 97.2702L18.4798 97.1902H18.4898ZM15.2798 97.1902H18.4898V97.4602H15.2798L15.1598 97.2702L15.2798 97.1902ZM15.1598 97.2702L15.1898 97.1902H15.2698L15.1498 97.2702H15.1598ZM14.5798 98.6502L15.1598 97.2702L15.3898 97.3802L14.8098 98.7602L14.6898 98.8402L14.5698 98.6502H14.5798ZM14.8098 98.7602L14.7798 98.8402H14.6998L14.8198 98.7602H14.8098ZM14.2498 98.5702H14.6998V98.8402H14.2498L14.1298 98.6502L14.2498 98.5702ZM14.2498 98.8402H14.0498L14.1298 98.6502L14.2498 98.8402ZM16.7798 93.1402L14.3698 98.7602L14.1398 98.6502L16.5498 93.0302L16.6698 92.9502L16.7898 93.1402H16.7798ZM16.5498 93.0302L16.5798 92.9502H16.6598L16.5398 93.0302H16.5498ZM17.1198 93.2202H16.6698V92.9502H17.1198L17.2398 93.0302L17.1198 93.2202ZM17.1198 92.9502H17.1998L17.2298 93.0302L17.1098 92.9502H17.1198ZM19.4098 98.7602L16.9998 93.1402L17.2298 93.0302L19.6398 98.6502L19.5198 98.8402L19.3998 98.7602H19.4098ZM19.6398 98.6502L19.7198 98.8402H19.5198L19.6398 98.6502ZM19.0798 98.5702H19.5298V98.8402H19.0798L18.9598 98.7602L19.0798 98.5702ZM19.0798 98.8402H18.9998L18.9698 98.7602L19.0898 98.8402H19.0798Z" fill="#373435"></path><path d="M18.31 96.9201L16.87 93.5001L15.43 96.9201H18.32H18.31ZM19.06 98.7001L18.47 97.3201H15.26L14.68 98.7001H14.23L16.64 93.0801H17.09L19.5 98.7001H19.05H19.06Z" fill="#373435"></path><path d="M24.44 96.3002H22.54V96.0302H24.44V96.3002ZM25.67 94.8202H25.93V94.9002V94.9802V95.0602L25.91 95.1302V95.2002L25.88 95.2702L25.86 95.3402L25.84 95.4102L25.82 95.4802L25.79 95.5402L25.76 95.6002L25.73 95.6602L25.69 95.7202L25.65 95.7802L25.61 95.8302L25.56 95.8802L25.51 95.9302L25.46 95.9802L25.41 96.0202L25.35 96.0602L25.29 96.1002L25.23 96.1302L25.16 96.1602L25.09 96.1902L25.02 96.2102L24.95 96.2302L24.87 96.2502L24.79 96.2702H24.71L24.63 96.2902H24.54H24.45V96.0202H24.53H24.61H24.69L24.76 96.0002H24.83L24.9 95.9702L24.96 95.9502L25.02 95.9302L25.08 95.9102L25.13 95.8802L25.18 95.8502L25.23 95.8202L25.27 95.7902L25.31 95.7602L25.35 95.7202L25.39 95.6802L25.42 95.6402L25.45 95.6002L25.48 95.5602L25.51 95.5102L25.54 95.4602L25.56 95.4102L25.58 95.3602L25.6 95.3102L25.62 95.2502L25.64 95.1902V95.1302L25.66 95.0702V95.0102L25.68 94.9502V94.8802V94.8102L25.67 94.8202ZM24.49 93.6202V93.3502H24.58H24.67H24.75L24.83 93.3702L24.91 93.3902L24.98 93.4102L25.05 93.4402L25.12 93.4702L25.19 93.5002L25.25 93.5402L25.31 93.5802L25.37 93.6202L25.43 93.6602L25.48 93.7102L25.53 93.7602L25.58 93.8102L25.62 93.8602L25.66 93.9202L25.7 93.9802L25.74 94.0402L25.77 94.1002L25.8 94.1602L25.83 94.2202L25.85 94.2802L25.87 94.3402L25.89 94.4102V94.4802L25.92 94.5502V94.6202L25.94 94.6902V94.7602V94.8302H25.68V94.7702V94.7102V94.6502V94.5902L25.66 94.5302V94.4802L25.63 94.4302L25.61 94.3802L25.59 94.3302L25.57 94.2802L25.55 94.2302L25.52 94.1802L25.49 94.1302L25.46 94.0802L25.43 94.0402L25.39 94.0002L25.35 93.9602L25.31 93.9202L25.27 93.8802L25.23 93.8402L25.18 93.8102L25.13 93.7802L25.08 93.7502L25.03 93.7202L24.97 93.7002L24.91 93.6802L24.85 93.6602L24.78 93.6402H24.71L24.64 93.6202H24.57H24.49ZM22.54 93.3502H24.49V93.6202H22.54L22.41 93.4902L22.54 93.3602V93.3502ZM22.41 93.4802V93.3502H22.54L22.41 93.4802ZM22.41 96.1602V93.4802H22.67V96.1602L22.54 96.2902L22.41 96.1602ZM22.54 96.2902H22.41V96.1602L22.54 96.2902ZM25.86 98.5602H26.4V98.8302H25.86L25.77 98.7902L25.86 98.5702V98.5602ZM25.86 98.8302H25.8L25.76 98.7902L25.85 98.8302H25.86ZM24.1 96.4802L25.96 98.6102L25.77 98.7902L23.91 96.6602L24 96.4402L24.09 96.4802H24.1ZM24.01 96.4402H24.07L24.11 96.4802L24.02 96.4402H24.01ZM22.54 96.4402H24.01V96.7102H22.54L22.41 96.5802L22.54 96.4502V96.4402ZM22.41 96.5702V96.4402H22.54L22.41 96.5702ZM22.41 98.7002V96.5702H22.67V98.7002L22.54 98.8302L22.41 98.7002ZM22.67 98.7002V98.8302H22.54L22.67 98.7002ZM22.13 98.5702H22.54V98.8402H22.13L22 98.7102L22.13 98.5802V98.5702ZM22.13 98.8402H22V98.7102L22.13 98.8402ZM22.26 93.0902V98.7102H22V93.0902L22.13 92.9602L22.26 93.0902ZM22 93.0902V92.9602H22.13L22 93.0902ZM24.49 93.2202H22.13V92.9502H24.49V93.2202ZM26.38 94.8302H26.12V94.7602V94.6802L26.11 94.6002V94.5202L26.08 94.4502L26.06 94.3802L26.04 94.3102L26.02 94.2402L25.99 94.1702L25.96 94.1002L25.93 94.0302L25.89 93.9602L25.85 93.9002L25.81 93.8402L25.76 93.7802L25.71 93.7202L25.66 93.6702L25.6 93.6202L25.54 93.5702L25.48 93.5202L25.42 93.4802L25.35 93.4402L25.28 93.4002L25.21 93.3702L25.13 93.3402L25.05 93.3102L24.97 93.2902L24.88 93.2702L24.79 93.2502H24.7L24.6 93.2302H24.5V92.9602H24.61L24.72 92.9702H24.83L24.93 93.0002L25.03 93.0202L25.13 93.0502L25.22 93.0802L25.31 93.1202L25.4 93.1602L25.48 93.2002L25.56 93.2502L25.64 93.3002L25.71 93.3602L25.78 93.4202L25.85 93.4802L25.91 93.5502L25.97 93.6202L26.02 93.6902L26.07 93.7602L26.12 93.8302L26.16 93.9102L26.2 93.9902L26.24 94.0702L26.27 94.1502L26.3 94.2302L26.33 94.3102L26.35 94.4002L26.37 94.4902V94.5802L26.39 94.6702V94.7602V94.8502L26.38 94.8302ZM24.6 96.4602L24.41 96.6402L24.5 96.4202H24.6H24.7H24.8L24.89 96.3902L24.98 96.3702L25.06 96.3502L25.14 96.3202L25.22 96.2902L25.29 96.2602L25.36 96.2202L25.43 96.1802L25.49 96.1402L25.55 96.1002L25.61 96.0502L25.66 96.0002L25.71 95.9502L25.76 95.9002L25.8 95.8402L25.84 95.7802L25.88 95.7202L25.92 95.6602L25.95 95.5902L25.98 95.5202L26.01 95.4502L26.03 95.3802L26.05 95.3102L26.07 95.2402V95.1602L26.09 95.0802V95.0002L26.1 94.9202V94.8402H26.36V94.9302V95.0202V95.1102L26.34 95.2002L26.32 95.2902L26.3 95.3802L26.28 95.4602L26.25 95.5402L26.22 95.6202L26.19 95.7002L26.15 95.7802L26.11 95.8602L26.06 95.9302L26.01 96.0002L25.96 96.0702L25.9 96.1402L25.84 96.2002L25.78 96.2602L25.71 96.3202L25.64 96.3702L25.56 96.4202L25.48 96.4702L25.4 96.5102L25.31 96.5502L25.22 96.5802L25.13 96.6102L25.03 96.6402L24.93 96.6602L24.83 96.6802H24.72L24.61 96.7002H24.5L24.59 96.4802L24.6 96.4602ZM24.41 96.6402L24.21 96.4202H24.5L24.41 96.6402ZM26.31 98.7902L24.41 96.6402L24.6 96.4602L26.5 98.6102L26.41 98.8302L26.32 98.7902H26.31ZM26.5 98.6102L26.7 98.8302H26.41L26.5 98.6102Z" fill="#373435"></path><path d="M22.5301 96.1703H24.4301C25.3701 96.1703 25.7801 95.6203 25.7901 94.8303C25.7901 94.1703 25.3701 93.4903 24.4801 93.4903H22.5301V96.1703ZM26.4001 98.7103H25.8601L24.0001 96.5803H22.5301V98.7103H22.1201V93.0903H24.4801C25.6501 93.0903 26.2401 93.9603 26.2501 94.8403C26.2501 95.7603 25.6801 96.5603 24.5101 96.5603L26.4101 98.7103H26.4001Z" fill="#373435"></path><path d="M31.5399 96.9302L33.5999 93.6402L33.8099 93.7902L31.7499 97.0802L31.6399 97.1402L31.5299 96.9302H31.5399ZM31.7499 97.0802L31.7099 97.1402H31.6399L31.7499 97.0802ZM31.4999 96.8702H31.6399V97.1402H31.4999L31.3899 97.0802L31.4999 96.8702ZM31.4999 97.1402H31.4299L31.3899 97.0802L31.4999 97.1402ZM29.5299 93.6402L31.5999 96.9302L31.3899 97.0802L29.3199 93.7902L29.2999 93.7202L29.5399 93.6502L29.5299 93.6402ZM29.2899 93.7102V93.2602L29.5299 93.6302L29.2899 93.7002V93.7102ZM29.2899 98.7002V93.7102H29.5499V98.7002L29.4199 98.8302L29.2899 98.7002ZM29.5499 98.7002V98.8302H29.4199L29.5499 98.7002ZM29.0099 98.5702H29.4199V98.8402H29.0099L28.8799 98.7102L29.0099 98.5802V98.5702ZM29.0099 98.8402H28.8799V98.7102L29.0099 98.8402ZM29.1399 93.0902V98.7102H28.8799V93.0902L29.0099 92.9602L29.1399 93.0902ZM28.8799 93.0902V92.9602H29.0099L28.8799 93.0902ZM29.4999 93.2202H29.0099V92.9502H29.4999L29.6099 93.0102L29.4999 93.2202ZM29.4999 92.9502H29.5699L29.6099 93.0102L29.4999 92.9502ZM31.4499 96.4302L29.3899 93.1602L29.5999 93.0102L31.6599 96.2802V96.4302H31.4499ZM31.6599 96.4302L31.5499 96.6002L31.4399 96.4302H31.6499H31.6599ZM33.6899 93.1602L31.6599 96.4302L31.4499 96.2802L33.4799 93.0102L33.5899 92.9502L33.6999 93.1602H33.6899ZM33.4799 93.0102L33.5199 92.9502H33.5899L33.4799 93.0102ZM34.0899 93.2202H33.5799V92.9502H34.0899L34.2199 93.0802L34.0899 93.2102V93.2202ZM34.0899 92.9502H34.2199V93.0802L34.0899 92.9502ZM33.9599 98.7002V93.0802H34.2199V98.7002L34.0899 98.8302L33.9599 98.7002ZM34.2199 98.7002V98.8302H34.0899L34.2199 98.7002ZM33.6799 98.5702H34.0899V98.8402H33.6799L33.5499 98.7102L33.6799 98.5802V98.5702ZM33.6799 98.8402H33.5499V98.7102L33.6799 98.8402ZM33.8099 93.7202V98.7102H33.5499V93.7202L33.5699 93.6502L33.8099 93.7202ZM33.5699 93.6502L33.8099 93.2702V93.7202L33.5699 93.6502Z" fill="#373435"></path><path d="M33.7 93.7101L31.64 97.0001H31.51L29.43 93.7101V98.7001H29.02V93.0801H29.51L31.57 96.3601L33.6 93.0801H34.11V98.7001H33.7V93.7101Z" fill="#373435"></path><path d="M39.4 93.4502L40.84 96.8702L40.61 96.9802L39.17 93.5602V93.4502H39.4ZM39.17 93.4502L39.29 93.1702L39.41 93.4502H39.18H39.17ZM37.73 96.8702L39.17 93.4502L39.4 93.5602L37.96 96.9802L37.84 97.0602L37.72 96.8702H37.73ZM37.85 97.0602H37.65L37.73 96.8702L37.85 97.0602ZM40.74 97.0602H37.85V96.7902H40.74L40.86 96.8702L40.74 97.0602ZM40.86 96.8702L40.94 97.0602H40.74L40.86 96.8702ZM41.02 97.2702L41.61 98.6502L41.38 98.7602L40.79 97.3802L40.91 97.1902L41.03 97.2702H41.02ZM40.9 97.1902H40.98L41.01 97.2702L40.89 97.1902H40.9ZM37.69 97.1902H40.9V97.4602H37.69L37.57 97.2702L37.69 97.1902ZM37.57 97.2702L37.6 97.1902H37.68L37.56 97.2702H37.57ZM36.99 98.6502L37.57 97.2702L37.8 97.3802L37.22 98.7602L37.1 98.8402L36.98 98.6502H36.99ZM37.22 98.7602L37.19 98.8402H37.11L37.23 98.7602H37.22ZM36.66 98.5702H37.11V98.8402H36.66L36.54 98.6502L36.66 98.5702ZM36.66 98.8402H36.46L36.54 98.6502L36.66 98.8402ZM39.19 93.1402L36.78 98.7602L36.55 98.6502L38.96 93.0302L39.08 92.9502L39.2 93.1402H39.19ZM38.96 93.0302L38.99 92.9502H39.07L38.95 93.0302H38.96ZM39.53 93.2202H39.08V92.9502H39.53L39.65 93.0302L39.53 93.2202ZM39.53 92.9502H39.61L39.64 93.0302L39.52 92.9502H39.53ZM41.82 98.7602L39.41 93.1402L39.64 93.0302L42.05 98.6502L41.93 98.8402L41.81 98.7602H41.82ZM42.05 98.6502L42.13 98.8402H41.93L42.05 98.6502ZM41.49 98.5702H41.94V98.8402H41.49L41.37 98.7602L41.49 98.5702ZM41.49 98.8402H41.41L41.38 98.7602L41.5 98.8402H41.49Z" fill="#373435"></path><path d="M40.7299 96.9201L39.2899 93.5001L37.8499 96.9201H40.7399H40.7299ZM41.4799 98.7001L40.8899 97.3201H37.6799L37.0999 98.7001H36.6499L39.0599 93.0801H39.5099L41.9199 98.7001H41.4699H41.4799Z" fill="#373435"></path><path d="M46.6898 98.9001V98.6301H46.7498H46.8098H46.8698H46.9298H46.9898L47.0498 98.6101H47.1098L47.1698 98.5901H47.2298L47.2898 98.5601L47.3498 98.5401L47.4098 98.5201L47.4698 98.5001L47.5298 98.4801L47.5898 98.4601L47.6498 98.4401L47.7098 98.4101L47.7698 98.3801L47.8298 98.3501L47.8898 98.3201L47.9498 98.2901L48.0098 98.2601L48.0698 98.2201L48.1298 98.1801L48.1798 98.1401L48.2298 98.1001L48.2798 98.0601L48.3298 98.0201L48.3798 97.9801L48.4298 97.9301L48.4798 97.8801L48.5298 97.8301L48.7098 98.0201L48.6598 98.0701L48.6098 98.1201L48.5498 98.1701L48.4898 98.2201L48.4298 98.2701L48.3698 98.3201L48.3098 98.3601L48.2498 98.4001L48.1898 98.4401L48.1298 98.4801L48.0698 98.5201L48.0098 98.5601L47.9498 98.5901L47.8898 98.6201L47.8298 98.6501L47.7598 98.6801L47.6898 98.7101L47.6198 98.7401L47.5498 98.7601L47.4798 98.7801L47.4098 98.8001L47.3398 98.8201L47.2698 98.8401H47.1998L47.1298 98.8701H47.0598L46.9898 98.8901H46.9198L46.8498 98.9001H46.7798H46.7098H46.6398H46.6898ZM43.7998 95.9301H44.0598V96.0701L44.0698 96.2101V96.3401L44.0998 96.4701L44.1198 96.6001L44.1498 96.7301L44.1798 96.8501L44.2198 96.9701L44.2598 97.0901L44.3098 97.2101L44.3598 97.3201L44.4198 97.4301L44.4798 97.5401L44.5498 97.6401L44.6198 97.7401L44.6998 97.8301L44.7798 97.9201L44.8698 98.0101L44.9598 98.0901L45.0598 98.1701L45.1598 98.2401L45.2698 98.3101L45.3798 98.3701L45.4998 98.4301L45.6298 98.4801L45.7598 98.5201L45.8998 98.5601L46.0398 98.5901L46.1898 98.6201L46.3398 98.6401H46.4998L46.6598 98.6501V98.9201H46.4898L46.3198 98.9001L46.1598 98.8801L45.9998 98.8501L45.8498 98.8201L45.6998 98.7801L45.5598 98.7301L45.4198 98.6801L45.2898 98.6201L45.1598 98.5501L45.0398 98.4801L44.9198 98.4001L44.8098 98.3201L44.6998 98.2301L44.5998 98.1301L44.5098 98.0301L44.4198 97.9201L44.3398 97.8101L44.2598 97.7001L44.1898 97.5801L44.1198 97.4601L44.0598 97.3401L44.0098 97.2101L43.9598 97.0801L43.9198 96.9501L43.8798 96.8101L43.8498 96.6701L43.8198 96.5301L43.7998 96.3901V96.2501L43.7798 96.1001V95.9501L43.7998 95.9301ZM46.6998 92.8901V93.1601H46.5398L46.3798 93.1801L46.2298 93.2001L46.0798 93.2301L45.9398 93.2601L45.7998 93.3001L45.6698 93.3501L45.5398 93.4001L45.4198 93.4601L45.2998 93.5201L45.1898 93.5901L45.0798 93.6601L44.9798 93.7401L44.8798 93.8201L44.7898 93.9101L44.7098 94.0001L44.6298 94.1001L44.5598 94.2001L44.4898 94.3101L44.4298 94.4201L44.3698 94.5301L44.3198 94.6501L44.2698 94.7701L44.2298 94.8901L44.1898 95.0101L44.1598 95.1401L44.1298 95.2701L44.1098 95.4001L44.0898 95.5301V95.6601L44.0698 95.7901V95.9201H43.8098V95.7701V95.6301V95.4901L43.8398 95.3501L43.8598 95.2101L43.8898 95.0701L43.9298 94.9301L43.9698 94.7901L44.0198 94.6601L44.0698 94.5301L44.1298 94.4001L44.1998 94.2801L44.2698 94.1601L44.3498 94.0401L44.4298 93.9301L44.5198 93.8201L44.6098 93.7201L44.7098 93.6201L44.8198 93.5301L44.9298 93.4401L45.0498 93.3601L45.1698 93.2801L45.2998 93.2101L45.4298 93.1501L45.5698 93.0901L45.7098 93.0401L45.8598 93.0001L46.0198 92.9601L46.1798 92.9301L46.3498 92.9101H46.5198L46.6998 92.8901ZM48.7398 93.9701L48.5698 93.7701V93.9701L48.5098 93.9201L48.4598 93.8701L48.4098 93.8201L48.3598 93.7801L48.3098 93.7401L48.2598 93.7001L48.2098 93.6601L48.1598 93.6201L48.0998 93.5801L48.0398 93.5401L47.9798 93.5101L47.9198 93.4801L47.8598 93.4501L47.7998 93.4201L47.7398 93.3901L47.6798 93.3601L47.6198 93.3401L47.5598 93.3201L47.4998 93.3001L47.4398 93.2801L47.3798 93.2601L47.3198 93.2401L47.2598 93.2201H47.1998L47.1398 93.1901H47.0798L47.0198 93.1701H46.9598L46.8998 93.1601H46.8398H46.7798H46.7198V92.8901H46.7898H46.8598H46.9298H46.9998H47.0698L47.1398 92.9101H47.2098L47.2798 92.9301H47.3498L47.4198 92.9601L47.4898 92.9801L47.5598 93.0001L47.6298 93.0201L47.6998 93.0401L47.7698 93.0701L47.8398 93.1001L47.9098 93.1301L47.9698 93.1601L48.0298 93.1901L48.0898 93.2201L48.1498 93.2601L48.2098 93.3001L48.2698 93.3401L48.3298 93.3801L48.3898 93.4201L48.4498 93.4601L48.5098 93.5101L48.5698 93.5601L48.6298 93.6101L48.6898 93.6601L48.7398 93.7101L48.7898 93.7601V93.9601L48.7398 93.9701ZM48.7398 93.7701L48.8398 93.8701L48.7398 93.9601V93.7601V93.7701ZM48.2798 94.0201L48.5598 93.7601L48.7298 93.9601L48.4498 94.2201H48.2798V94.0201ZM48.4498 94.2201L48.3598 94.3001L48.2798 94.2101H48.4498V94.2201ZM46.6898 93.5401V93.2701H46.7498H46.8098H46.8698H46.9298H46.9898L47.0498 93.2801H47.1098L47.1698 93.3001H47.2298L47.2898 93.3301L47.3498 93.3501L47.4098 93.3701L47.4698 93.3901L47.5298 93.4101L47.5898 93.4301L47.6498 93.4501L47.7098 93.4701L47.7698 93.5001L47.8198 93.5301L47.8698 93.5601L47.9198 93.5901L47.9698 93.6201L48.0198 93.6501L48.0698 93.6801L48.1198 93.7201L48.1698 93.7601L48.2198 93.8001L48.2698 93.8401L48.3198 93.8801L48.3698 93.9201L48.4198 93.9701L48.4698 94.0201L48.2898 94.2101L48.2498 94.1701L48.2098 94.1301L48.1698 94.0901L48.1298 94.0501L48.0898 94.0101L48.0498 93.9701L47.9998 93.9401L47.9498 93.9101L47.8998 93.8801L47.8498 93.8501L47.7998 93.8201L47.7498 93.7901L47.6998 93.7601L47.6498 93.7401L47.5998 93.7201L47.5498 93.7001L47.4998 93.6801L47.4498 93.6601L47.3998 93.6401L47.3498 93.6201L47.2998 93.6001H47.2498L47.1998 93.5701H47.1498L47.0998 93.5501H47.0498L46.9998 93.5301H46.9498L46.8998 93.5201H46.8498H46.7998H46.7498L46.6898 93.5401ZM44.4498 95.9101H44.1898V95.7801V95.6501V95.5201L44.2198 95.3901L44.2398 95.2601L44.2698 95.1401L44.2998 95.0201L44.3398 94.9001L44.3798 94.7801L44.4298 94.6701L44.4798 94.5601L44.5398 94.4501L44.5998 94.3501L44.6698 94.2501L44.7398 94.1501L44.8198 94.0601L44.8998 93.9701L44.9898 93.8901L45.0798 93.8101L45.1798 93.7301L45.2798 93.6601L45.3898 93.5901L45.4998 93.5301L45.6098 93.4801L45.7298 93.4301L45.8498 93.3901L45.9798 93.3501L46.1098 93.3201L46.2498 93.3001L46.3898 93.2801H46.5398L46.6898 93.2701V93.5401H46.5498L46.4198 93.5501L46.2898 93.5701L46.1698 93.5901L46.0498 93.6201L45.9298 93.6501L45.8198 93.6901L45.7098 93.7301L45.6098 93.7801L45.5098 93.8301L45.4198 93.8901L45.3298 93.9501L45.2498 94.0201L45.1698 94.0901L45.0898 94.1601L45.0198 94.2401L44.9498 94.3201L44.8898 94.4101L44.8298 94.5001L44.7798 94.5901L44.7298 94.6901L44.6798 94.7901L44.6398 94.8901L44.5998 94.9901L44.5698 95.1001L44.5398 95.2101L44.5198 95.3201L44.4998 95.4301L44.4798 95.5501V95.6701L44.4598 95.7901V95.9101H44.4498ZM46.6798 98.2301V98.5001H46.5298L46.3898 98.4901L46.2498 98.4701L46.1098 98.4501L45.9798 98.4201L45.8498 98.3801L45.7298 98.3401L45.6098 98.2901L45.4998 98.2401L45.3898 98.1801L45.2898 98.1201L45.1898 98.0501L45.0898 97.9801L44.9998 97.9001L44.9098 97.8201L44.8298 97.7301L44.7498 97.6401L44.6798 97.5401L44.6098 97.4401L44.5498 97.3401L44.4898 97.2301L44.4398 97.1201L44.3898 97.0101L44.3498 96.9001L44.3098 96.7801L44.2798 96.6601L44.2498 96.5401L44.2298 96.4201L44.2098 96.3001V96.1701L44.1898 96.0401V95.9101H44.4398V96.0301L44.4498 96.1501V96.2601L44.4798 96.3701L44.4998 96.4801L44.5298 96.5901L44.5598 96.7001L44.5898 96.8101L44.6298 96.9101L44.6698 97.0101L44.7198 97.1101L44.7698 97.2001L44.8198 97.2901L44.8798 97.3801L44.9398 97.4601L45.0098 97.5401L45.0798 97.6201L45.1598 97.6901L45.2398 97.7601L45.3198 97.8301L45.4098 97.8901L45.4998 97.9501L45.5998 98.0001L45.6998 98.0501L45.8098 98.0901L45.9198 98.1301L46.0298 98.1601L46.1498 98.1901L46.2698 98.2101L46.3998 98.2301H46.5298L46.6698 98.2401L46.6798 98.2301ZM48.4498 97.5501L48.2698 97.7501H48.4498L48.3998 97.7901L48.3498 97.8301L48.2998 97.8701L48.2498 97.9101L48.1998 97.9501L48.1498 97.9901L48.0998 98.0301L48.0498 98.0701L47.9998 98.1001L47.9498 98.1301L47.8998 98.1601L47.8498 98.1901L47.7998 98.2201L47.7398 98.2501L47.6798 98.2801L47.6198 98.3001L47.5598 98.3201L47.4998 98.3401L47.4398 98.3601L47.3798 98.3801L47.3198 98.4001L47.2598 98.4201H47.1998L47.1398 98.4501H47.0798L47.0198 98.4701H46.9598L46.8998 98.4801H46.8398H46.7798H46.7198H46.6598V98.2101H46.7098H46.7598H46.8098H46.8598H46.9098L46.9598 98.2001H47.0098L47.0598 98.1801H47.1098L47.1598 98.1601H47.2098L47.2598 98.1301L47.3098 98.1101L47.3598 98.0901L47.4098 98.0701L47.4598 98.0501L47.5098 98.0301L47.5598 98.0101L47.6098 97.9901L47.6598 97.9601L47.7098 97.9301L47.7598 97.9001L47.8098 97.8701L47.8598 97.8401L47.9098 97.8101L47.9598 97.7801L48.0098 97.7501L48.0498 97.7101L48.0898 97.6701L48.1298 97.6301L48.1698 97.5901L48.2098 97.5501H48.3898H48.4498ZM48.2698 97.5501L48.3598 97.4601L48.4498 97.5501H48.2698ZM48.5498 98.0201L48.2698 97.7501L48.4498 97.5501L48.7298 97.8201V98.0101H48.5498V98.0201ZM48.7298 97.8201L48.8298 97.9101L48.7398 98.0101V97.8201H48.7298Z" fill="#373435"></path><path d="M48.65 97.92C48.11 98.48 47.4 98.76 46.69 98.76C44.88 98.76 43.93 97.44 43.93 95.92C43.91 94.42 44.85 93.02 46.69 93.02C47.4 93.02 48.11 93.3 48.65 93.86L48.37 94.12C47.91 93.64 47.3 93.41 46.7 93.41C45.13 93.41 44.33 94.57 44.34 95.91C44.36 97.23 45.15 98.37 46.7 98.37C47.31 98.37 47.92 98.13 48.38 97.66L48.66 97.93L48.65 97.92Z" fill="#373435"></path><path d="M55.0899 95.8104H51.9399V95.5404H55.0899L55.2199 95.6704L55.0899 95.8004V95.8104ZM55.0899 95.5404H55.2199V95.6704L55.0899 95.5404ZM54.9599 96.0704V95.6804H55.2199V96.0704L55.0899 96.2004L54.9599 96.0704ZM55.2199 96.0704V96.2004H55.0899L55.2199 96.0704ZM51.9399 95.9404H55.0899V96.2104H51.9399L51.8099 96.0804L51.9399 95.9504V95.9404ZM51.8099 96.0704V95.9404H51.9399L51.8099 96.0704ZM51.8099 98.2804V96.0704H52.0699V98.2804L51.9399 98.4104L51.8099 98.2804ZM51.9399 98.4104H51.8099V98.2804L51.9399 98.4104ZM55.3299 98.4104H51.9399V98.1404H55.3299L55.4599 98.2704L55.3299 98.4004V98.4104ZM55.3299 98.1404H55.4599V98.2704L55.3299 98.1404ZM55.1999 98.6904V98.2704H55.4599V98.6904L55.3299 98.8204L55.1999 98.6904ZM55.4599 98.6904V98.8204H55.3299L55.4599 98.6904ZM51.5299 98.5604H55.3299V98.8304H51.5299L51.3999 98.7004L51.5299 98.5704V98.5604ZM51.5299 98.8304H51.3999V98.7004L51.5299 98.8304ZM51.6599 93.0804V98.7004H51.3999V93.0804L51.5299 92.9504L51.6599 93.0804ZM51.3999 93.0804V92.9504H51.5299L51.3999 93.0804ZM55.2399 93.2104H51.5299V92.9404H55.2399L55.3699 93.0704L55.2399 93.2004V93.2104ZM55.2399 92.9404H55.3699V93.0704L55.2399 92.9404ZM55.1099 93.4804V93.0704H55.3699V93.4804L55.2399 93.6104L55.1099 93.4804ZM55.3699 93.4804V93.6104H55.2399L55.3699 93.4804ZM51.9399 93.3504H55.2399V93.6204H51.9399L51.8099 93.4904L51.9399 93.3604V93.3504ZM51.8099 93.4804V93.3504H51.9399L51.8099 93.4804ZM51.8099 95.6604V93.4804H52.0699V95.6604L51.9399 95.7904L51.8099 95.6604ZM51.9399 95.7904H51.8099V95.6604L51.9399 95.7904Z" fill="#373435"></path><path d="M51.94 95.6806H55.09V96.0706H51.94V98.2806H55.34V98.7006H51.54V93.0806H55.24V93.4906H51.94V95.6806Z" fill="#373435"></path><path d="M62.15 96.5702V93.0802H62.41V96.5702H62.15ZM58.04 96.5702H58.3V96.8202L58.34 97.0602L58.39 97.2802L58.46 97.4802L58.55 97.6702L58.65 97.8402L58.77 97.9902L58.9 98.1302L59.04 98.2502L59.19 98.3502L59.35 98.4402L59.52 98.5102L59.69 98.5702L59.87 98.6102L60.05 98.6302H60.23H60.41L60.59 98.6102L60.77 98.5702L60.94 98.5102L61.11 98.4402L61.27 98.3502L61.42 98.2502L61.56 98.1302L61.69 97.9902L61.81 97.8402L61.91 97.6702L62 97.4802L62.07 97.2802L62.12 97.0602L62.15 96.8202V96.5702H62.42V96.8502L62.37 97.1102L62.31 97.3602L62.23 97.5902L62.13 97.8002L62.01 97.9902L61.88 98.1602L61.73 98.3202L61.57 98.4602L61.4 98.5802L61.22 98.6802L61.03 98.7602L60.84 98.8202L60.64 98.8702L60.44 98.9002H60.24H60.04L59.84 98.8702L59.64 98.8202L59.45 98.7602L59.26 98.6802L59.08 98.5802L58.91 98.4602L58.75 98.3202L58.6 98.1602L58.47 97.9802L58.35 97.7902L58.25 97.5802L58.17 97.3502L58.11 97.1002L58.07 96.8402V96.5602H58.06L58.04 96.5702ZM58.3 93.0802V96.5702H58.04V93.0802L58.17 92.9502L58.3 93.0802ZM58.04 93.0802V92.9502H58.17L58.04 93.0802ZM58.57 93.2102H58.16V92.9402H58.57L58.7 93.0702L58.57 93.2002V93.2102ZM58.57 92.9402H58.7V93.0702L58.57 92.9402ZM58.44 96.5602V93.0702H58.7V96.5602H58.44ZM61.74 96.5602H62V96.7902L61.96 97.0102L61.91 97.2102L61.85 97.4002L61.77 97.5702L61.67 97.7302L61.56 97.8802L61.44 98.0102L61.31 98.1202L61.17 98.2202L61.02 98.3002L60.87 98.3702L60.71 98.4202L60.55 98.4602L60.39 98.4802H60.22H60.05L59.89 98.4602L59.73 98.4202L59.57 98.3702L59.42 98.3002L59.27 98.2202L59.13 98.1202L59 98.0102L58.88 97.8802L58.77 97.7302L58.67 97.5702L58.59 97.3902L58.53 97.2002L58.48 97.0002L58.45 96.7802V96.5502H58.7V96.7602L58.74 96.9502L58.78 97.1302L58.84 97.2902L58.91 97.4402L58.99 97.5802L59.08 97.7002L59.18 97.8102L59.29 97.9102L59.41 97.9902L59.54 98.0602L59.67 98.1202L59.81 98.1702L59.95 98.2002L60.09 98.2202H60.23H60.37L60.51 98.2002L60.65 98.1702L60.79 98.1202L60.92 98.0602L61.05 97.9902L61.17 97.9102L61.28 97.8102L61.38 97.7002L61.47 97.5802L61.55 97.4402L61.62 97.2902L61.68 97.1302L61.72 96.9502L61.75 96.7602V96.5502L61.74 96.5602ZM62 93.0702V96.5602H61.74V93.0702L61.87 92.9402L62 93.0702ZM61.74 93.0702V92.9402H61.87L61.74 93.0702ZM62.27 93.2002H61.86V92.9302H62.27L62.4 93.0602L62.27 93.1902V93.2002ZM62.27 92.9302H62.4V93.0602L62.27 92.9302Z" fill="#373435"></path><path d="M62.2799 93.0801V96.5701C62.2799 99.5101 58.1699 99.5101 58.1699 96.5701V93.0801H58.5799V96.5701C58.5799 98.9801 61.8799 98.9801 61.8799 96.5701V93.0801H62.2899H62.2799Z" fill="#373435"></path><path d="M64.9098 93.3402H66.8498V93.6102H64.9098L64.7798 93.4802L64.9098 93.3502V93.3402ZM64.9098 93.6102H64.7798V93.4802L64.9098 93.6102ZM65.0398 93.0902V93.4802H64.7798V93.0902L64.9098 92.9602L65.0398 93.0902ZM64.7798 93.0902V92.9602H64.9098L64.7798 93.0902ZM69.2098 93.2202H64.9098V92.9502H69.2098L69.3398 93.0802L69.2098 93.2102V93.2202ZM69.2098 92.9502H69.3398V93.0802L69.2098 92.9502ZM69.0798 93.4702V93.0802H69.3398V93.4702L69.2098 93.6002L69.0798 93.4702ZM69.3398 93.4702V93.6002H69.2098L69.3398 93.4702ZM67.2698 93.3402H69.2098V93.6102H67.2698L67.1398 93.4802L67.2698 93.3502V93.3402ZM67.1398 93.4702V93.3402H67.2698L67.1398 93.4702ZM67.1398 98.6902V93.4702H67.3998V98.6902L67.2698 98.8202L67.1398 98.6902ZM67.3998 98.6902V98.8202H67.2698L67.3998 98.6902ZM66.8598 98.5602H67.2698V98.8302H66.8598L66.7298 98.7002L66.8598 98.5702V98.5602ZM66.8598 98.8302H66.7298V98.7002L66.8598 98.8302ZM66.9898 93.4702V98.6902H66.7298V93.4702L66.8598 93.3402L66.9898 93.4702ZM66.8598 93.3402H66.9898V93.4702L66.8598 93.3402Z" fill="#373435"></path><path d="M66.8497 93.4803H64.9097V93.0903H69.2097V93.4803H67.2697V98.7003H66.8497V93.4803Z" fill="#373435"></path><path d="M72.3298 93.2202H71.9198V92.9502H72.3298L72.4598 93.0802L72.3298 93.2102V93.2202ZM72.3298 92.9502H72.4598V93.0802L72.3298 92.9502ZM72.1998 98.7002V93.0802H72.4598V98.7002L72.3298 98.8302L72.1998 98.7002ZM72.4598 98.7002V98.8302H72.3298L72.4598 98.7002ZM71.9298 98.5702H72.3398V98.8402H71.9298L71.7998 98.7102L71.9298 98.5802V98.5702ZM71.9298 98.8402H71.7998V98.7102L71.9298 98.8402ZM72.0598 93.0902V98.7102H71.7998V93.0902L71.9298 92.9602L72.0598 93.0902ZM71.7998 93.0902V92.9602H71.9298L71.7998 93.0902Z" fill="#373435"></path><path d="M71.9199 93.0801H72.3299V98.7001H71.9199V93.0801Z" fill="#373435"></path><path d="M77.91 98.9001V98.6301H77.97H78.03H78.09H78.15H78.21L78.27 98.6101H78.33L78.39 98.5901H78.45L78.51 98.5601L78.57 98.5401L78.63 98.5201L78.69 98.5001L78.75 98.4801L78.81 98.4601L78.87 98.4401L78.93 98.4101L78.99 98.3801L79.05 98.3501L79.11 98.3201L79.17 98.2901L79.23 98.2601L79.29 98.2201L79.35 98.1801L79.4 98.1401L79.45 98.1001L79.5 98.0601L79.55 98.0201L79.6 97.9801L79.65 97.9301L79.7 97.8801L79.75 97.8301L79.93 98.0201L79.88 98.0701L79.83 98.1201L79.77 98.1701L79.71 98.2201L79.65 98.2701L79.59 98.3201L79.53 98.3601L79.47 98.4001L79.41 98.4401L79.35 98.4801L79.29 98.5201L79.23 98.5601L79.17 98.5901L79.11 98.6201L79.05 98.6501L78.98 98.6801L78.91 98.7101L78.84 98.7401L78.77 98.7601L78.7 98.7801L78.63 98.8001L78.56 98.8201L78.49 98.8401H78.42L78.35 98.8701H78.28L78.21 98.8901H78.14L78.07 98.9001H78H77.93H77.86H77.91ZM75.02 95.9301H75.28V96.0701L75.29 96.2101V96.3401L75.32 96.4701L75.34 96.6001L75.37 96.7301L75.4 96.8501L75.44 96.9701L75.48 97.0901L75.53 97.2101L75.58 97.3201L75.64 97.4301L75.7 97.5401L75.77 97.6401L75.84 97.7401L75.92 97.8301L76 97.9201L76.09 98.0101L76.18 98.0901L76.28 98.1701L76.38 98.2401L76.49 98.3101L76.6 98.3701L76.72 98.4301L76.85 98.4801L76.98 98.5201L77.12 98.5601L77.26 98.5901L77.41 98.6201L77.56 98.6401H77.72L77.88 98.6501V98.9201H77.71L77.54 98.9001L77.38 98.8801L77.22 98.8501L77.07 98.8201L76.92 98.7801L76.78 98.7301L76.64 98.6801L76.51 98.6201L76.38 98.5501L76.26 98.4801L76.14 98.4001L76.03 98.3201L75.92 98.2301L75.82 98.1301L75.73 98.0301L75.64 97.9201L75.56 97.8101L75.48 97.7001L75.41 97.5801L75.34 97.4601L75.28 97.3401L75.23 97.2101L75.18 97.0801L75.14 96.9501L75.1 96.8101L75.07 96.6701L75.04 96.5301L75.02 96.3901V96.2501L75 96.1001V95.9501L75.02 95.9301ZM77.92 92.8901V93.1601H77.76L77.6 93.1801L77.45 93.2001L77.3 93.2301L77.16 93.2601L77.02 93.3001L76.89 93.3501L76.76 93.4001L76.64 93.4601L76.52 93.5201L76.41 93.5901L76.3 93.6601L76.2 93.7401L76.1 93.8201L76.01 93.9101L75.93 94.0001L75.85 94.1001L75.78 94.2001L75.71 94.3101L75.65 94.4201L75.59 94.5301L75.54 94.6501L75.49 94.7701L75.45 94.8901L75.41 95.0101L75.38 95.1401L75.35 95.2701L75.33 95.4001L75.31 95.5301V95.6601L75.29 95.7901V95.9201H75.03V95.7701V95.6301V95.4901L75.06 95.3501L75.08 95.2101L75.11 95.0701L75.15 94.9301L75.19 94.7901L75.24 94.6601L75.29 94.5301L75.35 94.4001L75.42 94.2801L75.49 94.1601L75.57 94.0401L75.65 93.9301L75.74 93.8201L75.83 93.7201L75.93 93.6201L76.04 93.5301L76.15 93.4401L76.27 93.3601L76.39 93.2801L76.52 93.2101L76.65 93.1501L76.79 93.0901L76.93 93.0401L77.08 93.0001L77.24 92.9601L77.4 92.9301L77.57 92.9101H77.74L77.92 92.8901ZM79.96 93.9701L79.79 93.7701V93.9701L79.73 93.9201L79.68 93.8701L79.63 93.8201L79.58 93.7801L79.53 93.7401L79.48 93.7001L79.43 93.6601L79.38 93.6201L79.32 93.5801L79.26 93.5401L79.2 93.5101L79.14 93.4801L79.08 93.4501L79.02 93.4201L78.96 93.3901L78.9 93.3601L78.84 93.3401L78.78 93.3201L78.72 93.3001L78.66 93.2801L78.6 93.2601L78.54 93.2401L78.48 93.2201H78.42L78.36 93.1901H78.3L78.24 93.1701H78.18L78.12 93.1601H78.06H78H77.94V92.8901H78.01H78.08H78.15H78.22H78.29L78.36 92.9101H78.43L78.5 92.9301H78.57L78.64 92.9601L78.71 92.9801L78.78 93.0001L78.85 93.0201L78.92 93.0401L78.99 93.0701L79.06 93.1001L79.13 93.1301L79.19 93.1601L79.25 93.1901L79.31 93.2201L79.37 93.2601L79.43 93.3001L79.49 93.3401L79.55 93.3801L79.61 93.4201L79.67 93.4601L79.73 93.5101L79.79 93.5601L79.85 93.6101L79.91 93.6601L79.96 93.7101L80.01 93.7601V93.9601L79.96 93.9701ZM79.96 93.7701L80.06 93.8701L79.96 93.9601V93.7601V93.7701ZM79.5 94.0201L79.78 93.7601L79.95 93.9601L79.67 94.2201H79.5V94.0201ZM79.67 94.2201L79.58 94.3001L79.5 94.2101H79.67V94.2201ZM77.91 93.5401V93.2701H77.97H78.03H78.09H78.15H78.21L78.27 93.2801H78.33L78.39 93.3001H78.45L78.51 93.3301L78.57 93.3501L78.63 93.3701L78.69 93.3901L78.75 93.4101L78.81 93.4301L78.87 93.4501L78.93 93.4701L78.99 93.5001L79.04 93.5301L79.09 93.5601L79.14 93.5901L79.19 93.6201L79.24 93.6501L79.29 93.6801L79.34 93.7201L79.39 93.7601L79.44 93.8001L79.49 93.8401L79.54 93.8801L79.59 93.9201L79.64 93.9701L79.69 94.0201L79.51 94.2101L79.47 94.1701L79.43 94.1301L79.39 94.0901L79.35 94.0501L79.31 94.0101L79.26 93.9701L79.21 93.9401L79.16 93.9101L79.11 93.8801L79.06 93.8501L79.01 93.8201L78.96 93.7901L78.91 93.7601L78.86 93.7401L78.81 93.7201L78.76 93.7001L78.71 93.6801L78.66 93.6601L78.61 93.6401L78.56 93.6201L78.51 93.6001H78.46L78.41 93.5701H78.36L78.31 93.5501H78.26L78.21 93.5301H78.16L78.11 93.5201H78.06H78.01H77.96L77.91 93.5401ZM75.67 95.9101H75.41V95.7801V95.6501V95.5201L75.44 95.3901L75.46 95.2601L75.49 95.1401L75.52 95.0201L75.56 94.9001L75.6 94.7801L75.65 94.6701L75.7 94.5601L75.76 94.4501L75.82 94.3501L75.89 94.2501L75.96 94.1501L76.04 94.0601L76.12 93.9701L76.21 93.8901L76.3 93.8101L76.4 93.7301L76.5 93.6601L76.61 93.5901L76.72 93.5301L76.84 93.4801L76.96 93.4301L77.08 93.3901L77.21 93.3501L77.34 93.3201L77.48 93.3001L77.62 93.2801H77.77L77.92 93.2701V93.5401H77.78L77.65 93.5501L77.52 93.5701L77.4 93.5901L77.28 93.6201L77.16 93.6501L77.05 93.6901L76.94 93.7301L76.84 93.7801L76.74 93.8301L76.65 93.8901L76.56 93.9501L76.48 94.0201L76.4 94.0901L76.32 94.1601L76.25 94.2401L76.18 94.3201L76.12 94.4101L76.06 94.5001L76.01 94.5901L75.96 94.6901L75.91 94.7901L75.87 94.8901L75.83 94.9901L75.8 95.1001L75.77 95.2101L75.75 95.3201L75.73 95.4301L75.71 95.5501V95.6701L75.69 95.7901V95.9101H75.67ZM77.9 98.2301V98.5001H77.75L77.61 98.4901L77.47 98.4701L77.33 98.4501L77.2 98.4201L77.07 98.3801L76.95 98.3401L76.83 98.2901L76.72 98.2401L76.61 98.1801L76.51 98.1201L76.41 98.0501L76.31 97.9801L76.22 97.9001L76.13 97.8201L76.05 97.7301L75.97 97.6401L75.9 97.5401L75.83 97.4401L75.77 97.3401L75.71 97.2301L75.66 97.1201L75.61 97.0101L75.57 96.9001L75.53 96.7801L75.5 96.6601L75.47 96.5401L75.45 96.4201L75.43 96.3001V96.1701L75.41 96.0401V95.9101H75.66V96.0301L75.67 96.1501V96.2601L75.7 96.3701L75.72 96.4801L75.75 96.5901L75.78 96.7001L75.81 96.8101L75.85 96.9101L75.89 97.0101L75.94 97.1101L75.99 97.2001L76.04 97.2901L76.1 97.3801L76.16 97.4601L76.23 97.5401L76.3 97.6201L76.38 97.6901L76.46 97.7601L76.54 97.8301L76.63 97.8901L76.72 97.9501L76.82 98.0001L76.92 98.0501L77.03 98.0901L77.14 98.1301L77.25 98.1601L77.37 98.1901L77.49 98.2101L77.62 98.2301H77.75L77.89 98.2401L77.9 98.2301ZM79.67 97.5501L79.49 97.7501H79.67L79.62 97.7901L79.57 97.8301L79.52 97.8701L79.47 97.9101L79.42 97.9501L79.37 97.9901L79.32 98.0301L79.27 98.0701L79.22 98.1001L79.17 98.1301L79.12 98.1601L79.07 98.1901L79.02 98.2201L78.96 98.2501L78.9 98.2801L78.84 98.3001L78.78 98.3201L78.72 98.3401L78.66 98.3601L78.6 98.3801L78.54 98.4001L78.48 98.4201H78.42L78.36 98.4501H78.3L78.24 98.4701H78.18L78.12 98.4801H78.06H78H77.94H77.88V98.2101H77.93H77.98H78.03H78.08H78.13L78.18 98.2001H78.23L78.28 98.1801H78.33L78.38 98.1601H78.43L78.48 98.1301L78.53 98.1101L78.58 98.0901L78.63 98.0701L78.68 98.0501L78.73 98.0301L78.78 98.0101L78.83 97.9901L78.88 97.9601L78.93 97.9301L78.98 97.9001L79.03 97.8701L79.08 97.8401L79.13 97.8101L79.18 97.7801L79.22 97.7501L79.26 97.7101L79.3 97.6701L79.34 97.6301L79.38 97.5901L79.42 97.5501H79.6H79.67ZM79.49 97.5501L79.58 97.4601L79.67 97.5501H79.49ZM79.77 98.0201L79.49 97.7501L79.67 97.5501L79.95 97.8201V98.0101H79.77V98.0201ZM79.95 97.8201L80.05 97.9101L79.96 98.0101V97.8201H79.95Z" fill="#373435"></path><path d="M79.86 97.92C79.32 98.48 78.61 98.76 77.9 98.76C76.09 98.76 75.14 97.44 75.14 95.92C75.12 94.42 76.06 93.02 77.9 93.02C78.61 93.02 79.32 93.3 79.86 93.86L79.58 94.12C79.12 93.64 78.51 93.41 77.91 93.41C76.34 93.41 75.54 94.57 75.55 95.91C75.57 97.23 76.36 98.37 77.91 98.37C78.52 98.37 79.13 98.13 79.59 97.66L79.87 97.93L79.86 97.92Z" fill="#373435"></path><path d="M84.71 93.4502L86.15 96.8702L85.92 96.9802L84.48 93.5602V93.4502H84.71ZM84.48 93.4502L84.6 93.1702L84.72 93.4502H84.49H84.48ZM83.04 96.8702L84.48 93.4502L84.71 93.5602L83.27 96.9802L83.15 97.0602L83.03 96.8702H83.04ZM83.16 97.0602H82.96L83.04 96.8702L83.16 97.0602ZM86.05 97.0602H83.16V96.7902H86.05L86.17 96.8702L86.05 97.0602ZM86.17 96.8702L86.25 97.0602H86.05L86.17 96.8702ZM86.33 97.2702L86.92 98.6502L86.69 98.7602L86.1 97.3802L86.22 97.1902L86.34 97.2702H86.33ZM86.21 97.1902H86.29L86.32 97.2702L86.2 97.1902H86.21ZM83 97.1902H86.21V97.4602H83L82.88 97.2702L83 97.1902ZM82.88 97.2702L82.91 97.1902H82.99L82.87 97.2702H82.88ZM82.3 98.6502L82.88 97.2702L83.11 97.3802L82.53 98.7602L82.41 98.8402L82.29 98.6502H82.3ZM82.53 98.7602L82.5 98.8402H82.42L82.54 98.7602H82.53ZM81.97 98.5702H82.42V98.8402H81.97L81.85 98.6502L81.97 98.5702ZM81.97 98.8402H81.77L81.85 98.6502L81.97 98.8402ZM84.5 93.1402L82.09 98.7602L81.86 98.6502L84.27 93.0302L84.39 92.9502L84.51 93.1402H84.5ZM84.27 93.0302L84.3 92.9502H84.38L84.26 93.0302H84.27ZM84.84 93.2202H84.39V92.9502H84.84L84.96 93.0302L84.84 93.2202ZM84.84 92.9502H84.92L84.95 93.0302L84.83 92.9502H84.84ZM87.13 98.7602L84.72 93.1402L84.95 93.0302L87.36 98.6502L87.24 98.8402L87.12 98.7602H87.13ZM87.36 98.6502L87.44 98.8402H87.24L87.36 98.6502ZM86.8 98.5702H87.25V98.8402H86.8L86.68 98.7602L86.8 98.5702ZM86.8 98.8402H86.72L86.69 98.7602L86.81 98.8402H86.8Z" fill="#373435"></path><path d="M86.0302 96.9201L84.5902 93.5001L83.1502 96.9201H86.0402H86.0302ZM86.7802 98.7001L86.1902 97.3201H82.9802L82.4002 98.7001H81.9502L84.3602 93.0801H84.8102L87.2202 98.7001H86.7702H86.7802Z" fill="#373435"></path><path d="M90.1998 98.2904V93.0804H90.4598V98.2904L90.3298 98.4204L90.1998 98.2904ZM90.3298 98.4204H90.1998V98.2904L90.3298 98.4204ZM93.3498 98.4204H90.3298V98.1504H93.3498L93.4798 98.2804L93.3498 98.4104V98.4204ZM93.3498 98.1504H93.4798V98.2804L93.3498 98.1504ZM93.2198 98.6904V98.2804H93.4798V98.6904L93.3498 98.8204L93.2198 98.6904ZM93.4798 98.6904V98.8204H93.3498L93.4798 98.6904ZM89.9098 98.5604H93.3498V98.8304H89.9098L89.7798 98.7004L89.9098 98.5704V98.5604ZM89.9098 98.8304H89.7798V98.7004L89.9098 98.8304ZM90.0398 93.0804V98.7004H89.7798V93.0804L89.9098 92.9504L90.0398 93.0804ZM89.7798 93.0804V92.9504H89.9098L89.7798 93.0804ZM90.3198 93.2104H89.9098V92.9404H90.3198L90.4498 93.0704L90.3198 93.2004V93.2104ZM90.3198 92.9404H90.4498V93.0704L90.3198 92.9404Z" fill="#373435"></path><path d="M90.3299 93.0806V98.2906H93.3599V98.7006H89.9199V93.0806H90.3299Z" fill="#373435"></path><path d="M97.91 93.5401V93.2701H97.97H98.03H98.09H98.15H98.21H98.27H98.33L98.39 93.2801H98.45L98.51 93.3001H98.57L98.63 93.3201L98.69 93.3401L98.75 93.3601L98.81 93.3801L98.87 93.4001L98.93 93.4201L98.99 93.4501L99.05 93.4801L99.1 93.5101L99.15 93.5401L99.2 93.5701L99.25 93.6101L99.3 93.6501L99.35 93.6901L99.4 93.7401L99.45 93.7901L99.5 93.8401L99.54 93.9001L99.58 93.9601L99.62 94.0201L99.66 94.0801L99.44 94.2201L99.41 94.1601L99.37 94.1101L99.33 94.0601L99.29 94.0101L99.25 93.9701L99.21 93.9301L99.17 93.8901L99.13 93.8501L99.09 93.8201L99.05 93.7901L99.01 93.7601L98.96 93.7301L98.91 93.7001L98.86 93.6801L98.81 93.6601L98.76 93.6401L98.71 93.6201L98.66 93.6001H98.61L98.56 93.5701H98.51L98.46 93.5501H98.41L98.36 93.5301H98.31L98.26 93.5201H98.21H98.16H98.11H98.05H97.99H97.93L97.91 93.5401ZM96.41 94.5401H96.15V94.4501L96.16 94.3601L96.18 94.2701L96.2 94.1901L96.23 94.1101L96.26 94.0401L96.3 93.9701L96.34 93.9001L96.39 93.8401L96.44 93.7801L96.49 93.7301L96.55 93.6801L96.61 93.6301L96.67 93.5901L96.73 93.5501L96.8 93.5101L96.87 93.4801L96.94 93.4501L97.01 93.4201L97.08 93.3901L97.15 93.3701L97.22 93.3501L97.29 93.3301L97.36 93.3101H97.43L97.5 93.2901H97.57L97.64 93.2701H97.71H97.78H97.84H97.9V93.5401H97.84H97.78H97.72H97.66H97.6L97.54 93.5601H97.48L97.42 93.5801H97.36L97.3 93.6101L97.24 93.6301L97.18 93.6501L97.12 93.6701L97.06 93.6901L97 93.7201L96.94 93.7501L96.88 93.7801L96.83 93.8101L96.78 93.8501L96.73 93.8901L96.69 93.9301L96.65 93.9701L96.61 94.0101L96.58 94.0601L96.55 94.1101L96.52 94.1601L96.5 94.2101L96.48 94.2701L96.46 94.3301V94.3901L96.44 94.4601V94.5301L96.41 94.5401ZM97.95 95.4701L97.9 95.7301L97.82 95.7101L97.74 95.6901L97.66 95.6701L97.58 95.6501L97.5 95.6301L97.42 95.6101L97.34 95.5901L97.26 95.5701L97.19 95.5501L97.12 95.5301L97.05 95.5101L96.98 95.4901L96.91 95.4601L96.84 95.4301L96.78 95.4001L96.72 95.3701L96.66 95.3401L96.6 95.3101L96.55 95.2701L96.5 95.2301L96.45 95.1901L96.4 95.1401L96.36 95.0901L96.32 95.0401L96.28 94.9901L96.25 94.9301L96.22 94.8701L96.2 94.8101L96.18 94.7401V94.6701L96.16 94.6001V94.5301H96.41V94.5901V94.6401V94.6901L96.43 94.7401V94.7801L96.46 94.8201L96.48 94.8601L96.5 94.9001L96.53 94.9401L96.56 94.9701L96.59 95.0001L96.63 95.0301L96.67 95.0601L96.71 95.0901L96.76 95.1201L96.81 95.1501L96.86 95.1801L96.92 95.2001L96.98 95.2201L97.04 95.2401L97.1 95.2601L97.17 95.2801L97.24 95.3001L97.31 95.3201L97.38 95.3401L97.45 95.3601L97.53 95.3801L97.61 95.4001L97.69 95.4201L97.77 95.4401L97.85 95.4601L97.93 95.4801L97.95 95.4701ZM100.17 97.2201H99.91V97.1201L99.9 97.0201V96.9301L99.87 96.8501L99.85 96.7701L99.82 96.7001L99.79 96.6301L99.75 96.5601L99.71 96.5001L99.66 96.4401L99.61 96.3901L99.56 96.3401L99.5 96.2901L99.44 96.2401L99.38 96.2001L99.31 96.1601L99.24 96.1201L99.17 96.0801L99.09 96.0501L99.01 96.0201L98.93 95.9901L98.85 95.9601L98.76 95.9301L98.67 95.9001L98.58 95.8801L98.49 95.8601L98.4 95.8401L98.31 95.8201L98.21 95.8001L98.11 95.7801L98.01 95.7601L97.91 95.7401L97.96 95.4801L98.06 95.5001L98.16 95.5201L98.26 95.5401L98.36 95.5601L98.46 95.5801L98.56 95.6001L98.66 95.6201L98.75 95.6401L98.84 95.6701L98.93 95.7001L99.02 95.7301L99.11 95.7601L99.2 95.7901L99.29 95.8301L99.37 95.8701L99.45 95.9101L99.53 95.9601L99.61 96.0101L99.68 96.0601L99.75 96.1201L99.82 96.1801L99.88 96.2501L99.94 96.3201L99.99 96.4001L100.04 96.4801L100.08 96.5701L100.12 96.6601L100.15 96.7601L100.17 96.8601L100.19 96.9701V97.0801L100.2 97.2001L100.17 97.2201ZM97.92 98.9301V98.6601H98H98.08H98.17L98.26 98.6501H98.35L98.44 98.6301H98.53L98.62 98.6001L98.71 98.5801L98.8 98.5601L98.88 98.5401L98.96 98.5101L99.04 98.4801L99.12 98.4501L99.2 98.4101L99.27 98.3701L99.34 98.3301L99.41 98.2801L99.48 98.2301L99.54 98.1801L99.6 98.1201L99.65 98.0601L99.7 98.0001L99.75 97.9301L99.79 97.8601L99.83 97.7801L99.86 97.7001L99.89 97.6101L99.91 97.5201L99.93 97.4201V97.3201L99.94 97.2101H100.2V97.3401V97.4601L100.17 97.5701L100.14 97.6801L100.11 97.7801L100.07 97.8801L100.02 97.9701L99.97 98.0601L99.91 98.1401L99.85 98.2201L99.78 98.2901L99.71 98.3601L99.64 98.4201L99.56 98.4801L99.48 98.5301L99.4 98.5801L99.32 98.6301L99.23 98.6701L99.14 98.7101L99.05 98.7401L98.96 98.7701L98.87 98.8001L98.78 98.8201L98.69 98.8401L98.6 98.8601H98.51L98.42 98.8901H98.33L98.24 98.9101H98.15H98.06H97.97L97.92 98.9301ZM95.66 97.4601L95.77 97.7001L95.83 97.5201L95.87 97.5901L95.91 97.6601L95.95 97.7301L96 97.8001L96.05 97.8601L96.1 97.9201L96.15 97.9801L96.2 98.0401L96.26 98.0901L96.32 98.1401L96.38 98.1901L96.44 98.2401L96.5 98.2801L96.57 98.3201L96.64 98.3601L96.71 98.4001L96.78 98.4301L96.85 98.4601L96.92 98.4901L96.99 98.5201L97.06 98.5401L97.14 98.5601L97.22 98.5801L97.3 98.6001L97.38 98.6201H97.46L97.54 98.6501H97.62L97.7 98.6701H97.78H97.86H97.94V98.9401H97.86H97.78H97.7L97.62 98.9301H97.54L97.46 98.9101H97.38L97.3 98.8801L97.22 98.8601L97.14 98.8401L97.06 98.8201L96.98 98.7901L96.9 98.7601L96.82 98.7301L96.74 98.7001L96.66 98.6601L96.58 98.6201L96.5 98.5801L96.43 98.5301L96.36 98.4801L96.29 98.4301L96.22 98.3801L96.15 98.3201L96.08 98.2601L96.02 98.2001L95.96 98.1301L95.9 98.0601L95.84 97.9901L95.79 97.9101L95.74 97.8301L95.69 97.7501L95.65 97.6701L95.71 97.4901L95.66 97.4601ZM95.6 97.6401L95.54 97.5201L95.66 97.4601L95.6 97.6401ZM96.14 97.5101L95.77 97.7001L95.66 97.4601L96.03 97.2701L96.2 97.3301L96.14 97.5101ZM96.03 97.2701L96.14 97.2101L96.2 97.3301L96.03 97.2701ZM97.92 98.2701V98.5401H97.85H97.78H97.71L97.64 98.5301H97.57L97.5 98.5101H97.43L97.36 98.4801L97.29 98.4601L97.22 98.4401L97.15 98.4201L97.08 98.4001L97.01 98.3701L96.94 98.3401L96.87 98.3101L96.8 98.2801L96.73 98.2501L96.67 98.2101L96.61 98.1701L96.55 98.1301L96.49 98.0901L96.43 98.0401L96.37 97.9901L96.31 97.9401L96.26 97.8901L96.21 97.8401L96.16 97.7801L96.11 97.7201L96.07 97.6601L96.03 97.6001L95.99 97.5301L95.95 97.4601L96.18 97.3401L96.21 97.4001L96.24 97.4601L96.27 97.5101L96.31 97.5601L96.35 97.6101L96.39 97.6601L96.43 97.7101L96.48 97.7601L96.53 97.8001L96.58 97.8401L96.63 97.8801L96.68 97.9201L96.73 97.9601L96.79 97.9901L96.85 98.0201L96.91 98.0501L96.97 98.0801L97.03 98.1101L97.09 98.1401L97.15 98.1601L97.21 98.1801L97.27 98.2001L97.33 98.2201L97.39 98.2401H97.45L97.51 98.2701H97.57L97.63 98.2901H97.69L97.75 98.3001H97.81H97.87L97.92 98.2701ZM99.5 97.2201H99.76V97.3201L99.75 97.4201L99.73 97.5101L99.71 97.6001L99.68 97.6801L99.65 97.7601L99.61 97.8301L99.57 97.9001L99.52 97.9701L99.47 98.0301L99.41 98.0901L99.35 98.1401L99.29 98.1901L99.22 98.2301L99.15 98.2701L99.08 98.3101L99.01 98.3401L98.94 98.3701L98.87 98.4001L98.8 98.4201L98.72 98.4401L98.64 98.4601L98.56 98.4801H98.48L98.41 98.5101H98.34L98.27 98.5301H98.2L98.13 98.5401H98.06H97.99H97.92V98.2701H97.98H98.04H98.1H98.17H98.24L98.31 98.2601H98.38L98.45 98.2401H98.52L98.59 98.2101L98.66 98.1901L98.73 98.1701L98.8 98.1501L98.86 98.1301L98.92 98.1001L98.98 98.0701L99.04 98.0401L99.1 98.0101L99.15 97.9701L99.2 97.9301L99.25 97.8901L99.29 97.8501L99.33 97.8001L99.37 97.7501L99.4 97.7001L99.43 97.6401L99.46 97.5801L99.48 97.5201L99.5 97.4501V97.3801L99.52 97.3001V97.2201H99.5ZM97.84 96.1501L97.89 95.8901L97.97 95.9101L98.05 95.9301L98.13 95.9501L98.21 95.9701L98.29 95.9901L98.37 96.0101L98.45 96.0301L98.53 96.0501L98.61 96.0701L98.69 96.0901L98.77 96.1101L98.85 96.1401L98.92 96.1701L98.99 96.2001L99.06 96.2301L99.13 96.2601L99.2 96.3001L99.26 96.3401L99.32 96.3801L99.38 96.4201L99.43 96.4701L99.48 96.5201L99.53 96.5701L99.57 96.6301L99.61 96.6901L99.65 96.7601L99.68 96.8301L99.7 96.9001L99.72 96.9801V97.0601L99.74 97.1401V97.2301H99.49V97.1601V97.1001V97.0401L99.47 96.9801L99.45 96.9301L99.43 96.8801L99.4 96.8301L99.37 96.7901L99.34 96.7501L99.3 96.7101L99.26 96.6701L99.22 96.6301L99.17 96.5901L99.12 96.5601L99.07 96.5301L99.01 96.5001L98.95 96.4701L98.89 96.4401L98.83 96.4101L98.76 96.3801L98.69 96.3601L98.62 96.3401L98.55 96.3201L98.47 96.3001L98.39 96.2801L98.31 96.2601L98.23 96.2401L98.15 96.2201L98.07 96.2001L97.99 96.1801L97.91 96.1601L97.83 96.1401L97.84 96.1501ZM95.75 94.5801H96.01V94.6701L96.02 94.7501V94.8301L96.05 94.9001L96.07 94.9701L96.1 95.0301L96.13 95.0901L96.16 95.1501L96.2 95.2001L96.24 95.2501L96.29 95.3001L96.34 95.3501L96.39 95.3901L96.45 95.4301L96.51 95.4701L96.57 95.5101L96.64 95.5501L96.71 95.5801L96.78 95.6101L96.86 95.6401L96.94 95.6701L97.02 95.7001L97.1 95.7301L97.18 95.7501L97.27 95.7701L97.36 95.7901L97.45 95.8101L97.54 95.8301L97.63 95.8501L97.72 95.8701L97.81 95.8901L97.9 95.9101L97.85 96.1701L97.76 96.1501L97.67 96.1301L97.58 96.1101L97.49 96.0901L97.4 96.0701L97.31 96.0501L97.22 96.0301L97.13 96.0101L97.04 95.9801L96.95 95.9501L96.86 95.9201L96.78 95.8901L96.7 95.8601L96.62 95.8301L96.54 95.7901L96.46 95.7501L96.39 95.7101L96.32 95.6601L96.25 95.6101L96.19 95.5601L96.13 95.5001L96.07 95.4401L96.02 95.3801L95.97 95.3101L95.93 95.2401L95.89 95.1601L95.86 95.0801L95.83 94.9901L95.81 94.9001L95.79 94.8101V94.7101L95.78 94.6101L95.75 94.5801ZM97.92 92.8901V93.1601H97.84H97.76H97.68L97.6 93.1701H97.52L97.44 93.1901L97.36 93.2101L97.28 93.2301L97.2 93.2501L97.12 93.2701L97.04 93.3001L96.96 93.3301L96.88 93.3601L96.8 93.3901L96.73 93.4301L96.66 93.4701L96.59 93.5101L96.52 93.5601L96.46 93.6101L96.4 93.6601L96.35 93.7201L96.3 93.7801L96.25 93.8401L96.21 93.9101L96.17 93.9801L96.14 94.0501L96.11 94.1301L96.09 94.2101L96.07 94.3001V94.3901L96.05 94.4801V94.5801H95.79V94.4601L95.8 94.3501L95.82 94.2401L95.84 94.1401L95.87 94.0401L95.91 93.9401L95.95 93.8501L96 93.7601L96.05 93.6801L96.11 93.6001L96.17 93.5301L96.24 93.4601L96.31 93.4001L96.38 93.3401L96.46 93.2901L96.54 93.2401L96.62 93.1901L96.7 93.1501L96.79 93.1101L96.88 93.0701L96.97 93.0401L97.06 93.0101L97.15 92.9801L97.24 92.9601L97.33 92.9401L97.42 92.9201H97.51L97.6 92.9001H97.69L97.78 92.8901H97.87H97.96H97.92ZM99.95 94.0901L99.82 93.8601L99.78 94.0501L99.73 93.9801L99.68 93.9101L99.63 93.8501L99.58 93.7901L99.53 93.7301L99.48 93.6801L99.43 93.6301L99.38 93.5801L99.33 93.5401L99.28 93.5001L99.23 93.4601L99.18 93.4301L99.13 93.4001L99.08 93.3701L99.02 93.3401L98.96 93.3101L98.9 93.2901L98.84 93.2701L98.78 93.2501L98.72 93.2301H98.66L98.6 93.2001H98.54L98.48 93.1801H98.42L98.35 93.1601H98.28H98.21H98.14H98.07H98H97.93V92.8901H98H98.07H98.14H98.21H98.28L98.35 92.9001H98.42L98.49 92.9201H98.56L98.63 92.9401H98.7L98.77 92.9701L98.84 92.9901L98.91 93.0101L98.98 93.0301L99.05 93.0601L99.12 93.0901L99.19 93.1201L99.25 93.1501L99.31 93.1901L99.37 93.2301L99.43 93.2701L99.49 93.3201L99.55 93.3701L99.61 93.4201L99.67 93.4801L99.73 93.5401L99.79 93.6001L99.85 93.6701L99.9 93.7401L99.95 93.8201L100 93.9001L99.96 94.0901H99.95ZM99.99 93.9001L100.07 94.0201L99.95 94.0901L99.99 93.9001ZM99.48 94.0701L99.82 93.8601L99.95 94.0901L99.61 94.3001L99.44 94.2601L99.48 94.0701ZM99.61 94.3001L99.5 94.3701L99.43 94.2601L99.6 94.3001H99.61Z" fill="#373435"></path><path d="M99.5402 94.1702C99.1502 93.5102 98.5202 93.4203 97.9102 93.4103C97.2802 93.4103 96.2802 93.6503 96.2802 94.5503C96.2802 95.2603 97.0202 95.4303 97.9202 95.6103C98.9602 95.8203 100.03 96.0103 100.03 97.2203C100.03 98.4903 98.8002 98.7903 97.9002 98.7903C97.0602 98.7903 96.1102 98.4303 95.7002 97.5703L96.0702 97.3802C96.4002 98.0602 97.2402 98.4003 97.9002 98.4003C98.5602 98.4003 99.6102 98.2103 99.6102 97.2103C99.6102 96.3703 98.7302 96.1803 97.8402 96.0103C96.8602 95.8103 95.8502 95.6003 95.8502 94.5703C95.8302 93.3803 97.0102 93.0103 97.8902 93.0103C98.6602 93.0103 99.3302 93.1403 99.8602 93.9603L99.5202 94.1702H99.5402Z" fill="#373435"></path><path d="M107.15 96.3702V93.4902H107.41V96.3702L107.28 96.5002L107.15 96.3702ZM107.28 96.5002H107.15V96.3702L107.28 96.5002ZM109.22 96.5002H107.28V96.2302H109.22V96.5002ZM109.22 93.6202V93.3502H109.39L109.56 93.3902L109.71 93.4302L109.85 93.4902L109.98 93.5602L110.1 93.6402L110.21 93.7402L110.31 93.8502L110.4 93.9702L110.47 94.0902L110.53 94.2202L110.58 94.3602L110.62 94.5002L110.65 94.6402L110.67 94.7802V94.9302V95.0802L110.65 95.2202L110.62 95.3602L110.58 95.5002L110.53 95.6402L110.47 95.7702L110.4 95.8902L110.31 96.0102L110.21 96.1202L110.1 96.2202L109.98 96.3002L109.85 96.3702L109.71 96.4302L109.56 96.4702L109.39 96.5002H109.22V96.2402H109.37L109.51 96.2102L109.64 96.1702L109.76 96.1202L109.87 96.0602L109.97 95.9902L110.06 95.9102L110.14 95.8202L110.21 95.7302L110.27 95.6302L110.32 95.5202L110.36 95.4102L110.39 95.2902L110.41 95.1702V95.0502L110.43 94.9302V94.8102L110.41 94.6902L110.39 94.5702L110.36 94.4502L110.32 94.3402L110.27 94.2302L110.21 94.1302L110.14 94.0402L110.06 93.9502L109.97 93.8702L109.87 93.8002L109.76 93.7402L109.64 93.6902L109.51 93.6502L109.37 93.6302H109.22V93.6202ZM107.28 93.3402H109.22V93.6102H107.28L107.15 93.4802L107.28 93.3502V93.3402ZM107.15 93.4702V93.3402H107.28L107.15 93.4702ZM107.15 98.6802V96.7402H107.41V98.6802L107.28 98.8102L107.15 98.6802ZM107.41 98.6802V98.8102H107.28L107.41 98.6802ZM106.87 98.5502H107.28V98.8202H106.87L106.74 98.6902L106.87 98.5602V98.5502ZM106.87 98.8202H106.74V98.6902L106.87 98.8202ZM107 93.0702V98.6902H106.74V93.0702L106.87 92.9402L107 93.0702ZM106.74 93.0702V92.9402H106.87L106.74 93.0702ZM109.22 93.2002H106.86V92.9302H109.22V93.2002ZM109.22 96.8702V96.6002H109.42L109.61 96.5602L109.78 96.5102L109.94 96.4502L110.08 96.3702L110.21 96.2802L110.33 96.1802L110.44 96.0702L110.53 95.9502L110.61 95.8202L110.68 95.6802L110.74 95.5302L110.78 95.3802L110.81 95.2202L110.83 95.0602V94.9002V94.7402L110.81 94.5802L110.78 94.4202L110.74 94.2702L110.68 94.1202L110.61 93.9802L110.53 93.8502L110.44 93.7302L110.33 93.6202L110.21 93.5202L110.08 93.4302L109.94 93.3502L109.78 93.2902L109.61 93.2402L109.42 93.2102H109.22V92.9302H109.44L109.65 92.9702L109.85 93.0202L110.03 93.0902L110.2 93.1802L110.35 93.2902L110.49 93.4102L110.62 93.5402L110.73 93.6902L110.83 93.8402L110.91 94.0002L110.98 94.1702L111.03 94.3502L111.07 94.5302L111.09 94.7102V94.8902V95.0702L111.07 95.2502L111.03 95.4302L110.98 95.6102L110.91 95.7802L110.83 95.9402L110.73 96.0902L110.62 96.2402L110.49 96.3702L110.35 96.4902L110.2 96.6002L110.03 96.6902L109.85 96.7602L109.65 96.8102L109.44 96.8402H109.22V96.8702ZM107.28 96.6002H109.22V96.8702H107.28L107.15 96.7402L107.28 96.6102V96.6002ZM107.15 96.7302V96.6002H107.28L107.15 96.7302Z" fill="#373435"></path><path d="M107.28 93.4901V96.3701H109.22C111.01 96.3701 111.01 93.4901 109.22 93.4901H107.28ZM107.28 96.7601V98.7001H106.87V93.0801H109.23C111.56 93.0801 111.56 96.7501 109.23 96.7501H107.29L107.28 96.7601Z" fill="#373435"></path><path d="M115.93 98.6702L118.14 93.0402L118.38 93.1402L116.17 98.7702L116.05 98.8502L115.93 98.6702ZM116.17 98.7702L116.14 98.8502H116.05L116.17 98.7702ZM115.61 98.5902H116.06V98.8602H115.61L115.49 98.7802L115.61 98.6002V98.5902ZM115.61 98.8602H115.52L115.49 98.7802L115.61 98.8602ZM113.52 93.0402L115.73 98.6702L115.49 98.7702L113.28 93.1402L113.4 92.9602L113.52 93.0402ZM113.28 93.1402L113.21 92.9602H113.4L113.28 93.1402ZM113.84 93.2202H113.39V92.9502H113.84L113.96 93.0302L113.84 93.2102V93.2202ZM113.84 92.9502H113.93L113.96 93.0302L113.84 92.9502ZM115.71 98.2702L113.72 93.1402L113.96 93.0402L115.95 98.1702V98.2702H115.71ZM115.95 98.2702L115.83 98.5802L115.71 98.2702H115.95ZM117.94 93.1402L115.95 98.2702L115.71 98.1702L117.7 93.0402L117.82 92.9602L117.94 93.1402ZM117.7 93.0402L117.73 92.9602H117.82L117.7 93.0402ZM118.26 93.2202H117.81V92.9502H118.26L118.38 93.1302L118.26 93.2102V93.2202ZM118.26 92.9502H118.45L118.38 93.1302L118.26 92.9502Z" fill="#373435"></path><path d="M118.26 93.0801L116.05 98.7201H115.6L113.39 93.0801H113.84L115.83 98.2201L117.81 93.0801H118.26Z" fill="#373435"></path><path d="M120.48 93.3402H122.42V93.6102H120.48L120.35 93.4802L120.48 93.3502V93.3402ZM120.48 93.6102H120.35V93.4802L120.48 93.6102ZM120.61 93.0902V93.4802H120.35V93.0902L120.48 92.9602L120.61 93.0902ZM120.35 93.0902V92.9602H120.48L120.35 93.0902ZM124.78 93.2202H120.48V92.9502H124.78L124.91 93.0802L124.78 93.2102V93.2202ZM124.78 92.9502H124.91V93.0802L124.78 92.9502ZM124.65 93.4702V93.0802H124.91V93.4702L124.78 93.6002L124.65 93.4702ZM124.91 93.4702V93.6002H124.78L124.91 93.4702ZM122.84 93.3402H124.78V93.6102H122.84L122.71 93.4802L122.84 93.3502V93.3402ZM122.71 93.4702V93.3402H122.84L122.71 93.4702ZM122.71 98.6902V93.4702H122.97V98.6902L122.84 98.8202L122.71 98.6902ZM122.97 98.6902V98.8202H122.84L122.97 98.6902ZM122.43 98.5602H122.84V98.8302H122.43L122.3 98.7002L122.43 98.5702V98.5602ZM122.43 98.8302H122.3V98.7002L122.43 98.8302ZM122.56 93.4702V98.6902H122.3V93.4702L122.43 93.3402L122.56 93.4702ZM122.43 93.3402H122.56V93.4702L122.43 93.3402Z" fill="#373435"></path><path d="M122.42 93.4803H120.48V93.0903H124.78V93.4803H122.83V98.7003H122.42V93.4803Z" fill="#373435"></path><path d="M126.65 98.46H126.91V98.49V98.51V98.53L126.92 98.55V98.58L126.93 98.6H126.94L126.95 98.62H126.96L126.98 98.63H127H127.02H127.04H127.06H127.08H127.1H127.12H127.14H127.16L127.17 98.62H127.18L127.19 98.6H127.2V98.58V98.55V98.53L127.21 98.51V98.49V98.46H127.47V98.51V98.56V98.61L127.44 98.65L127.42 98.69L127.4 98.73L127.37 98.76L127.34 98.79L127.31 98.82L127.28 98.84L127.24 98.86L127.2 98.88H127.16L127.12 98.9H127.08H127.04H127H126.96H126.92L126.88 98.88L126.84 98.86L126.8 98.84L126.77 98.82L126.74 98.79L126.71 98.76L126.68 98.73L126.66 98.69L126.64 98.65L126.62 98.61V98.56L126.6 98.51V98.46H126.65ZM127.51 98.46H127.25V98.43V98.41V98.39L127.24 98.37V98.34L127.23 98.32H127.22L127.21 98.3H127.2L127.18 98.29H127.16H127.14H127.12H127.1H127.08H127.06H127.04H127.02H127L126.99 98.3H126.98L126.97 98.32H126.96V98.34V98.37V98.39L126.95 98.41V98.43V98.46H126.69V98.41V98.36V98.31L126.72 98.27L126.74 98.23L126.76 98.19L126.79 98.16L126.82 98.13L126.85 98.1L126.88 98.08L126.92 98.06L126.96 98.04H127L127.04 98.02H127.08H127.12H127.16H127.2H127.24L127.28 98.04L127.32 98.06L127.36 98.08L127.39 98.1L127.42 98.13L127.45 98.16L127.48 98.19L127.5 98.23L127.52 98.27L127.54 98.31V98.36L127.56 98.41V98.46H127.51Z" fill="#373435"></path><path d="M127.38 98.46C127.38 98.88 126.77 98.88 126.77 98.46C126.77 98.04 127.38 98.04 127.38 98.46Z" fill="#373435"></path><path d="M134.69 98.2904V93.0804H134.95V98.2904L134.82 98.4204L134.69 98.2904ZM134.82 98.4204H134.69V98.2904L134.82 98.4204ZM137.84 98.4204H134.82V98.1504H137.84L137.97 98.2804L137.84 98.4104V98.4204ZM137.84 98.1504H137.97V98.2804L137.84 98.1504ZM137.71 98.6904V98.2804H137.97V98.6904L137.84 98.8204L137.71 98.6904ZM137.97 98.6904V98.8204H137.84L137.97 98.6904ZM134.4 98.5604H137.84V98.8304H134.4L134.27 98.7004L134.4 98.5704V98.5604ZM134.4 98.8304H134.27V98.7004L134.4 98.8304ZM134.53 93.0804V98.7004H134.27V93.0804L134.4 92.9504L134.53 93.0804ZM134.27 93.0804V92.9504H134.4L134.27 93.0804ZM134.81 93.2104H134.4V92.9404H134.81L134.94 93.0704L134.81 93.2004V93.2104ZM134.81 92.9404H134.94V93.0704L134.81 92.9404Z" fill="#373435"></path><path d="M134.82 93.0806V98.2906H137.85V98.7006H134.41V93.0806H134.82Z" fill="#373435"></path><path d="M139.33 93.3402H141.27V93.6102H139.33L139.2 93.4802L139.33 93.3502V93.3402ZM139.33 93.6102H139.2V93.4802L139.33 93.6102ZM139.46 93.0902V93.4802H139.2V93.0902L139.33 92.9602L139.46 93.0902ZM139.2 93.0902V92.9602H139.33L139.2 93.0902ZM143.63 93.2202H139.33V92.9502H143.63L143.76 93.0802L143.63 93.2102V93.2202ZM143.63 92.9502H143.76V93.0802L143.63 92.9502ZM143.5 93.4702V93.0802H143.76V93.4702L143.63 93.6002L143.5 93.4702ZM143.76 93.4702V93.6002H143.63L143.76 93.4702ZM141.69 93.3402H143.63V93.6102H141.69L141.56 93.4802L141.69 93.3502V93.3402ZM141.56 93.4702V93.3402H141.69L141.56 93.4702ZM141.56 98.6902V93.4702H141.82V98.6902L141.69 98.8202L141.56 98.6902ZM141.82 98.6902V98.8202H141.69L141.82 98.6902ZM141.28 98.5602H141.69V98.8302H141.28L141.15 98.7002L141.28 98.5702V98.5602ZM141.28 98.8302H141.15V98.7002L141.28 98.8302ZM141.41 93.4702V98.6902H141.15V93.4702L141.28 93.3402L141.41 93.4702ZM141.28 93.3402H141.41V93.4702L141.28 93.3402Z" fill="#373435"></path><path d="M141.28 93.4803H139.33V93.0903H143.63V93.4803H141.69V98.7003H141.28V93.4803Z" fill="#373435"></path><path d="M146.58 98.2804V93.4904H146.84V98.2804L146.71 98.4104L146.58 98.2804ZM146.71 98.4104H146.58V98.2804L146.71 98.4104ZM148.11 98.4104H146.71V98.1404H148.11V98.4104ZM150.29 95.8204H150.55V96.0604L150.54 96.1804V96.3004L150.51 96.4204L150.49 96.5404L150.46 96.6604L150.43 96.7704L150.39 96.8804L150.35 96.9904L150.3 97.1004L150.25 97.2104L150.19 97.3104L150.13 97.4104L150.06 97.5104L149.99 97.6004L149.91 97.6904L149.83 97.7804L149.74 97.8604L149.65 97.9404L149.55 98.0104L149.45 98.0804L149.34 98.1404L149.23 98.2004L149.11 98.2504L148.99 98.3004L148.86 98.3404L148.73 98.3704L148.59 98.4004L148.45 98.4204H148.3L148.15 98.4404V98.1704H148.29L148.43 98.1604L148.56 98.1404L148.69 98.1204L148.81 98.0904L148.93 98.0604L149.04 98.0204L149.15 97.9704L149.25 97.9204L149.35 97.8604L149.44 97.8004L149.53 97.7404L149.61 97.6704L149.69 97.6004L149.76 97.5204L149.83 97.4404L149.89 97.3604L149.95 97.2704L150.01 97.1804L150.06 97.0904L150.11 97.0004L150.15 96.9004L150.19 96.8004L150.22 96.7004L150.25 96.6004L150.28 96.5004L150.3 96.3904L150.32 96.2804V96.1704L150.34 96.0604V95.9504V95.8404L150.29 95.8204ZM148.11 93.6204V93.3504H148.26L148.4 93.3604L148.54 93.3804L148.68 93.4004L148.81 93.4304L148.94 93.4704L149.06 93.5104L149.18 93.5604L149.29 93.6104L149.4 93.6704L149.5 93.7304L149.6 93.8004L149.69 93.8704L149.78 93.9504L149.86 94.0304L149.94 94.1204L150.01 94.2104L150.08 94.3004L150.14 94.4004L150.2 94.5004L150.25 94.6004L150.3 94.7004L150.34 94.8104L150.38 94.9204L150.42 95.0304L150.45 95.1404L150.48 95.2504L150.5 95.3604L150.52 95.4704V95.5804L150.54 95.6904V95.8104H150.29V95.7104L150.28 95.6104V95.5104L150.25 95.4104L150.23 95.3104L150.21 95.2104L150.18 95.1104L150.15 95.0104L150.11 94.9104L150.07 94.8204L150.03 94.7304L149.98 94.6404L149.93 94.5504L149.87 94.4704L149.81 94.3904L149.75 94.3104L149.68 94.2304L149.61 94.1604L149.53 94.0904L149.45 94.0304L149.36 93.9704L149.27 93.9104L149.18 93.8604L149.08 93.8104L148.98 93.7704L148.87 93.7304L148.76 93.7004L148.64 93.6704L148.52 93.6504L148.39 93.6304H148.26L148.12 93.6204H148.11ZM146.71 93.3504H148.11V93.6204H146.71L146.58 93.4904L146.71 93.3604V93.3504ZM146.58 93.4804V93.3504H146.71L146.58 93.4804ZM148.11 98.8204V98.5504H148.28L148.44 98.5304L148.6 98.5104L148.75 98.4804L148.89 98.4504L149.03 98.4104L149.16 98.3604L149.29 98.3104L149.41 98.2504L149.53 98.1904L149.64 98.1204L149.74 98.0404L149.84 97.9604L149.93 97.8704L150.02 97.7804L150.1 97.6904L150.18 97.5904L150.25 97.4904L150.32 97.3904L150.38 97.2804L150.44 97.1704L150.49 97.0604L150.54 96.9404L150.58 96.8204L150.62 96.7004L150.65 96.5804L150.68 96.4604L150.7 96.3304L150.72 96.2004V96.0704L150.74 95.9404V95.8104H151V95.9504V96.0904V96.2304L150.97 96.3704L150.95 96.5104L150.92 96.6504L150.89 96.7904L150.85 96.9204L150.8 97.0504L150.75 97.1804L150.69 97.3104L150.63 97.4304L150.56 97.5504L150.49 97.6704L150.41 97.7804L150.32 97.8904L150.23 97.9904L150.13 98.0904L150.03 98.1804L149.92 98.2704L149.8 98.3504L149.68 98.4304L149.55 98.5004L149.42 98.5704L149.28 98.6304L149.13 98.6804L148.98 98.7204L148.82 98.7604L148.66 98.7904L148.49 98.8104H148.32L148.14 98.8304L148.11 98.8204ZM146.29 98.5504H148.11V98.8204H146.29L146.16 98.6904L146.29 98.5604V98.5504ZM146.29 98.8204H146.16V98.6904L146.29 98.8204ZM146.42 93.0704V98.6904H146.16V93.0704L146.29 92.9404L146.42 93.0704ZM146.16 93.0704V92.9404H146.29L146.16 93.0704ZM148.11 93.2004H146.29V92.9304H148.11V93.2004ZM150.96 95.8104H150.7V95.6904V95.5704L150.68 95.4504L150.66 95.3304L150.64 95.2104L150.61 95.0904L150.58 94.9704L150.54 94.8504L150.5 94.7404L150.45 94.6304L150.4 94.5204L150.34 94.4104L150.28 94.3104L150.21 94.2104L150.14 94.1104L150.06 94.0204L149.98 93.9304L149.89 93.8404L149.8 93.7604L149.7 93.6804L149.6 93.6104L149.49 93.5404L149.38 93.4804L149.26 93.4204L149.14 93.3704L149.01 93.3304L148.88 93.2904L148.74 93.2604L148.6 93.2304L148.45 93.2104H148.29L148.13 93.1904V92.9204H148.3L148.47 92.9404L148.63 92.9604L148.79 92.9904L148.94 93.0204L149.09 93.0604L149.23 93.1104L149.37 93.1704L149.5 93.2304L149.63 93.3004L149.75 93.3704L149.86 93.4504L149.97 93.5304L150.07 93.6204L150.17 93.7104L150.26 93.8104L150.35 93.9104L150.43 94.0204L150.5 94.1304L150.57 94.2404L150.63 94.3604L150.69 94.4804L150.74 94.6004L150.79 94.7304L150.83 94.8604L150.87 94.9904L150.9 95.1204L150.93 95.2504L150.95 95.3804L150.97 95.5104V95.6404L150.99 95.7704L150.96 95.8104Z" fill="#373435"></path><path d="M146.71 93.4903V98.2803H148.11C149.71 98.2803 150.44 97.0303 150.42 95.8203C150.4 94.6503 149.66 93.4903 148.11 93.4903H146.71ZM150.84 95.8203C150.87 97.2503 150 98.6903 148.12 98.6903H146.3V93.0703H148.12C149.94 93.0703 150.81 94.4303 150.84 95.8103V95.8203Z" fill="#373435"></path><path d="M153.35 98.46H153.61V98.49V98.51V98.53L153.62 98.55V98.58L153.63 98.6H153.64L153.65 98.62H153.66L153.68 98.63H153.7H153.72H153.74H153.76H153.78H153.8H153.82H153.84H153.86L153.87 98.62H153.88L153.89 98.6H153.9V98.58V98.55V98.53L153.91 98.51V98.49V98.46H154.17V98.51V98.56V98.61L154.14 98.65L154.12 98.69L154.1 98.73L154.07 98.76L154.04 98.79L154.01 98.82L153.98 98.84L153.94 98.86L153.9 98.88H153.86L153.82 98.9H153.78H153.74H153.7H153.66H153.62L153.58 98.88L153.54 98.86L153.5 98.84L153.47 98.82L153.44 98.79L153.41 98.76L153.38 98.73L153.36 98.69L153.34 98.65L153.32 98.61V98.56L153.3 98.51V98.46H153.35ZM154.21 98.46H153.95V98.43V98.41V98.39L153.94 98.37V98.34L153.93 98.32H153.92L153.91 98.3H153.9L153.88 98.29H153.86H153.84H153.82H153.8H153.78H153.76H153.74H153.72H153.7L153.69 98.3H153.68L153.67 98.32H153.66V98.34V98.37V98.39L153.65 98.41V98.43V98.46H153.39V98.41V98.36V98.31L153.42 98.27L153.44 98.23L153.46 98.19L153.49 98.16L153.52 98.13L153.55 98.1L153.58 98.08L153.62 98.06L153.66 98.04H153.7L153.74 98.02H153.78H153.82H153.86H153.9H153.94L153.98 98.04L154.02 98.06L154.06 98.08L154.09 98.1L154.12 98.13L154.15 98.16L154.18 98.19L154.2 98.23L154.22 98.27L154.24 98.31V98.36L154.26 98.41V98.46H154.21Z" fill="#373435"></path><path d="M154.08 98.46C154.08 98.88 153.47 98.88 153.47 98.46C153.47 98.04 154.08 98.04 154.08 98.46Z" fill="#373435"></path><path fill-rule="evenodd" clip-rule="evenodd" d="M99.5899 10.9202H99.58C95.25 10.9202 89.9299 12.0902 90.0899 17.9202C90.0899 17.9202 91.11 14.7202 98.35 15.6102C99.66 15.7702 100.7 15.7302 101.55 15.5702C101.22 15.6002 101 15.5702 101 15.5702C101 15.5702 100.6 13.5302 100.51 10.9302C100.21 10.9202 99.8999 10.9102 99.5899 10.9102V10.9202Z" fill="#ED3237"></path><path fill-rule="evenodd" clip-rule="evenodd" d="M100.52 10.94C100.61 13.53 101.01 15.58 101.01 15.58C101.01 15.58 101.23 15.61 101.56 15.58C102.43 15.41 103.08 15.11 103.57 14.74C104.23 14.17 104.8 13.2 105 11.6C105.1 10.79 105.12 9.83 104.99 8.65C104.14 1.07 107.2 0 107.2 0C107.11 0 107.03 0 106.95 0C101.17 0 100.35 6.35 100.52 10.94Z" fill="#ED3237"></path><path fill-rule="evenodd" clip-rule="evenodd" d="M110 0.000234375C110 0.000234375 113.06 1.07023 112.21 8.64023C112.08 9.82023 112.09 10.7802 112.2 11.5902C112.2 11.5102 112.2 11.4502 112.2 11.4502C112.2 11.4502 114.17 11.0302 116.67 10.9302C116.83 6.34023 116.02 -0.00976562 110.24 -0.00976562C110.16 -0.00976562 110.08 -0.00976562 109.99 -0.00976562L110 0.000234375Z" fill="#ED3237"></path><path fill-rule="evenodd" clip-rule="evenodd" d="M117.62 10.9204H117.59C117.28 10.9204 116.98 10.9204 116.68 10.9404C114.18 11.0304 112.21 11.4604 112.21 11.4604C112.21 11.4604 112.21 11.5204 112.21 11.6004C112.41 13.2004 112.98 14.1704 113.64 14.7404C114.13 15.1104 114.78 15.4104 115.65 15.5804C116.5 15.7404 117.54 15.7804 118.85 15.6204C126.09 14.7304 127.11 17.9304 127.11 17.9304C127.27 12.1004 121.95 10.9304 117.62 10.9304V10.9204Z" fill="#ED3237"></path><path fill-rule="evenodd" clip-rule="evenodd" d="M118.84 23.1303C117.53 22.9703 116.49 23.0103 115.64 23.1703C115.97 23.1403 116.19 23.1703 116.19 23.1703C116.19 23.1703 116.59 25.2103 116.68 27.8103C121.13 27.9803 127.28 27.0803 127.1 20.8203C127.1 20.8203 126.08 24.0203 118.84 23.1303Z" fill="#ED3237"></path><path fill-rule="evenodd" clip-rule="evenodd" d="M115.95 23.1504H115.92C115.84 23.1504 115.74 23.1504 115.64 23.1604C114.77 23.3304 114.12 23.6304 113.63 24.0004C112.97 24.5704 112.4 25.5404 112.2 27.1404C112.1 27.9504 112.08 28.9104 112.21 30.0904C113.06 37.6604 110 38.7304 110 38.7304C116.01 38.9104 116.85 32.4504 116.68 27.8004C116.59 25.2104 116.19 23.1604 116.19 23.1604C116.19 23.1604 116.1 23.1504 115.95 23.1504Z" fill="#ED3237"></path><path fill-rule="evenodd" clip-rule="evenodd" d="M104.99 27.2904C104.99 27.2904 103.02 27.7104 100.52 27.8104C100.36 32.4704 101.2 38.9304 107.2 38.7404C107.2 38.7404 104.14 37.6704 104.99 30.1004C105.12 28.9204 105.11 27.9604 105 27.1504C105 27.2304 105 27.2904 105 27.2904H104.99Z" fill="#ED3237"></path><path fill-rule="evenodd" clip-rule="evenodd" d="M100.52 27.8001C103.02 27.7101 104.99 27.2801 104.99 27.2801C104.99 27.2801 104.99 27.2201 104.99 27.1401C104.79 25.5401 104.22 24.5701 103.56 24.0001C103.07 23.6301 102.42 23.3301 101.55 23.1601C100.7 23.0001 99.6599 22.9601 98.3499 23.1201C91.1099 24.0101 90.0899 20.8101 90.0899 20.8101C89.9199 27.0701 96.0599 27.9601 100.51 27.8001H100.52Z" fill="#ED3237"></path><path fill-rule="evenodd" clip-rule="evenodd" d="M99.29 4.78C99.24 4.78 99.18 4.79 99.11 4.8C99.04 4.81 98.96 4.83 98.88 4.85C98.71 4.88 98.53 4.92 98.34 4.99C98.25 5.02 98.15 5.05 98.04 5.09C97.94 5.13 97.84 5.18 97.73 5.22C97.52 5.3 97.31 5.44 97.09 5.55C96.89 5.7 96.67 5.83 96.47 6.01C96.26 6.17 96.09 6.37 95.9 6.56C95.74 6.77 95.56 6.97 95.43 7.2C95.28 7.41 95.17 7.65 95.05 7.87C94.96 8.1 94.85 8.32 94.8 8.54C94.77 8.65 94.74 8.75 94.7 8.86C94.68 8.96 94.66 9.07 94.64 9.16C94.59 9.35 94.58 9.53 94.56 9.69C94.56 9.77 94.54 9.84 94.54 9.91C94.54 9.98 94.54 10.04 94.54 10.1C94.54 10.33 94.54 10.46 94.54 10.46C94.54 10.46 94.55 10.33 94.57 10.1C94.57 10.04 94.58 9.98 94.59 9.91C94.6 9.84 94.62 9.77 94.63 9.69C94.66 9.53 94.69 9.36 94.75 9.18C94.78 9.09 94.81 8.99 94.84 8.89C94.88 8.79 94.92 8.69 94.96 8.59C95.03 8.38 95.16 8.19 95.26 7.97C95.39 7.77 95.51 7.56 95.67 7.37C95.81 7.17 95.99 7 96.16 6.82C96.35 6.66 96.53 6.49 96.73 6.36C96.92 6.21 97.13 6.11 97.32 6C97.53 5.92 97.72 5.81 97.92 5.76C98.02 5.73 98.11 5.7 98.2 5.67C98.29 5.65 98.38 5.63 98.47 5.61C98.64 5.57 98.8 5.55 98.93 5.54C99 5.54 99.06 5.53 99.12 5.52C99.19 5.52 99.25 5.52 99.3 5.52C99.52 5.52 99.64 5.52 99.64 5.52L99.6 4.75C99.6 4.75 99.48 4.76 99.26 4.78H99.29Z" fill="#ED3237"></path><path fill-rule="evenodd" clip-rule="evenodd" d="M117.68 5.16039C117.73 5.16039 117.79 5.17039 117.86 5.18039C117.92 5.19039 117.99 5.21039 118.07 5.22039C118.22 5.25039 118.39 5.28039 118.56 5.35039C118.65 5.38039 118.74 5.41039 118.84 5.44039C118.93 5.48039 119.03 5.52039 119.12 5.57039C119.32 5.65039 119.51 5.78039 119.71 5.88039C119.9 6.02039 120.1 6.14039 120.28 6.31039C120.47 6.46039 120.64 6.65039 120.81 6.83039C120.96 7.03039 121.12 7.21039 121.25 7.42039C121.39 7.62039 121.49 7.84039 121.6 8.04039C121.68 8.26039 121.78 8.46039 121.83 8.66039C121.86 8.76039 121.89 8.86039 121.92 8.95039C121.94 9.05039 121.96 9.14039 121.98 9.23039C122.02 9.41039 122.03 9.57039 122.05 9.72039C122.05 9.79039 122.06 9.86039 122.07 9.92039C122.07 9.99039 122.07 10.0504 122.07 10.1104C122.07 10.3404 122.07 10.4704 122.07 10.4704L122.81 10.4304C122.81 10.4304 122.8 10.3004 122.78 10.0704C122.78 10.0104 122.77 9.95039 122.76 9.88039C122.75 9.81039 122.73 9.72039 122.72 9.64039C122.69 9.47039 122.66 9.27039 122.59 9.08039C122.56 8.98039 122.53 8.88039 122.5 8.77039C122.46 8.67039 122.42 8.56039 122.37 8.45039C122.29 8.23039 122.16 8.01039 122.05 7.79039C121.91 7.58039 121.78 7.35039 121.61 7.15039C121.46 6.94039 121.26 6.75039 121.08 6.56039C120.88 6.39039 120.69 6.21039 120.47 6.07039C120.27 5.91039 120.04 5.80039 119.83 5.68039C119.61 5.59039 119.4 5.47039 119.19 5.41039C119.09 5.38039 118.98 5.34039 118.89 5.31039C118.79 5.29039 118.69 5.27039 118.6 5.25039C118.42 5.20039 118.24 5.19039 118.09 5.17039C118.01 5.17039 117.94 5.15039 117.88 5.15039C117.81 5.15039 117.75 5.15039 117.7 5.15039C117.48 5.15039 117.36 5.15039 117.36 5.15039C117.36 5.15039 117.48 5.16039 117.7 5.18039L117.68 5.16039Z" fill="#ED3237"></path><path d="M94.9202 28.3501C94.9202 28.3501 94.9202 28.4801 94.9202 28.7101C94.9202 28.7701 94.9202 28.8301 94.9202 28.9001C94.9202 28.9601 94.9302 29.0301 94.9402 29.1001C94.9502 29.2401 94.9602 29.4001 95.0102 29.5901C95.0302 29.6801 95.0502 29.7701 95.0702 29.8701C95.1002 29.9601 95.1302 30.0601 95.1602 30.1601C95.2102 30.3701 95.3102 30.5701 95.3902 30.7801C95.5002 30.9801 95.6002 31.2001 95.7402 31.4001C95.8602 31.6101 96.0302 31.8001 96.1802 31.9901C96.3502 32.1701 96.5202 32.3501 96.7102 32.5101C96.8902 32.6801 97.0902 32.8001 97.2802 32.9401C97.4802 33.0501 97.6702 33.1801 97.8702 33.2501C97.9702 33.2901 98.0602 33.3301 98.1502 33.3801C98.2502 33.4101 98.3402 33.4401 98.4302 33.4701C98.6102 33.5301 98.7702 33.5701 98.9202 33.6001C98.9902 33.6201 99.0602 33.6301 99.1302 33.6401C99.2002 33.6401 99.2602 33.6501 99.3102 33.6601C99.5302 33.6801 99.6502 33.6901 99.6502 33.6901C99.6502 33.6901 99.5202 33.6901 99.3102 33.6901C99.2602 33.6901 99.1902 33.6901 99.1302 33.6901C99.0602 33.6901 98.9902 33.6701 98.9202 33.6701C98.7702 33.6501 98.5902 33.6401 98.4102 33.5901C98.3202 33.5701 98.2202 33.5501 98.1202 33.5301C98.0202 33.5001 97.9202 33.4601 97.8202 33.4301C97.6102 33.3701 97.4002 33.2601 97.1802 33.1601C96.9702 33.0401 96.7402 32.9301 96.5402 32.7701C96.3202 32.6301 96.1302 32.4501 95.9302 32.2801C95.7502 32.0901 95.5602 31.9001 95.4002 31.6901C95.2302 31.4901 95.1002 31.2601 94.9602 31.0501C94.8502 30.8201 94.7202 30.6101 94.6402 30.3901C94.6002 30.2801 94.5502 30.1701 94.5102 30.0701C94.4802 29.9601 94.4502 29.8601 94.4202 29.7601C94.3602 29.5601 94.3202 29.3701 94.2902 29.2001C94.2702 29.1101 94.2602 29.0301 94.2502 28.9601C94.2502 28.8901 94.2402 28.8301 94.2302 28.7701C94.2102 28.5401 94.2002 28.4101 94.2002 28.4101L94.9402 28.3701L94.9202 28.3501Z" fill="#ED3237"></path><path fill-rule="evenodd" clip-rule="evenodd" d="M117.7 34.0504C117.75 34.0504 117.81 34.0403 117.88 34.0303C117.95 34.0203 118.03 34.0004 118.11 33.9804C118.28 33.9504 118.46 33.9104 118.65 33.8404C118.75 33.8104 118.84 33.7804 118.95 33.7404C119.05 33.7004 119.15 33.6504 119.26 33.6104C119.47 33.5304 119.68 33.3904 119.9 33.2704C120.1 33.1204 120.32 32.9904 120.52 32.8104C120.73 32.6504 120.9 32.4503 121.09 32.2603C121.25 32.0503 121.43 31.8504 121.56 31.6204C121.71 31.4104 121.82 31.1704 121.94 30.9504C122.03 30.7204 122.14 30.5004 122.19 30.2804C122.22 30.1704 122.25 30.0704 122.29 29.9604C122.31 29.8504 122.33 29.7504 122.35 29.6604C122.4 29.4704 122.41 29.2904 122.43 29.1304C122.43 29.0504 122.45 28.9804 122.45 28.9104C122.45 28.8404 122.45 28.7804 122.45 28.7204C122.45 28.4904 122.45 28.3604 122.45 28.3604C122.45 28.3604 122.44 28.4904 122.42 28.7204C122.42 28.7804 122.41 28.8404 122.4 28.9104C122.39 28.9804 122.37 29.0504 122.36 29.1304C122.33 29.2904 122.3 29.4604 122.24 29.6404C122.21 29.7304 122.18 29.8304 122.15 29.9304C122.11 30.0304 122.07 30.1304 122.03 30.2304C121.96 30.4404 121.83 30.6304 121.73 30.8504C121.6 31.0504 121.48 31.2604 121.32 31.4504C121.18 31.6504 121 31.8204 120.83 32.0004C120.64 32.1604 120.46 32.3304 120.26 32.4604C120.07 32.6104 119.86 32.7104 119.67 32.8204C119.46 32.9004 119.27 33.0104 119.07 33.0604C118.97 33.0904 118.88 33.1204 118.79 33.1504C118.7 33.1704 118.61 33.1904 118.52 33.2104C118.35 33.2504 118.19 33.2703 118.06 33.2803C117.99 33.2803 117.93 33.2904 117.87 33.3004C117.8 33.3004 117.74 33.3004 117.69 33.3004C117.47 33.3004 117.35 33.3004 117.35 33.3004L117.39 34.0704C117.39 34.0704 117.51 34.0604 117.73 34.0404L117.7 34.0504Z" fill="#ED3237"></path></g><defs><clipPath id="clip0_209_10"><rect width="157.39" height="98.92" fill="white"></rect></clipPath></defs></svg>