<?xml version="1.0" encoding="utf-8"?>
<!-- Generator: Adobe Illustrator 26.4.1, SVG Export Plug-In . SVG Version: 6.00 Build 0)  -->
<svg version="1.1" id="Layer_1" xmlns="http://www.w3.org/2000/svg" xmlns:xlink="http://www.w3.org/1999/xlink" x="0px" y="0px"
	 viewBox="0 0 208.7 52.8" style="enable-background:new 0 0 208.7 52.8;" xml:space="preserve">
<style type="text/css">
	.st0{fill:#164193;}
	.st1{fill:#E20613;}
</style>
<g>
	<path class="st0" d="M32.6,21.2v3.2h0.7c0.3,0,0.5,0,0.6,0c0.2,0,0.3-0.1,0.4-0.2c0.1-0.1,0.2-0.3,0.3-0.5c0.1-0.2,0.1-0.5,0.1-0.9
		c0-0.4,0-0.7-0.1-0.9c-0.1-0.2-0.2-0.4-0.3-0.5c-0.1-0.1-0.3-0.2-0.5-0.2c-0.1,0-0.4,0-0.8,0H32.6z M31.6,20.4h1.8
		c0.4,0,0.7,0,0.9,0.1c0.3,0.1,0.5,0.2,0.7,0.4c0.2,0.2,0.4,0.5,0.5,0.8c0.1,0.3,0.2,0.7,0.2,1.2c0,0.4-0.1,0.7-0.2,1
		c-0.1,0.4-0.3,0.6-0.5,0.9c-0.2,0.2-0.4,0.3-0.7,0.4c-0.2,0.1-0.5,0.1-0.9,0.1h-1.8V20.4z M12.7,23.4l-0.7-1.8l-0.7,1.8H12.7z
		 M14.5,25.3h-1.1L13,24.2h-1.9l-0.4,1.1h-1l1.9-4.9h1L14.5,25.3z M21,16.7v-4.9h3.3v0.8H22v1.2h2v0.8h-2v2.1H21z M28.8,33.2H16.4
		v1.9h12.4V33.2z M38.1,19C38.1,19,38.1,19,38.1,19C38.1,19,38.1,19,38.1,19z M22.8,32.2c0.2-2.5,0.5-4.6,1.1-6.5
		c0.2-0.8,0.5-1.6,0.8-2.4c0,0,0,0,0,0c0,0,0,0,0,0c0-0.1,0-0.1,0.1-0.2l0,0c0,0,0-0.1,0-0.1c0,0,0,0,0,0l0-0.1c0,0,0,0,0,0
		c0.3-0.7,0.6-1.5,1-2.2c2.6-6.4,0.5-9.3-1.6-12.3c-0.6-0.9-1.3-1.8-1.8-2.8c-0.5,1-1.1,1.9-1.7,2.9c-2.2,3.4-4.2,6.5-0.7,14l0,0
		c1.2,2.9,1.9,6.4,2.1,9.7H22.8z M25.7,32.2c0.1-0.5,0.2-1,0.3-1.5h0c0.4-2.4,2.2-3.9,3.9-4.4h0c0.8-0.2,1.6-0.3,2.3-0.1
		c0.8,0.2,1.4,0.7,1.8,1.5c0.3,0.8,0.3,1.8-0.3,3.1c0.8,0,1.5-0.2,2.2-0.6c0.9-0.5,1.6-1.3,2.1-2.2c0.5-1,0.8-2.1,0.8-3.3
		c0-1.6-0.6-3.2-1.8-4.5l0,0c0,0,0,0,0,0c-0.3-0.3-0.7-0.6-1.1-0.9c-0.4-0.2-0.8-0.4-1.2-0.5c-2.2-0.6-4.8,0.3-6.6,2
		c-0.1,0.2-0.2,0.4-0.3,0.6c-0.3,0.7-0.6,1.4-1,2.2c-0.1,0.2-0.1,0.3-0.2,0.5c0,0,0,0,0,0c-0.2,0.7-0.4,1.4-0.6,2.2
		c-0.2,0.9-0.4,2-0.5,3c-0.1,0.9-0.2,1.9-0.2,2.8H25.7z M20.1,32.2c0-1.9-0.2-3.8-0.7-5.6c-0.6-2-1.5-4-2.7-6.1
		c-1.8-1.7-4.3-2.5-6.4-1.8c-0.4,0.1-0.8,0.3-1.2,0.6c-0.4,0.2-0.8,0.5-1.1,0.9c0,0,0,0,0,0v0l0,0c-0.9,1-1.4,2.4-1.5,3.9
		c-0.1,1.2,0.2,2.5,0.7,3.6c0.5,1.1,1.3,2,2.3,2.5c0.6,0.3,1.3,0.5,2.1,0.6c-0.6-1.1-0.8-2-0.6-2.8l0,0c0.2-0.9,0.9-1.5,1.8-1.8l0,0
		c0.7-0.2,1.7-0.3,2.6,0c1.7,0.4,3.4,1.8,3.8,4c0.2,0.7,0.3,1.4,0.4,2H20.1z M27.5,36c0,0.1,0,0.2,0.1,0.3c0.2,0.8,0.5,1.4,0.8,1.8
		c0.3,0.3,0.7,0.5,1.1,0.5c0.3,0,0.7-0.1,1.2-0.4l1.3-0.7L32,39c0,0.9-0.2,1.9-0.6,2.7c-0.3,0.6-0.7,1.1-1.2,1.4
		c-0.5,0.4-1.2,0.7-1.9,0.7c-0.4,0-0.9-0.1-1.4-0.2c-0.4,0.5-0.8,1-1.3,1.5c-0.9,0.9-1.7,1.9-2.2,3.4l-1.7,0.1c-0.6-1.2-1-2-1.5-2.7
		c-0.4-0.6-1-1.3-1.9-2.1c-0.5,0.1-0.9,0.2-1.4,0.2c0,0,0,0,0,0c-0.8,0-1.6-0.3-2.2-0.8c-0.6-0.4-1-1-1.4-1.6
		c-0.4-0.8-0.6-1.7-0.6-2.5l0.1-1.5l1.3,0.7c0.5,0.2,0.9,0.4,1.3,0.4c0.5,0,0.9-0.2,1.3-0.6l0,0c0.4-0.4,0.7-1.1,0.9-2c0,0,0,0,0,0
		h-1.6h-0.5v-0.5v-2.9v-0.5h0.5h1.6c-0.1-0.5-0.2-1-0.3-1.6l0-0.1c-0.2-1.4-1.3-2.3-2.5-2.6c-0.6-0.1-1.1-0.1-1.5,0h0
		c-0.3,0.1-0.5,0.3-0.5,0.5l0,0c-0.1,0.5,0.2,1.3,1.3,2.5l1.1,1.2l-1.6,0.3c-1.9,0.3-3.6,0.1-4.9-0.7c-1.4-0.7-2.4-1.9-3.1-3.4
		c-0.6-1.4-0.9-2.9-0.9-4.5c0.1-1.9,0.8-3.8,2-5.1l0,0l0,0l0,0c0.5-0.5,1-0.9,1.5-1.2c0.5-0.3,1.1-0.6,1.6-0.7
		c2.2-0.7,4.7-0.3,6.8,1.1c-1-4.9,0.8-7.7,2.7-10.6C20.1,6.1,21,4.7,21.5,3l1.8,0c0.5,1.6,1.5,3,2.5,4.3c2,2.8,4,5.6,2.9,10.7
		c2-1.1,4.2-1.5,6.3-1c0.6,0.2,1.1,0.4,1.7,0.7c0.5,0.3,1,0.7,1.5,1.2l0,0l0,0v0c0,0,0,0,0,0c0,0,0,0,0,0l0,0l0,0l0,0c0,0,0,0,0,0
		c1.7,1.7,2.4,3.8,2.4,5.8c0,1.5-0.4,2.9-1,4.1c-0.7,1.3-1.6,2.3-2.8,3c-1.4,0.8-3,1.1-4.8,0.6l-1.2-0.3l0.7-1.1
		c0.9-1.3,1.1-2.1,0.9-2.6c-0.1-0.2-0.3-0.3-0.5-0.4c-0.4-0.1-0.8-0.1-1.3,0.1l0,0c-1.1,0.3-2.3,1.3-2.6,2.9l0,0
		c-0.1,0.4-0.2,0.8-0.2,1.2h1.7h0.5v0.5v2.9V36h-0.5H27.5z M24.9,36c0.2,2.6,0.8,4.7,1.8,5.6c0,0,0,0,0,0c0.6,0.3,1,0.4,1.4,0.4
		c0.3,0,0.6-0.1,0.9-0.3c0.3-0.2,0.5-0.5,0.7-0.8c0.1-0.2,0.1-0.3,0.2-0.5c-0.2,0-0.3,0-0.5,0c-1,0-1.8-0.4-2.5-1.1
		c-0.6-0.6-1-1.5-1.3-2.6c-0.1-0.2-0.1-0.5-0.1-0.7H24.9z M22.1,36c-0.1,1.1-0.3,2.2-0.5,3.1c-0.2,0.9-0.6,1.8-1,2.5
		c-0.1,0.2-0.3,0.5-0.4,0.7c-0.1,0.2-0.2,0.3-0.3,0.5c0.8,0.8,1.3,1.4,1.8,2.1c0.3,0.4,0.5,0.8,0.8,1.3c0.5-0.9,1.2-1.5,1.8-2.2
		c0.4-0.4,0.7-0.8,1-1.2c-1.5-1.4-2-3.8-2.2-6.7H22.1z M18,41.9c0.2-0.2,0.4-0.4,0.6-0.6c0.8-1.2,1.4-3,1.5-5.1c0-0.1,0-0.1,0-0.2
		h-0.8c0,0.2-0.1,0.3-0.1,0.4c-0.3,1.2-0.7,2.1-1.4,2.8v0c-0.7,0.7-1.6,1.2-2.6,1.2c-0.2,0-0.4,0-0.5,0c0,0.1,0.1,0.2,0.1,0.2
		c0.2,0.4,0.5,0.8,0.8,1c0.3,0.2,0.7,0.4,1.1,0.4h0C17.3,42.1,17.6,42.1,18,41.9z"/>
	<g>
		<path class="st1" d="M63.7,25.4h-3.9l-1.5-4h-7l-1.4,4h-3.8L53,7.9h3.7L63.7,25.4z M57.2,18.5L54.8,12l-2.4,6.5H57.2z"/>
		<path class="st1" d="M77.1,25.4h-3.4v-6.5c0-1.4-0.1-2.3-0.2-2.7c-0.1-0.4-0.4-0.7-0.7-0.9c-0.3-0.2-0.7-0.3-1.2-0.3
			c-0.6,0-1.1,0.2-1.6,0.5c-0.5,0.3-0.8,0.7-1,1.3c-0.2,0.5-0.3,1.5-0.3,2.9v5.8h-3.4V12.7h3.1v1.9c1.1-1.4,2.5-2.2,4.2-2.2
			c0.7,0,1.4,0.1,2,0.4c0.6,0.3,1.1,0.6,1.4,1c0.3,0.4,0.5,0.9,0.7,1.4c0.1,0.5,0.2,1.3,0.2,2.3V25.4z"/>
		<path class="st1" d="M80.2,26.2l3.8,0.5c0.1,0.4,0.2,0.8,0.4,0.9c0.3,0.2,0.8,0.4,1.5,0.4c0.9,0,1.5-0.1,2-0.4
			c0.3-0.2,0.5-0.5,0.7-0.8c0.1-0.3,0.2-0.8,0.2-1.5v-1.9c-1,1.4-2.3,2.1-3.8,2.1c-1.7,0-3.1-0.7-4.1-2.2c-0.8-1.1-1.2-2.6-1.2-4.3
			c0-2.1,0.5-3.8,1.5-4.9c1-1.1,2.3-1.7,3.8-1.7c1.6,0,2.9,0.7,3.9,2.1v-1.8h3.1v11.4c0,1.5-0.1,2.6-0.4,3.4c-0.2,0.7-0.6,1.3-1,1.7
			c-0.4,0.4-1,0.8-1.8,1c-0.7,0.2-1.7,0.4-2.8,0.4c-2.2,0-3.7-0.4-4.6-1.1c-0.9-0.7-1.4-1.7-1.4-2.8C80.2,26.5,80.2,26.4,80.2,26.2z
			 M83.2,18.8c0,1.3,0.3,2.3,0.8,3c0.5,0.6,1.2,0.9,1.9,0.9c0.8,0,1.5-0.3,2.1-1c0.6-0.6,0.8-1.6,0.8-2.9c0-1.3-0.3-2.3-0.8-2.9
			c-0.5-0.6-1.2-1-2.1-1c-0.8,0-1.5,0.3-2,0.9C83.5,16.5,83.2,17.5,83.2,18.8z"/>
		<path class="st1" d="M95.5,25.4V7.9h3.4v17.5H95.5z"/>
		<path class="st1" d="M101.5,18.9c0-1.1,0.3-2.2,0.8-3.2c0.6-1,1.3-1.8,2.3-2.4c1-0.6,2.1-0.8,3.4-0.8c1.9,0,3.5,0.6,4.7,1.9
			c1.2,1.2,1.8,2.8,1.8,4.7c0,1.9-0.6,3.5-1.9,4.8c-1.2,1.3-2.8,1.9-4.7,1.9c-1.2,0-2.3-0.3-3.3-0.8c-1.1-0.5-1.9-1.3-2.4-2.3
			S101.5,20.3,101.5,18.9z M105,19c0,1.3,0.3,2.2,0.9,2.9c0.6,0.7,1.3,1,2.2,1c0.9,0,1.6-0.3,2.2-1c0.6-0.7,0.9-1.6,0.9-2.9
			c0-1.2-0.3-2.2-0.9-2.9c-0.6-0.7-1.3-1-2.2-1c-0.9,0-1.6,0.3-2.2,1C105.3,16.8,105,17.8,105,19z"/>
		<path class="st1" d="M116.9,20.7v-3.4h6.6v3.4H116.9z"/>
		<path class="st1" d="M125.5,25.4V7.9h12v3H129V15h7.3v3H129v7.5H125.5z"/>
		<path class="st1" d="M143.6,25.4h-3.4V12.7h3.1v1.8c0.5-0.9,1-1.4,1.4-1.7c0.4-0.3,0.9-0.4,1.5-0.4c0.8,0,1.5,0.2,2.2,0.6l-1,2.9
			c-0.6-0.4-1.1-0.6-1.6-0.6c-0.5,0-0.9,0.1-1.2,0.4c-0.3,0.3-0.6,0.7-0.8,1.4c-0.2,0.7-0.3,2.1-0.3,4.3V25.4z"/>
		<path class="st1" d="M157.3,21.4l3.3,0.6c-0.4,1.2-1.1,2.2-2,2.8c-0.9,0.6-2.1,1-3.5,1c-2.2,0-3.8-0.7-4.9-2.2
			c-0.8-1.2-1.3-2.6-1.3-4.4c0-2.1,0.6-3.8,1.7-4.9s2.5-1.8,4.2-1.8c1.9,0,3.4,0.6,4.5,1.9c1.1,1.2,1.6,3.2,1.6,5.7h-8.4
			c0,1,0.3,1.8,0.8,2.3c0.5,0.6,1.2,0.8,1.9,0.8c0.5,0,1-0.1,1.3-0.4C156.8,22.5,157.1,22,157.3,21.4z M157.5,18
			c0-1-0.3-1.7-0.8-2.2c-0.5-0.5-1.1-0.8-1.7-0.8c-0.7,0-1.3,0.3-1.8,0.8c-0.5,0.5-0.7,1.3-0.7,2.2H157.5z"/>
		<path class="st1" d="M175.1,25.4h-3.4v-6.5c0-1.4-0.1-2.3-0.2-2.7c-0.1-0.4-0.4-0.7-0.7-0.9c-0.3-0.2-0.7-0.3-1.2-0.3
			c-0.6,0-1.1,0.2-1.6,0.5c-0.5,0.3-0.8,0.7-1,1.3c-0.2,0.5-0.3,1.5-0.3,2.9v5.8h-3.4V12.7h3.1v1.9c1.1-1.4,2.5-2.2,4.2-2.2
			c0.7,0,1.4,0.1,2,0.4c0.6,0.3,1.1,0.6,1.4,1c0.3,0.4,0.5,0.9,0.7,1.4c0.1,0.5,0.2,1.3,0.2,2.3V25.4z"/>
		<path class="st1" d="M189.6,16.4l-3.3,0.6c-0.1-0.7-0.4-1.2-0.8-1.5c-0.4-0.3-0.9-0.5-1.5-0.5c-0.8,0-1.5,0.3-2,0.9
			c-0.5,0.6-0.7,1.5-0.7,2.9c0,1.5,0.3,2.6,0.8,3.2c0.5,0.6,1.2,0.9,2,0.9c0.6,0,1.2-0.2,1.6-0.5c0.4-0.4,0.7-1,0.9-1.9l3.3,0.6
			c-0.3,1.5-1,2.7-2,3.4c-1,0.8-2.3,1.2-3.9,1.2c-1.9,0-3.3-0.6-4.4-1.8c-1.1-1.2-1.7-2.8-1.7-4.9c0-2.1,0.6-3.7,1.7-4.9
			c1.1-1.2,2.6-1.8,4.5-1.8c1.5,0,2.8,0.3,3.7,1C188.5,14.1,189.2,15.1,189.6,16.4z"/>
		<path class="st1" d="M195.5,7.9v6.4c1.1-1.3,2.4-1.9,3.9-1.9c0.8,0,1.5,0.1,2.1,0.4c0.6,0.3,1.1,0.7,1.4,1.1
			c0.3,0.4,0.5,0.9,0.6,1.5c0.1,0.5,0.2,1.4,0.2,2.5v7.5h-3.4v-6.7c0-1.3-0.1-2.2-0.2-2.5c-0.1-0.4-0.4-0.6-0.7-0.9
			c-0.3-0.2-0.7-0.3-1.2-0.3c-0.6,0-1.1,0.1-1.5,0.4c-0.4,0.3-0.8,0.7-1,1.2c-0.2,0.5-0.3,1.4-0.3,2.4v6.4h-3.4V7.9H195.5z"/>
	</g>
	<g>
		<path class="st0" d="M47,33.3h3.8c0.9,0,1.5,0.1,2,0.2c0.6,0.2,1.1,0.5,1.6,1c0.4,0.5,0.8,1,1,1.7c0.2,0.7,0.3,1.5,0.3,2.4
			c0,0.9-0.1,1.6-0.3,2.2c-0.3,0.8-0.6,1.4-1.1,1.8c-0.4,0.4-0.9,0.6-1.5,0.8c-0.5,0.1-1.1,0.2-1.8,0.2H47V33.3z M49.1,35.1v6.8h1.6
			c0.6,0,1,0,1.3-0.1c0.3-0.1,0.6-0.2,0.8-0.4c0.2-0.2,0.4-0.5,0.5-1c0.1-0.5,0.2-1.1,0.2-1.9c0-0.8-0.1-1.4-0.2-1.8
			c-0.1-0.4-0.3-0.8-0.6-1c-0.3-0.2-0.6-0.4-1-0.5c-0.3-0.1-0.9-0.1-1.7-0.1H49.1z"/>
		<path class="st0" d="M59.3,43.7h-2v-7.5h1.8v1.1c0.3-0.5,0.6-0.8,0.8-1c0.3-0.2,0.5-0.2,0.9-0.2c0.5,0,0.9,0.1,1.3,0.4l-0.6,1.7
			c-0.3-0.2-0.6-0.3-0.9-0.3c-0.3,0-0.5,0.1-0.7,0.2c-0.2,0.2-0.3,0.4-0.5,0.8c-0.1,0.4-0.2,1.2-0.2,2.5V43.7z"/>
		<path class="st0" d="M67.9,43.7v-1.1c-0.3,0.4-0.6,0.7-1.1,0.9c-0.4,0.2-0.9,0.3-1.4,0.3c-0.5,0-1-0.1-1.4-0.3
			c-0.4-0.2-0.7-0.5-0.9-0.9c-0.2-0.4-0.3-1-0.3-1.7v-4.7h2v3.4c0,1.1,0,1.7,0.1,1.9c0.1,0.2,0.2,0.4,0.4,0.6
			c0.2,0.1,0.4,0.2,0.7,0.2c0.3,0,0.6-0.1,0.9-0.3c0.3-0.2,0.5-0.4,0.5-0.7c0.1-0.3,0.1-0.9,0.1-2v-3.2h2v7.5H67.9z"/>
		<path class="st0" d="M71.6,44.1l2.3,0.3c0,0.3,0.1,0.4,0.3,0.5c0.2,0.1,0.5,0.2,0.9,0.2c0.5,0,0.9-0.1,1.2-0.2
			c0.2-0.1,0.3-0.3,0.4-0.5c0.1-0.2,0.1-0.5,0.1-0.9v-1.1c-0.6,0.8-1.3,1.2-2.2,1.2c-1,0-1.8-0.4-2.4-1.3c-0.5-0.7-0.7-1.5-0.7-2.5
			c0-1.3,0.3-2.2,0.9-2.9c0.6-0.7,1.4-1,2.3-1c0.9,0,1.7,0.4,2.3,1.2v-1.1h1.9v6.7c0,0.9-0.1,1.5-0.2,2c-0.1,0.4-0.4,0.8-0.6,1
			c-0.3,0.2-0.6,0.4-1.1,0.6c-0.4,0.1-1,0.2-1.7,0.2c-1.3,0-2.2-0.2-2.7-0.7c-0.5-0.4-0.8-1-0.8-1.7C71.6,44.3,71.6,44.2,71.6,44.1z
			 M73.4,39.8c0,0.8,0.2,1.4,0.5,1.7s0.7,0.6,1.1,0.6c0.5,0,0.9-0.2,1.2-0.6c0.3-0.4,0.5-0.9,0.5-1.7c0-0.8-0.2-1.4-0.5-1.7
			c-0.3-0.4-0.7-0.6-1.2-0.6c-0.5,0-0.9,0.2-1.2,0.6C73.6,38.4,73.4,39,73.4,39.8z"/>
		<path class="st0" d="M79.9,41.5l2-0.3c0.1,0.4,0.3,0.7,0.5,0.9c0.3,0.2,0.6,0.3,1.1,0.3c0.5,0,0.9-0.1,1.2-0.3
			c0.2-0.1,0.3-0.3,0.3-0.5c0-0.2,0-0.3-0.1-0.4c-0.1-0.1-0.3-0.2-0.7-0.3c-1.6-0.4-2.6-0.7-3-1c-0.6-0.4-0.9-1-0.9-1.7
			c0-0.6,0.3-1.2,0.8-1.6c0.5-0.4,1.3-0.7,2.4-0.7c1,0,1.8,0.2,2.3,0.5c0.5,0.3,0.8,0.8,1,1.5l-1.9,0.3c-0.1-0.3-0.2-0.5-0.5-0.7
			c-0.2-0.2-0.5-0.2-1-0.2c-0.5,0-0.9,0.1-1.1,0.2c-0.2,0.1-0.2,0.2-0.2,0.4c0,0.1,0.1,0.3,0.2,0.4c0.2,0.1,0.8,0.3,1.8,0.6
			c1.1,0.2,1.8,0.5,2.2,0.9c0.4,0.4,0.6,0.8,0.6,1.5c0,0.7-0.3,1.3-0.9,1.8c-0.6,0.5-1.4,0.7-2.5,0.7c-1,0-1.8-0.2-2.4-0.6
			C80.5,42.8,80.1,42.2,79.9,41.5z"/>
		<path class="st0" d="M101.8,42.4l-1.2,1.5c-0.6-0.3-1.2-0.7-1.7-1.2c-0.4,0.4-0.9,0.7-1.3,0.8c-0.5,0.2-1,0.3-1.7,0.3
			c-1.3,0-2.3-0.4-2.9-1.1c-0.5-0.6-0.8-1.2-0.8-1.9c0-0.7,0.2-1.3,0.6-1.8c0.4-0.5,1-1,1.8-1.4c-0.4-0.4-0.6-0.8-0.8-1.2
			c-0.2-0.4-0.3-0.7-0.3-1.1c0-0.6,0.3-1.2,0.8-1.6c0.5-0.4,1.2-0.7,2.1-0.7c0.9,0,1.6,0.2,2.1,0.7s0.8,1,0.8,1.7
			c0,0.4-0.1,0.8-0.4,1.2c-0.2,0.4-0.8,0.8-1.5,1.3l1.4,1.9c0.2-0.3,0.3-0.7,0.4-1.2l1.8,0.4c-0.2,0.6-0.3,1.1-0.5,1.4
			c-0.1,0.3-0.3,0.5-0.4,0.7c0.2,0.2,0.5,0.4,0.9,0.7C101.4,42.1,101.7,42.3,101.8,42.4z M95.7,38.9c-0.5,0.2-0.8,0.5-1,0.8
			c-0.2,0.3-0.3,0.7-0.3,1c0,0.4,0.1,0.8,0.4,1c0.3,0.3,0.7,0.4,1.1,0.4c0.3,0,0.6-0.1,0.9-0.2c0.3-0.1,0.6-0.3,0.9-0.6L95.7,38.9z
			 M96.4,36.8l0.5-0.4c0.4-0.3,0.6-0.6,0.6-0.9c0-0.3-0.1-0.5-0.3-0.6c-0.2-0.2-0.4-0.3-0.8-0.3c-0.3,0-0.6,0.1-0.7,0.2
			c-0.2,0.2-0.3,0.3-0.3,0.5c0,0.2,0.2,0.5,0.5,0.9L96.4,36.8z"/>
		<path class="st0" d="M107.1,43.7V33.3h2.1v10.3H107.1z"/>
		<path class="st0" d="M117.9,43.7h-2v-3.8c0-0.8,0-1.3-0.1-1.6c-0.1-0.2-0.2-0.4-0.4-0.6c-0.2-0.1-0.4-0.2-0.7-0.2
			c-0.3,0-0.7,0.1-0.9,0.3s-0.5,0.4-0.6,0.7c-0.1,0.3-0.2,0.9-0.2,1.7v3.4h-2v-7.5h1.8v1.1c0.7-0.8,1.5-1.3,2.5-1.3
			c0.4,0,0.8,0.1,1.2,0.2c0.4,0.2,0.6,0.4,0.8,0.6c0.2,0.2,0.3,0.5,0.4,0.8c0.1,0.3,0.1,0.8,0.1,1.3V43.7z"/>
		<path class="st0" d="M126.8,43.7H125v-1.1c-0.3,0.4-0.7,0.7-1.1,1c-0.4,0.2-0.8,0.3-1.3,0.3c-0.9,0-1.6-0.3-2.2-1
			c-0.6-0.7-0.9-1.7-0.9-2.9c0-1.3,0.3-2.2,0.9-2.9c0.6-0.7,1.4-1,2.3-1c0.8,0,1.6,0.3,2.2,1v-3.7h2V43.7z M121.5,39.7
			c0,0.8,0.1,1.4,0.3,1.7c0.3,0.5,0.8,0.8,1.3,0.8c0.5,0,0.8-0.2,1.2-0.6c0.3-0.4,0.5-1,0.5-1.7c0-0.9-0.2-1.5-0.5-1.9
			c-0.3-0.4-0.7-0.6-1.2-0.6c-0.5,0-0.9,0.2-1.2,0.6C121.7,38.4,121.5,39,121.5,39.7z"/>
		<path class="st0" d="M133.7,43.7v-1.1c-0.3,0.4-0.6,0.7-1.1,0.9c-0.4,0.2-0.9,0.3-1.4,0.3c-0.5,0-1-0.1-1.4-0.3
			c-0.4-0.2-0.7-0.5-0.9-0.9c-0.2-0.4-0.3-1-0.3-1.7v-4.7h2v3.4c0,1.1,0,1.7,0.1,1.9c0.1,0.2,0.2,0.4,0.4,0.6
			c0.2,0.1,0.4,0.2,0.7,0.2c0.3,0,0.6-0.1,0.9-0.3c0.3-0.2,0.5-0.4,0.5-0.7c0.1-0.3,0.1-0.9,0.1-2v-3.2h2v7.5H133.7z"/>
		<path class="st0" d="M136.9,41.5l2-0.3c0.1,0.4,0.3,0.7,0.5,0.9c0.3,0.2,0.6,0.3,1.1,0.3c0.5,0,0.9-0.1,1.2-0.3
			c0.2-0.1,0.3-0.3,0.3-0.5c0-0.2,0-0.3-0.1-0.4c-0.1-0.1-0.3-0.2-0.7-0.3c-1.6-0.4-2.6-0.7-3-1c-0.6-0.4-0.9-1-0.9-1.7
			c0-0.6,0.3-1.2,0.8-1.6c0.5-0.4,1.3-0.7,2.4-0.7c1,0,1.8,0.2,2.3,0.5c0.5,0.3,0.8,0.8,1,1.5l-1.9,0.3c-0.1-0.3-0.2-0.5-0.5-0.7
			s-0.5-0.2-1-0.2c-0.5,0-0.9,0.1-1.1,0.2c-0.2,0.1-0.2,0.2-0.2,0.4c0,0.1,0.1,0.3,0.2,0.4c0.2,0.1,0.8,0.3,1.8,0.6
			c1.1,0.2,1.8,0.5,2.2,0.9c0.4,0.4,0.6,0.8,0.6,1.5c0,0.7-0.3,1.3-0.9,1.8c-0.6,0.5-1.4,0.7-2.5,0.7c-1,0-1.8-0.2-2.4-0.6
			C137.5,42.8,137.1,42.2,136.9,41.5z"/>
		<path class="st0" d="M149,36.2v1.6h-1.4v3c0,0.6,0,1,0,1.1c0,0.1,0.1,0.2,0.2,0.3c0.1,0.1,0.2,0.1,0.3,0.1c0.2,0,0.4-0.1,0.8-0.2
			l0.2,1.5c-0.5,0.2-1,0.3-1.6,0.3c-0.4,0-0.7-0.1-1-0.2c-0.3-0.1-0.5-0.3-0.6-0.5c-0.1-0.2-0.2-0.4-0.3-0.8c0-0.2-0.1-0.7-0.1-1.4
			v-3.3h-0.9v-1.6h0.9v-1.5l2-1.2v2.6H149z"/>
		<path class="st0" d="M152.3,43.7h-2v-7.5h1.8v1.1c0.3-0.5,0.6-0.8,0.8-1c0.3-0.2,0.5-0.2,0.9-0.2c0.5,0,0.9,0.1,1.3,0.4l-0.6,1.7
			c-0.3-0.2-0.6-0.3-0.9-0.3c-0.3,0-0.5,0.1-0.7,0.2c-0.2,0.2-0.3,0.4-0.5,0.8c-0.1,0.4-0.2,1.2-0.2,2.5V43.7z"/>
		<path class="st0" d="M156,35.2v-1.8h2v1.8H156z M156,43.7v-7.5h2v7.5H156z"/>
		<path class="st0" d="M164.4,41.3l2,0.3c-0.3,0.7-0.7,1.3-1.2,1.7c-0.5,0.4-1.2,0.6-2.1,0.6c-1.3,0-2.3-0.4-2.9-1.3
			c-0.5-0.7-0.7-1.5-0.7-2.6c0-1.2,0.3-2.2,1-2.9c0.6-0.7,1.5-1.1,2.5-1.1c1.1,0,2,0.4,2.6,1.1c0.6,0.7,1,1.9,0.9,3.4h-5
			c0,0.6,0.2,1,0.5,1.4c0.3,0.3,0.7,0.5,1.1,0.5c0.3,0,0.6-0.1,0.8-0.3C164.1,41.9,164.3,41.6,164.4,41.3z M164.5,39.3
			c0-0.6-0.2-1-0.4-1.3c-0.3-0.3-0.6-0.4-1-0.4c-0.4,0-0.8,0.2-1.1,0.5c-0.3,0.3-0.4,0.7-0.4,1.3H164.5z"/>
		<path class="st0" d="M167.4,41.5l2-0.3c0.1,0.4,0.3,0.7,0.5,0.9c0.3,0.2,0.6,0.3,1.1,0.3c0.5,0,0.9-0.1,1.2-0.3
			c0.2-0.1,0.3-0.3,0.3-0.5c0-0.2,0-0.3-0.1-0.4c-0.1-0.1-0.3-0.2-0.7-0.3c-1.6-0.4-2.6-0.7-3-1c-0.6-0.4-0.9-1-0.9-1.7
			c0-0.6,0.3-1.2,0.8-1.6c0.5-0.4,1.3-0.7,2.4-0.7c1,0,1.8,0.2,2.3,0.5c0.5,0.3,0.8,0.8,1,1.5l-1.9,0.3c-0.1-0.3-0.2-0.5-0.5-0.7
			s-0.5-0.2-1-0.2c-0.5,0-0.9,0.1-1.1,0.2c-0.2,0.1-0.2,0.2-0.2,0.4c0,0.1,0.1,0.3,0.2,0.4c0.2,0.1,0.8,0.3,1.8,0.6
			c1.1,0.2,1.8,0.5,2.2,0.9c0.4,0.4,0.6,0.8,0.6,1.5c0,0.7-0.3,1.3-0.9,1.8c-0.6,0.5-1.4,0.7-2.5,0.7c-1,0-1.8-0.2-2.4-0.6
			C167.9,42.8,167.6,42.2,167.4,41.5z"/>
		<path class="st0" d="M180.2,43.7V33.4h2.1v8.5h5.2v1.7H180.2z"/>
		<path class="st0" d="M192.4,36.2v1.6H191v3c0,0.6,0,1,0,1.1c0,0.1,0.1,0.2,0.2,0.3c0.1,0.1,0.2,0.1,0.3,0.1c0.2,0,0.4-0.1,0.8-0.2
			l0.2,1.5c-0.5,0.2-1,0.3-1.6,0.3c-0.4,0-0.7-0.1-1-0.2c-0.3-0.1-0.5-0.3-0.6-0.5c-0.1-0.2-0.2-0.4-0.3-0.8c0-0.2-0.1-0.7-0.1-1.4
			v-3.3h-0.9v-1.6h0.9v-1.5l2-1.2v2.6H192.4z"/>
		<path class="st0" d="M200.6,43.7h-1.8v-1.1c-0.3,0.4-0.7,0.7-1.1,1c-0.4,0.2-0.8,0.3-1.3,0.3c-0.9,0-1.6-0.3-2.2-1
			c-0.6-0.7-0.9-1.7-0.9-2.9c0-1.3,0.3-2.2,0.9-2.9c0.6-0.7,1.4-1,2.3-1c0.8,0,1.6,0.3,2.2,1v-3.7h2V43.7z M195.3,39.7
			c0,0.8,0.1,1.4,0.3,1.7c0.3,0.5,0.8,0.8,1.3,0.8c0.5,0,0.8-0.2,1.2-0.6c0.3-0.4,0.5-1,0.5-1.7c0-0.9-0.2-1.5-0.5-1.9
			c-0.3-0.4-0.7-0.6-1.2-0.6c-0.5,0-0.9,0.2-1.2,0.6C195.5,38.4,195.3,39,195.3,39.7z"/>
		<path class="st0" d="M202.5,43.7v-2h2v2H202.5z"/>
	</g>
	<g>
	</g>
</g>
<g>
</g>
<g>
</g>
<g>
</g>
<g>
</g>
<g>
</g>
<g>
</g>
</svg>
