<?xml version="1.0" encoding="utf-8"?>
<!-- Generator: Adobe Illustrator 27.9.0, SVG Export Plug-In . SVG Version: 6.00 Build 0)  -->
<svg version="1.1" id="Layer_1" xmlns="http://www.w3.org/2000/svg" xmlns:xlink="http://www.w3.org/1999/xlink" x="0px" y="0px"
	 viewBox="0 0 3026 664" style="enable-background:new 0 0 3026 664;" xml:space="preserve">
<style type="text/css">
	.st0{clip-path:url(#SVGID_00000031903611542599932070000004065479390711302823_);}
	.st1{fill:#9038DB;}
	.st2{fill:#256DDA;}
	.st3{fill:#FD9438;}
	.st4{fill:#FF5555;}
	.st5{fill:#FDC227;}
	.st6{fill:#00C1B5;}
	.st7{fill:#5525B5;}
</style>
<g>
	<defs>
		<path id="SVGID_1_" d="M2629.3,304.8c-0.2-35.9,29-63.2,61.7-62.7c32.5-0.6,61.8,26.4,61.9,62.1c0.1,36.3-29.5,62.7-61.8,62.8
			C2659,367.1,2629.5,340.9,2629.3,304.8z M2595.5,167.4c1.4,9,2.2,18.1,2.2,27.2V416v0v226.3c0,3.1-0.2,6.2-1.3,9.2
			c-4,11.1-18.7,16.7-29.1,7.2c-4.5-4.1-9.1-8.2-13.6-12.2l0,0l0,0c-10.8-9.7-21.7-19.5-32.4-29.3c-44.7-41.1-88.6-83-131.6-125.7
			c-35.9-35.7-71.4-71.8-104.8-109.8c-12.3-14-24.4-28.2-34.8-43.7c-19.1-28.6-31.6-59.7-36.6-93.7c-11.6-78,24-152.8,90.9-193.5
			c23.1-14.1,48.2-23.1,74.9-27.8c19-3.4,38.2-4.4,57.3-2.8c42.8,3.5,79.9,20.1,110.2,50.7C2573.3,97.7,2589.6,130,2595.5,167.4z
			 M2560,436.5c-0.2-18.8-15-33.9-33.6-33.8c-18.3,0.1-33.2,15.2-33.3,33.8c-0.1,19.2,16.2,34.4,33.6,33.7v0
			C2544.9,470.6,2560.2,454.6,2560,436.5z M2776.9,207.2c52.4-14.6,84.6-66.3,75.3-120c-7.5-43.7-42.3-78.5-85.3-85.7
			c-0.8-0.1-1.6-0.2-2.4-0.2c-1.9-0.1-3.8-0.1-5.4-1.4h-18.8c-0.7,0.7-1.7,0.9-2.6,1c-8.1,0.6-15.8,2.6-23.4,5.4
			c-40.3,14.6-66.5,52.2-68.8,92.4c-1.2,21.6,3.3,41.8,14.2,60.6C2684,200.7,2732.1,219.8,2776.9,207.2z M2890.4,208.8
			c-6.9-0.1-15.8,1-24.5,3.2c-54.3,13.8-91,68-80.2,126.8c8.5,46.4,46.3,84.3,97.1,89.1c18.9,1.8,37.2-1.3,54.5-9.3
			c45.7-21.2,70.9-70.1,62.1-119.7C2990.3,247.6,2945.4,208.4,2890.4,208.8z M2654.3,598.7L2654.3,598.7
			c-14.7-0.5-28,11.5-28.1,27.8c-0.1,18.3,15,28.4,27.4,28.5c14.1,0.2,28.2-11.2,28.3-28.1C2682,610.7,2668.7,598.3,2654.3,598.7z
			 M2968.8,72.9c-30.9-0.3-57.2,24.3-57.3,57.3c-0.1,34.2,28,58,56.7,57.4c28.6,0.7,56.6-22.8,56.9-56.8
			C3025.4,98.1,2999.6,73.2,2968.8,72.9z M2813.5,466.3c-14-41.6-58.2-65-99.9-52.8c-50.1,14.7-74,71.8-49.5,118.3
			c17.5,33.1,54.6,49.6,89.8,41.7c36.9-8.3,64.3-42,63.8-80.8h0C2817.7,483.3,2816.4,474.9,2813.5,466.3z"/>
	</defs>
	<clipPath id="SVGID_00000081634989558158825780000008588016450245156253_">
		<use xlink:href="#SVGID_1_"  style="overflow:visible;"/>
	</clipPath>
	<g style="clip-path:url(#SVGID_00000081634989558158825780000008588016450245156253_);">
		<path class="st1" d="M2211.3,548.3c549.1,58.1,683.6-83,817-465.3l8.8,580.8h-825.9V548.3z"/>
		<path class="st2" d="M2256.4,443.7c411.4,56.2,514-23.4,761.1-344.5l5.4,7.2c-151.5,441.9-370.1,481.9-809.8,492.4L2256.4,443.7z"
			/>
		<path class="st3" d="M2265.4,61.3c198.4,151.5,483.4,68.5,752.1-5.4v9c-194.8,147.9-490.6,308.4-822.5,117.2L2265.4,61.3z"/>
		<path class="st4" d="M2249.1-83l752.1-48.7l12.6,88.4c-119,205.6-640.3,358.9-777.4,72.1L2249.1-83z"/>
		<path class="st5" d="M3013.9,88.4l-10.8-14.4c-248.9,199.1-568.2,250.7-804.4,108.2l1.8,149.7
			C2555.8,456.3,2790.2,261.5,3013.9,88.4z"/>
		<path class="st6" d="M2196.8,317.4c346.3,97.4,519.4,5.4,813.4-227.3l7.2,9c-198.4,257.9-299.4,409.4-726.9,371.5L2196.8,317.4z"
			/>
	</g>
</g>
<path class="st7" d="M0,258.5c1-0.6,1.4-1.5,1.9-2.6c2-4.3,5.4-6.2,10.1-6.2c6.5,0,13.1,0,19.6,0c24.1,0,48.2-0.5,72.3,0.2
	c33.1,0.9,64,9.4,91.1,29c27.5,19.8,44.8,46.7,54,78.9c6.1,21.3,8,43.2,6.9,65.3c-1,19.4-4.2,38.3-11.2,56.5
	c-17.9,46.1-51.2,75.2-98.7,88.5c-15.8,4.4-32.1,6.2-48.4,6.3c-27.9,0.2-55.8,0.1-83.8,0c-1.3,0-2.7-0.1-4.1-0.2
	c-3.5-0.5-6-2.3-7.6-5.4c-0.6-1.1-0.8-2.3-2.1-2.9V258.5z M62.8,412.2c0,32.8,0,65.5,0,98.3c0,6.8-0.4,6,6.2,6.1
	c8.9,0,17.7,0,26.6,0c6.3,0,12.5-0.5,18.7-1.6c38.1-6.8,62.5-28.8,73.1-65.9c6-21.1,6.2-42.7,2.2-64.2c-2.6-14-7.5-27.2-15.7-39
	c-17.2-24.5-41.6-35.9-70.9-37.7c-11.5-0.7-23.1-0.2-34.7-0.2c-5.7,0-5.5-0.5-5.5,5.6C62.7,346.4,62.7,379.3,62.8,412.2L62.8,412.2z
	"/>
<path class="st7" d="M568.5,412.2c0-49.5,0-98.9,0-148.4c0-2-0.1-4.1,0.4-6.1c1.2-4.5,4.7-7.5,9.3-7.8c0.8-0.1,1.6,0,2.4,0
	c38.1,0,76.3-0.1,114.4,0c14.4,0,28.5,2.4,41.8,7.9c31.8,13.2,50.7,37.1,57.3,70.6c3.7,18.7,2.9,37.4-3.6,55.5
	c-9.9,27.7-29.5,45.7-56.9,55.7c-1.4,0.5-2.8,1.1-4.2,1.5c-1.4,0.4-1.6,1.3-1,2.5c0.4,0.9,0.8,1.7,1.3,2.6
	c20.3,39.1,40.5,78.2,60.8,117.2c0.7,1.3,1.3,2.7,1.7,4.1c0.9,3.7-0.7,6.2-4.3,6.9c-1.5,0.3-3,0.3-4.5,0.3c-14.2,0-28.3-0.1-42.5,0
	c-9,0.1-15.3-3.9-19.3-11.8c-16.5-32.7-33.1-65.5-49.6-98.2c-2.2-4.2-4.4-8.4-6.4-12.7c-0.9-2-2.2-2.8-4.4-2.7
	c-8.9,0.1-17.7,0-26.6,0c-3.8,0-3.8,0.1-3.8,4c0,13.1,0,26.1,0,39.2c0,23.4,0,46.8,0,70.1c0,1.6,0.1,3.3-0.4,4.9
	c-1.4,4.6-5.1,7.2-10.6,7.3c-6.8,0.1-13.6,0-20.4,0c-6.3,0-12.5,0-18.8,0c-8.3-0.1-12-3.8-12.1-12c-0.1-7.7,0-15.5,0-23.2
	C568.5,497,568.5,454.6,568.5,412.2L568.5,412.2z M630.9,349.7c0,13.5,0,26.9,0,40.3c0,0.9,0,1.9,0,2.8c-0.1,1.7,0.9,2.4,2.5,2.5
	c0.8,0,1.6,0,2.4,0.1c15,0,29.9,0.1,44.9,0c6.4,0,12.8-0.5,19-2.2c16-4.4,27.2-13.9,31.7-30.3c1.8-6.5,2.1-13.1,1.2-19.8
	c-1.8-14.6-8.8-25.8-21.9-32.8c-8.6-4.6-17.9-6.3-27.5-6.3c-15.8-0.1-31.6,0-47.4,0c-0.9,0-1.9,0-2.9,0.1c-1.3,0-2,0.7-2.1,2
	c0,1.1-0.1,2.2-0.1,3.3C630.8,322.8,630.8,336.3,630.9,349.7L630.9,349.7z"/>
<path class="st7" d="M1504.1,370.4c0.9-2.2,0.7-3.9,0.7-5.7c0-35.7,0-71.5,0-107.2c0-1.9,0-3.8,0.2-5.7c0.6-5,4.1-8.5,9.2-8.6
	c6.5-0.2,13.1-0.1,19.6-0.1c6.4,0,12.8,0.2,19.2,0c6.7-0.2,10.7,5.2,10.5,10.5c0,1.2,0,2.4,0,3.7c0,101,0,202,0,303
	c0,1.1,0,2.2,0,3.3c-0.1,6.9-4,11.1-10.8,11.1c-12.7,0.2-25.3,0.1-38,0c-5,0-6.6-1.9-7.1-6.9c-0.5-4.9-0.9-9.7-1-14.6
	c0-1.2,0.1-2.4-0.8-3.4c-1,0-1.3,0.7-1.6,1.2c-9.3,14.1-22.8,22.5-38.9,26.4c-38.7,9.2-83.1-4.8-108.7-41.7
	c-11.9-17.1-18.5-36.1-20.8-56.8c-2.5-21.6-0.7-42.9,6.8-63.4c9.3-25.4,25-45.6,49-58.9c13.2-7.3,27.3-11.3,42.4-12.2
	c12.2-0.7,24.2,0,36,3.2c13.4,3.7,24.9,10.1,33,21.8C1503,369.6,1503.4,369.8,1504.1,370.4L1504.1,370.4z M1505.9,459
	c0.1-3.9-0.6-9.9-1.8-15.7c-2.5-12-7.5-22.7-16.5-31.2c-10.7-10.2-23.7-14.6-38.4-14.2c-21.1,0.6-37.2,10-46.8,28.8
	c-9.8,19.2-10.4,39.5-4.3,59.9c7,23.4,22.9,37.2,47.6,39.5c20,1.9,40.3-6.7,51.7-28C1503.7,486.5,1505.8,474,1505.9,459L1505.9,459z
	"/>
<path class="st7" d="M1237.2,549.6c-1.1,0-1.4,0.7-1.8,1.3c-9.4,14.1-22.8,22.5-38.9,26.3c-37.9,9-81.6-4.2-107.5-40
	c-10.9-15.2-17.8-32-20.9-50.4c-4.3-25.5-2.7-50.7,7-74.9c9.6-24.2,25.2-43.3,48.3-55.9c13-7,26.9-10.9,41.6-11.8
	c14.1-0.8,28,0.2,41.4,4.9c11.2,3.9,20.8,10.1,27.5,20.1c0.3,0.5,0.7,0.9,1.5,1c1-1.3,0.5-3,0.5-4.5c0-27.6,0-55.2,0-82.8
	c0-9.5,0-19,0-28.5c0-1.6-0.1-3.3,0.5-4.8c1.5-4,4.7-6.4,9.4-6.5c12.9-0.1,25.9,0,38.8,0c0.1,0,0.3,0,0.4,0c5.4,0.3,9.1,4,9.4,9.4
	c0.1,1.2,0,2.4,0,3.7c0,101.8,0,203.6,0,305.4c0,0.7,0,1.4,0,2c-0.1,7-3.8,11-10.8,11c-12.5,0.2-25.1,0.1-37.6,0
	c-5.1,0-6.9-1.6-7.4-6.6c-0.5-4.6-0.7-9.2-1-13.8C1237.6,552.6,1238,551.1,1237.2,549.6L1237.2,549.6z M1237.1,460.3
	c0.2-5.2-0.5-11.4-1.8-17.6c-6.2-28.9-27.7-45.8-55.3-44.9c-21.8,0.8-38,11-47.2,30.7c-9.2,19.6-9.3,40.1-2.5,60.4
	c7.6,22.4,23.6,35.2,47.3,37.1c20.2,1.6,39.9-7.2,51-27.8C1234.8,486.7,1237.2,474.3,1237.1,460.3L1237.1,460.3z"/>
<path class="st7" d="M946.5,477.7c-24,0-47.9,0-71.9,0c-4.7,0-4.9,0-4.2,4.8c2.3,17.5,11.4,30.6,26.5,39.5c8.6,5.1,17.9,7.6,28,7.8
	c6.6,0.1,13.1-0.2,19.4-2c13.1-3.7,23-11.4,29.6-23.3c3.6-6.6,6.9-8,14-5.8c10,3,20,6,30,9.1c6.8,2.1,8.6,5.9,5.9,12.4
	c-12.4,29.1-33.9,48.2-64.3,56.8c-26.3,7.4-52.5,6.2-78-4.1c-28.8-11.7-49.4-32.1-60.7-61c-13.3-34.1-13.5-68.7,1-102.4
	c14.8-34.3,40.8-56,77.4-64.5c11.9-2.7,24-2.6,36.1-1.5c10.8,1,21.2,3.2,31.3,7.2c26.6,10.4,44.7,29.3,55.1,55.7
	c5.8,14.8,8.4,30.3,8.9,46.2c0.1,4.6,0.1,9.2,0,13.9c-0.2,7.6-4.1,11.5-11.7,11.5C994.8,477.7,970.7,477.7,946.5,477.7L946.5,477.7z
	 M921.6,436.6c15,0,29.9,0,44.9,0c1.1,0,2.2,0,3.3,0c1.8,0,2.4-0.9,2.2-2.6c-0.2-1.6-0.4-3.2-0.7-4.8c-2.9-15.7-11.2-27.2-26.1-33.5
	c-10.2-4.3-21-5.4-32-3.7c-19.6,3.2-32.7,14.2-39.6,32.7c-1.1,2.9-1.6,6-2.1,9.1c-0.3,1.9,0.4,2.8,2.4,2.8c1.1,0,2.2,0,3.3,0
	C892,436.6,906.8,436.6,921.6,436.6z"/>
<path class="st7" d="M1718.9,480.8c1.5-0.7,1.6-2.2,2.1-3.4c16-38.4,32-76.7,47.9-115.1c2.7-6.5,7.5-10.5,14.1-12.5
	c1.5-0.4,2.9-0.5,4.4-0.5c13.4,0,26.7,0,40.1,0c0.8,0,1.6,0,2.4,0c3.6,0.4,5.4,2.8,4.6,6.3c-0.3,1.7-1,3.4-1.8,5
	c-14.7,33-29.4,66-44.1,99c-28.4,63.8-56.9,127.5-85.3,191.3c-2.8,6.4-7.3,10.6-14.1,12.4c-1.6,0.4-3.2,0.4-4.9,0.4
	c-12.5,0-25.1,0-37.6,0c-8.5,0-10.7-3.4-7.1-11.3c9.1-20.5,18.3-40.9,27.5-61.4c6.1-13.6,12.2-27.3,18.4-40.9c1.2-2.6,1.2-4.7,0-7.3
	c-19.2-39.6-38.2-79.3-57.3-119c-10.2-21.3-20.5-42.6-30.8-63.9c-0.6-1.2-1.2-2.5-1.5-3.8c-0.9-3.8,1-6.4,4.9-6.8
	c0.9-0.1,1.9,0,2.8,0c13.9,0,27.8,0,41.7,0c9.2,0,15.6,4.3,19.3,12.5c17.3,38.3,34.5,76.5,51.7,114.8
	C1717.1,478.1,1717.4,479.8,1718.9,480.8L1718.9,480.8z"/>
<path class="st7" d="M1997.1,581.4c-16.5-0.1-32.5-2.6-47.6-9.7c-20.4-9.7-34.5-25.1-41.7-46.7c-0.7-1.9-1.3-3.9-1.1-6
	c0.5-4.4,3.4-7.8,7.9-8.8c12-2.8,24.1-5.4,36.2-8.1c3.2-0.7,5,0.5,5.9,4c1.6,6.4,4.4,12.3,9,17.1c7.2,7.6,16.3,11,26.6,11.9
	c6.1,0.5,12.3,0.3,18.2-1.7c8.4-2.8,14.5-7.9,16.3-17c1.5-8-1-14.5-7.4-19.4c-4-3.2-8.7-5-13.6-6.2c-12.5-3-25.1-5.9-37.7-9
	c-10.7-2.6-20.7-6.8-29.7-13.1c-19.6-13.7-28.6-32.7-27.2-56.3c1.6-26.9,15.7-46,38.7-59c12.8-7.2,26.7-10.5,41.4-10.8
	c15.4-0.3,30.4,1.5,44.7,7.4c20.4,8.5,34.7,22.9,42.2,43.9c0.6,1.7,1.2,3.3,1.2,5.1c0.1,4.8-2.7,8.9-7.3,10
	c-10.6,2.5-21.2,5-31.8,7.3c-4.7,1-7.9-0.6-10.2-4.8c-0.5-1-0.9-2-1.3-3c-5.2-11.4-14.2-17.8-26.5-19.8c-7.9-1.3-15.5-0.7-22.7,2.6
	c-4,1.8-7.5,4.4-10.1,8c-6.9,9.4-4.6,21.8,5.3,28c3.6,2.3,7.7,3.4,11.8,4.4c13.4,3,26.9,5.4,40.2,9c15.1,4.1,28.8,10.9,39.7,22.3
	c13.2,13.7,18.7,30.3,17.5,49.2c-1.9,30.7-22.9,57.2-58,65.9C2016.4,580.4,2006.9,581.5,1997.1,581.4L1997.1,581.4z"/>
<path class="st7" d="M354.7,381.4c1.2-0.4,1.4-1.2,1.8-1.9c7.8-14.5,20-23.4,35.5-28.1c11.6-3.5,23.5-4.5,35.5-3.2
	c4.1,0.4,4.2,0.6,4.2,4.7c0,14,0,28,0,42c0,3.8-0.1,7.6,0,11.4c0,2-0.6,2.7-2.7,2.3c-6.5-1.1-13-1.1-19.5-1
	c-9.7,0.2-18.8,2.5-27.3,7.2c-10.2,5.6-16.9,14.3-21.1,25c-2.9,7.5-4.5,15.4-4.8,23.4c-0.7,15.3-0.3,30.7-0.4,46.1
	c-0.1,16.7,0,33.4,0,50.1c0,1.1,0,2.2,0,3.3c0.4,7.6-4.1,12-11.7,11.9c-12,0-24,0-36,0c-2.3,0-4.6-0.2-6.7-1.4
	c-3.2-1.8-4.8-4.7-5.2-8.3c-0.1-1.2,0-2.4,0-3.7c0-66,0.1-132.1-0.1-198.1c0-9.2,4.2-14.2,13.7-13.8c10.9,0.4,21.8,0.1,32.7,0.1
	c7.5,0,11.3,3.7,11.4,11.2c0,5.7,0,11.4,0,17.1C353.9,378.9,353.6,380.2,354.7,381.4L354.7,381.4z"/>
<path class="st7" d="M1878.8,362.7c-3.1,0-6.3,0.1-9.4,0c-3.6-0.1-4.9-2.1-3.7-5.4c1.1-2.8,2.4-5.5,3.6-8.2
	c4.9-11.1,9.8-22.1,14.6-33.1c1.4-3.3,1.4-3.3-2-4.5c-15.7-5.9-25.1-19.6-24.6-36.1c0.5-16.4,12.8-32.9,32.5-35.1
	c18.8-2.1,36.1,10.8,39.8,28.8c1.7,8.4,0.8,16.4-3.1,24.2c-10.8,21.5-21.5,43-32.1,64.6c-1.8,3.6-4.3,5.4-8.3,5.1
	C1883.7,362.6,1881.2,362.7,1878.8,362.7L1878.8,362.7z"/>
<path class="st7" d="M461.6,577.6c-22.5,0-40.7-18.4-40.8-41.2c-0.1-23.5,19.3-41.5,40.9-41.5c22.1,0,41.5,18.3,41.3,41.6
	C502.8,559.4,484.5,577.7,461.6,577.6z"/>
</svg>
