<svg xmlns="http://www.w3.org/2000/svg" xmlns:xlink="http://www.w3.org/1999/xlink" id="Layer_1" x="0px" y="0px" viewBox="0 0 1004 249" style="enable-background:new 0 0 1004 249;" xml:space="preserve"><style type="text/css">	.st0{fill:#FFFFFF;}	.st1{fill:#5A70CF;}</style><g>	<g>		<g>			<g>				<g>					<path class="st1" d="M134.8,116L134.8,116L134.8,116h0.5v0c6.8-0.2,12.2-5.8,12.2-12.6c0-6.9-5.7-12.6-12.6-12.6c0,0,0,0,0,0      c0,0,0,0,0,0c0,0,0,0,0,0h-16.4V74.5l0,0c0,0,0,0,0,0c0-6.9-5.7-12.6-12.6-12.6c-7,0-12.6,5.6-12.6,12.6l0,0c0,0,0,0,0,0      c0,0,0,0,0,0V116l20.8,0H134.8z"></path>					<g>						<path class="st1" d="M99.9,145.8c1.9,0,3.6-0.7,4.9-2c1.3-1.3,2-3,2-4.8c0-1.8-0.7-3.5-2-4.8c-1.3-1.3-3.1-2-4.9-2       c-1.9,0-3.6,0.7-4.9,2c-1.3,1.3-2,3-2,4.8c0,1.8,0.7,3.5,2,4.8C96.3,145.1,98,145.8,99.9,145.8z"></path>						<path class="st1" d="M140.5,173c-1.9,0-3.6,0.7-4.9,2c-2.7,2.6-2.7,6.9,0,9.5c1.3,1.3,3.1,2,4.9,2c1.9,0,3.6-0.7,4.9-2       c2.7-2.6,2.7-6.9,0-9.5C144.1,173.7,142.3,173,140.5,173z"></path>						<path class="st1" d="M100.1,151.7c-0.4,0.1-0.9,0.3-1.3,0.4c-1.3,0.4-2.7,0.7-3.9,1.8c-2.7,2.6-2.7,6.9,0,9.5       c1.3,1.3,3.1,2,4.9,2s3.6-0.7,4.9-2c1.2-1.1,1.5-2.5,1.8-3.9c0.3-1.3,0.8-2.6,1.7-4c1.4-2.3,3.1-4.3,5.1-6       c1.9-1.6,3.9-3.2,6.3-3.7c0.3-0.1,0.6-0.1,1-0.2c1-0.2,2.1-0.3,3-0.9c1.1-0.6,1.9-1.6,2.5-2.7c1.2-2.3,1-5.1-0.6-7.1       c-0.2-0.2-0.4-0.5-0.6-0.7c-1.3-1.3-3.1-2-4.9-2c-1.9,0-3.6,0.7-4.9,2c-0.8,0.8-1.4,1.7-1.7,2.7c-0.6,2.1-1.4,4.3-3,6.4       c-1.5,2-3.4,3.9-5.6,5.6C103.4,150.3,101.7,151.2,100.1,151.7z"></path>						<path class="st1" d="M141.9,166.5c1.5-0.3,2.7-0.8,3.6-1.6c2.7-2.6,2.7-6.9,0-9.5c-1.3-1.3-3.1-2-4.9-2c-1.9,0-3.6,0.7-4.9,2       c-1.2,1.1-1.7,2.6-2.1,4.1c-0.5,1.6-1,2.8-1.8,4c-1.2,1.8-2.6,3.4-4.1,4.7c-1.6,1.5-3.3,2.8-5,3.7c-0.7,0.4-1.5,0.8-2.2,1       c-0.3,0.1-0.7,0.1-1.1,0.2c-0.4,0.1-0.9,0.1-1.4,0.3c-1,0.3-1.9,0.9-2.7,1.6c-2.7,2.6-2.7,6.9,0,9.5c1.3,1.3,3.1,2,4.9,2       c0,0,0,0,0,0c1.9,0,3.6-0.7,4.9-2c0.8-0.8,1.4-1.7,1.7-2.7c0.1-0.5,0.2-1,0.3-1.4c0.2-0.7,0.3-1.4,0.6-2.1       c1.2-2.5,2.9-4.8,5.1-6.8c1.9-1.8,3.8-3.1,5.7-3.9C139.5,167.1,140.6,166.7,141.9,166.5z"></path>						<path class="st1" d="M120.6,165.9c1.6-0.4,3.2-0.7,4.5-1.9c1.1-1.1,1.4-2.4,1.7-3.6c0.1-0.3,0.1-0.6,0.2-0.9       c0.5-1.7,1.4-3.1,2.5-4.7c1-1.4,1.9-2.5,2.9-3.5c2-2,3.8-3.3,5.6-4.1c1.1-0.5,2.2-0.8,3.4-0.9c1.6-0.2,2.9-0.8,4-1.8       c2.7-2.6,2.7-6.9,0-9.5c-1.3-1.3-3.1-2-4.9-2c-1.9,0-3.6,0.7-4.9,2c-0.5,0.5-1.5,1.6-1.7,2.9c-0.1,0.3-0.1,0.6-0.2,0.8       c-0.1,0.7-0.2,1.4-0.5,2c-0.3,0.7-0.8,1.3-1.3,2c-0.2,0.2-0.3,0.4-0.5,0.7c-0.9,1.2-1.8,2.4-2.9,3.5c-1.2,1.3-2.7,2.5-4.4,3.7       c-0.9,0.6-1.9,1.3-3,1.8c-0.5,0.2-1.1,0.4-1.6,0.5c-0.2,0-0.3,0-0.5,0.1c-0.4,0-0.8,0.1-1.2,0.2c-1,0.3-1.9,0.9-2.6,1.6       c-1.2,1.2-1.6,2.4-1.9,3.8c-0.7,3.3-3.4,6.3-5.4,8.3c-1.5,1.5-3.1,2.8-4.7,3.8c-0.9,0.5-1.7,1.1-2.7,1.5       c-0.4,0.2-0.8,0.2-1.3,0.3c-0.5,0.1-0.9,0.1-1.4,0.3c-1.1,0.3-2.1,0.9-2.8,1.7c-1.3,1.3-2,3-2,4.8c0,1.8,0.7,3.5,2,4.8       c1.3,1.3,3.1,2,4.9,2c1.9,0,3.6-0.7,4.9-2c1-1,1.6-2.1,1.9-3.6c0.4-1.8,0.7-3.2,1.7-4.6c1-1.6,2.4-3,3.7-4.3       c2.1-2,4-3.4,6-4.3C118.8,166.3,119.7,166.1,120.6,165.9z"></path>					</g>					<path class="st1" d="M59.3,132.2H30.8c-4.8,0-8.7,3.9-8.7,8.6v0c0,4.8,3.9,8.6,8.7,8.6H47l-19.8,19.7l-2.5,2.5      c-3.4,3.4-3.4,8.9,0,12.2c3.4,3.4,8.9,3.4,12.3,0l2.5-2.5l19.8-19.7v16.1c0,4.8,3.9,8.6,8.7,8.6s8.7-3.9,8.7-8.6v-28.3v-17.3      H59.3z"></path>					<g>						<path class="st1" d="M76.7,116.1H22.3v0c0-13.8,11.2-25,25-25h4.3C65.5,91.1,76.7,102.3,76.7,116.1L76.7,116.1z"></path>						<ellipse class="st1" cx="49.5" cy="74.1" rx="12.3" ry="12.3"></ellipse>					</g>				</g>				<g>					<rect x="173.3" y="59.7" class="st1" width="3.8" height="129.6"></rect>				</g>				<g>					<path class="st1" d="M222.7,61.8L222.7,61.8c9.5,0,17.2,7.7,17.2,17.1v76.5h45.1c8.3,0,15.1,6.7,15.1,15v0      c0,8.3-6.8,15-15.1,15h-79.6V79C205.5,69.5,213.2,61.8,222.7,61.8z"></path>					<path class="st1" d="M333.2,61.8L333.2,61.8c9.5,0,17.2,7.7,17.2,17.1v89.4c0,9.5-7.7,17.1-17.2,17.1h0      c-9.5,0-17.2-7.7-17.2-17.1V79C316,69.5,323.7,61.8,333.2,61.8z"></path>					<path class="st1" d="M389.4,61.8L389.4,61.8c7.4,0,14,4.6,16.5,11.6l24.1,66.7l24.3-67c2.5-6.8,9-11.3,16.2-11.3h0      c12.2,0,20.6,12.3,16,23.6l-34.9,86.3c-3.6,8.9-12.3,14.7-21.9,14.7h0c-9.7,0-18.4-5.8-22-14.8l-34.6-85.8      C368.5,74.4,377,61.8,389.4,61.8z"></path>					<path class="st1" d="M508.2,61.8h85.4c8,0,14.6,6.5,14.6,14.5v0c0,8-6.5,14.5-14.6,14.5h-51.3v18.9h46.1      c7.5,0,13.6,6.1,13.6,13.5v0c0,7.5-6.1,13.5-13.6,13.5h-46.1v19.6h52.1c8.1,0,14.7,6.5,14.7,14.6v0c0,8.1-6.6,14.6-14.7,14.6      h-86.2V61.8z"></path>					<path class="st1" d="M686.5,61L686.5,61c10.1,0,19.1,6,23.1,15.2l36.6,86.1c4.7,11.1-3.5,23.4-15.6,23.4l0,0      c-6.9,0-13.1-4.2-15.7-10.6l-4.7-11.7h-48.1l-4.7,11.9c-2.5,6.3-8.6,10.4-15.3,10.4h0c-11.8,0-19.8-12-15.2-22.8l36.7-86.6      C667.3,67,676.4,61,686.5,61z M700.1,136.6l-13.9-35l-14,35H700.1z"></path>					<path class="st1" d="M767.5,154.7L767.5,154.7c4.6-5.5,12.6-7,18.9-3.5c9.5,5.3,19.6,8,30.1,8c9.4,0,14.4-3.2,14.4-8.5v-0.4      c0-5.3-4.1-8-21.1-12c-26.5-6-46.9-13.4-46.9-38.7v-0.4c0-23,18.3-39.6,48.1-39.6c13.7,0,25.5,2.4,35.8,7      c8.6,3.9,11.6,14.7,6.1,22.4v0c-4.2,5.9-12.1,8.1-18.7,4.9c-8.2-3.9-16.5-5.9-24.1-5.9c-8.3,0-12.4,3.4-12.4,8v0.4      c0,5.7,4.3,8.1,21.7,12c28.4,6.2,46.2,15.4,46.2,38.5v0.4c0,25.3-20.1,40.3-50.3,40.3c-15.5,0-30.3-3.4-43.2-10.1      C763.5,173.1,761.3,162,767.5,154.7z"></path>					<path class="st1" d="M912.9,139.3l-32-52.3c-6.7-11,1.2-25.1,14.2-25.1l0,0c6,0,11.5,3.2,14.5,8.4l20.8,36.7L951.4,70      c2.9-5.1,8.3-8.2,14.2-8.2l0,0c12.7,0,20.5,13.9,13.9,24.7l-32.1,52.2v29.7c0,9.5-7.7,17.1-17.2,17.1h0      c-9.5,0-17.2-7.7-17.2-17.1V139.3z"></path>				</g>			</g>		</g>	</g></g></svg>