<?xml version="1.0" encoding="UTF-8"?>
<svg width="545px" height="153px" viewBox="0 0 545 153" version="1.1" xmlns="http://www.w3.org/2000/svg" xmlns:xlink="http://www.w3.org/1999/xlink">
    <title>Artboard</title>
    <g id="Artboard" stroke="none" stroke-width="1" fill="none" fill-rule="evenodd">
        <path d="M185.0286,48.7102635 C185.0286,57.7292635 191.4349,62.0450635 208.6922,65.0525635 C221.8954,67.2760635 226.6021,69.1038635 226.6021,75.2499635 C226.6021,81.3937635 219.0203,85.4467635 208.1698,85.4467635 C203.0694,85.4467635 197.5793,83.7476635 195.7501,82.7021635 C194.7041,81.9175635 193.9181,81.3937635 193.2658,80.3483635 C191.1733,76.8186635 188.9506,72.7644635 187.1203,69.1038635 C186.991,68.8436635 186.7288,68.8436635 186.5979,68.8436635 C186.0752,68.8436635 184.6371,69.3674635 184.7681,70.0202635 L185.9448,84.9242635 C185.9448,85.7083635 186.2064,85.9705635 186.7288,86.2301635 C189.6054,87.8221635 198.3645,88.4752635 202.0243,88.4752635 C229.74,88.4752635 246.7354,79.4324635 246.7354,65.7056635 C246.7354,56.9477635 238.7602,53.5481635 221.8954,50.1485635 C209.4763,47.6648635 205.1611,45.0510635 205.1611,40.2122635 C205.1611,34.1994635 212.2219,30.0146635 220.0657,30.0146635 C225.9493,30.0146635 230.2625,31.1921635 232.7476,32.5009635 C233.9231,33.1545635 234.8387,33.8076635 235.4918,35.1153635 C237.5841,38.7756635 239.5454,42.3050635 241.6368,45.9649635 C241.8987,46.2259635 242.0285,46.2259635 242.2902,46.2259635 C242.8126,46.2259635 244.1199,45.7035635 244.1199,45.3109635 L242.945,30.4092635 C242.945,29.8842635 242.683,29.4922635 242.0285,29.1010635 C239.9357,27.9246635 234.4456,26.8781635 226.8632,26.8781635 C202.8098,26.8781635 185.0286,37.3376635 185.0286,48.5804635 L185.0286,48.7102635 Z" id="Fill-1" fill="#0067AF"></path>
        <path d="M111.994,63.2230635 C111.994,62.0450635 112.1244,60.2160635 112.255,58.5153635 C112.9079,49.2346635 113.8243,31.1921635 113.8243,28.3169635 C113.8243,27.2701635 113.4323,26.7479635 112.5178,26.8781635 L81.9249,30.2776635 C81.5329,30.2776635 81.5329,30.5384635 81.5329,30.8006635 C81.5329,31.3231635 81.7951,32.3699635 82.3181,32.3699635 L89.3775,32.8929635 C90.8152,33.0227635 91.0765,33.9392635 91.2072,35.3755635 C91.4694,38.2515635 91.6004,51.9794635 91.7297,56.9477635 C91.862,62.1762635 92.2526,77.8648635 92.2526,82.4394635 C92.2526,83.8780635 91.9919,84.4001635 91.0765,84.5322635 L82.3181,85.7083635 C81.9249,85.7083635 81.6641,86.7546635 81.6641,87.4077635 C81.6641,87.5610635 81.6641,87.6917635 81.9249,87.6917635 C84.0171,87.5610635 92.2526,87.4295635 101.4046,87.4295635 C112.6471,87.4295635 121.2757,87.5610635 126.3738,87.6917635 C126.6372,87.6917635 126.6372,87.5610635 126.6372,87.4077635 C126.6372,86.7546635 126.244,85.7083635 125.8517,85.7083635 L113.0402,84.4001635 C112.1244,84.2700635 111.8647,84.1390635 111.8647,82.7021635 C111.8647,79.8261635 112.778,72.6352635 113.5627,69.4972635 C118.6619,47.4032635 126.3738,37.4669635 134.3494,37.4669635 C136.0488,37.4669635 137.8802,38.5137635 138.9251,39.9523635 C140.6253,42.4354635 143.238,46.4876635 145.1999,49.7573635 C145.3308,49.8877635 145.4612,49.8877635 145.593,49.8877635 C145.8527,49.8877635 147.1617,49.2346635 147.1617,48.7102635 L146.1154,29.1010635 C146.1154,28.8393635 145.9851,28.4465635 145.593,28.1862635 C144.4164,27.5329635 142.8471,26.8781635 140.6253,26.8781635 C125.7202,26.8781635 117.7463,43.7428635 113.5627,59.2999635 C113.3005,60.3447635 113.0402,61.2612635 112.5178,63.2230635 L111.994,63.2230635 Z" id="Fill-2" fill="#0067AF"></path>
        <path d="M76.6105,69.2362635 C76.7409,68.7123635 75.5631,67.5376635 75.041,67.5376635 C74.9106,67.5376635 74.7796,67.5376635 74.6492,67.7981635 C72.0348,71.7199635 69.2895,75.6413635 66.4131,79.6946635 C65.8904,80.4781635 65.1052,81.0011635 63.6669,81.3937635 C55.4309,84.0086635 39.0894,84.6620635 32.0297,84.6620635 C31.1159,84.6620635 30.4605,84.5322635 30.4605,82.9618635 C30.4605,79.6946635 30.8539,56.1631635 31.1159,51.1936635 C31.2451,49.8877635 31.5079,49.4951635 32.6834,49.3639635 C40.9195,48.5804635 58.9603,47.5341635 64.3217,47.0111635 C64.8442,47.0111635 65.3663,45.3109635 65.3663,44.7890635 C65.3663,44.5285635 65.3663,44.3964635 65.1052,44.3964635 C61.9679,44.3964635 44.71,44.1348635 31.3764,43.7428635 C31.1159,38.5137635 32.1604,17.5963635 32.6834,10.6679635 C32.6834,9.75406351 32.9439,9.22936351 34.3825,9.22936351 C36.475,9.22936351 49.941,10.1449635 59.6157,11.9752635 C61.4454,12.3678635 62.8832,12.8902635 63.536,14.1978635 C65.8904,18.6417635 67.9818,23.0870635 70.073,27.5329635 C70.2039,27.7931635 70.3349,27.7931635 70.465,27.7931635 C70.857,27.7931635 72.2956,27.0101635 72.2956,26.6164635 L70.857,7.00696351 C70.857,6.61356351 70.3349,6.35476351 70.073,6.35476351 C68.1122,6.35476351 57.2601,6.87716351 20.787,6.87716351 C18.172,6.87716351 15.2957,6.87716351 11.8961,6.87716351 C8.6295,6.74536351 4.9677,6.74536351 0.6542,6.61356351 C0.392,6.61356351 0.392,6.74536351 0.392,6.87716351 C0.392,7.92256351 0.7849,8.96766351 1.0457,8.96766351 L7.9747,10.1449635 C8.6295,10.2761635 9.2828,10.7985635 9.2828,12.3678635 C9.2828,16.2892635 9.6743,41.6522635 9.6743,46.8813635 C9.6743,53.5481635 9.9365,77.8648635 9.9365,82.0473635 C9.9365,83.4854635 9.5434,84.0086635 8.6295,84.1390635 L0.6542,85.5768635 C0.392,85.7083635 1.42108547e-14,86.8838635 1.42108547e-14,87.4077635 C1.42108547e-14,87.5610635 1.42108547e-14,87.6917635 0.2605,87.6917635 C5.0995,87.5610635 13.335,87.4077635 18.8257,87.4077635 C38.0443,87.4077635 50.5944,87.5610635 58.7001,87.8221635 C66.8049,87.9525635 70.465,88.2130635 71.7732,88.2130635 C72.4263,88.2130635 72.6885,87.9525635 72.8177,87.5610635 L76.6105,69.2362635 Z" id="Fill-3" fill="#0067AF"></path>
        <path d="M151.679,37.5233635 C157.0268,32.8436635 160.6697,29.6376635 166.1779,25.1342635 C168.3907,23.3260635 170.9027,21.0761635 172.8496,20.4720635 C173.0273,20.4051635 173.2161,20.3499635 173.4105,20.3127635 C175.1674,19.9697635 176.8719,21.0302635 177.2172,22.6788635 L179.8996,38.2747635 C180.3991,41.1780635 181.0148,41.7815635 183.1399,43.2861635 L183.1294,43.3031635 C180.4637,42.3153635 178.9506,41.9107635 177.6568,39.0327635 L176.0283,35.4095635 C163.6251,102.126664 157.3015,106.372964 163.7594,40.2919635 C161.8851,41.3455635 159.3487,42.0023635 156.8806,41.9459635 C152.8276,41.8546635 150.5004,39.8741635 151.679,37.5233635 Z M173.3176,0.0266635108 L173.3176,0.0266635108 C178.1642,-0.348336489 182.3947,3.27626351 182.7694,8.12016351 C183.1439,12.9636635 179.5203,17.1938635 174.6773,17.5688635 C169.8329,17.9433635 165.6017,14.3217635 165.2272,9.47876351 C164.8527,4.63356351 168.4734,0.402763511 173.3176,0.0266635108 L173.3176,0.0266635108 Z" id="Fill-4" fill="#F17E00"></path>
        <path d="M334.4269,68.1613635 C334.1897,68.8920635 333.4447,71.4441635 332.2108,75.8176635 C330.7217,80.9200635 329.6925,85.3080635 329.1386,88.9497635 L317.4522,85.5728635 C318.4968,83.2702635 319.5898,80.4064635 320.6987,76.9988635 C322.2235,72.6187635 325.4093,67.9850635 320.6987,68.6120635 L320.6987,58.3265635 L326.2722,58.6074635 L336.0106,26.4126635 L350.5796,26.4126635 C351.6236,29.9913635 353.3966,36.4957635 355.8679,45.9249635 C358.1478,54.6080635 360.0325,61.3610635 361.5199,66.1535635 C363.88,73.7628635 366.2872,80.1736635 368.7573,85.4016635 L356.6123,88.9497635 C356.2316,85.7290635 355.5504,82.2268635 354.5693,78.4615635 C353.2699,73.9028635 352.3047,70.4636635 351.6868,68.1613635 L334.4269,68.1613635 Z M343.1517,36.7134635 L337.0234,58.6850635 L349.1855,58.5904635 L343.1517,36.7134635 Z M384.3538,87.2226635 L371.734,87.2226635 C372.0974,84.0631635 372.3825,80.4540635 372.5577,76.4087635 C372.7471,72.3781635 372.8429,68.6429635 372.8429,65.2504635 C372.8429,62.1393635 372.7785,57.0197635 372.6674,49.8770635 C372.5413,42.7353635 372.4781,38.9845635 372.4781,38.6271635 C372.4781,37.1023635 372.4616,35.4370635 372.431,33.6010635 C372.399,31.7803635 372.1617,29.3844635 371.734,26.4126635 L384.3538,26.4126635 C383.8628,30.4738635 383.61,34.3323635 383.61,37.9884635 L383.61,49.0215635 C386.5867,45.0688635 389.5792,41.1173635 392.6032,37.1633635 C396.1354,32.4181635 398.9225,28.2948635 400.9651,24.7628635 L409.9583,31.9671635 C407.1089,34.5815635 404.0217,38.1290635 400.68,42.6251635 C397.8938,46.4700635 395.1532,50.2970635 392.4294,54.1258635 C392.6032,54.3585635 394.7099,57.5333635 398.7317,63.6012635 C401.4558,67.6777635 403.6566,70.8684635 405.32,73.1715635 C407.679,76.3928635 410.1171,79.4106635 412.6504,82.2115635 L402.4374,89.0427635 C400.5212,84.7329635 397.5913,79.6750635 393.6342,73.9028635 C390.2918,69.1724635 386.9518,64.4266635 383.61,59.6800635 C383.61,61.6254635 383.5936,63.5550635 383.5624,65.4686635 C383.5309,67.3823635 383.5153,69.2815635 383.5153,71.1643635 C383.5153,75.0078635 383.5624,77.9334635 383.6582,79.9707635 C383.7523,82.0102635 383.9743,84.4219635 384.3538,87.2226635 Z M428.3271,51.2004635 C428.3271,54.1879635 428.3115,57.1747635 428.28,60.1942635 C428.2483,63.1967635 428.233,66.2161635 428.233,69.2662635 C428.233,73.7628635 428.28,76.9688635 428.3756,78.8822635 C428.4703,80.7959635 428.6922,83.5809635 429.0723,87.2226635 L416.8159,87.2226635 C417.069,85.2153635 417.2436,83.2702635 417.3703,81.3869635 C417.4968,79.5038635 417.5603,77.4039635 417.5603,75.1002635 L417.5603,36.5272635 C416.3887,35.0016635 415.6435,34.0667635 415.3274,33.6951635 C414.7724,33.0253635 413.9336,32.1221635 412.8258,30.9554635 L422.8491,24.1239635 C424.5746,27.6564635 426.9016,31.4855635 429.8011,35.6082635 C432.5241,39.2643635 435.2479,42.9066635 437.9708,46.5633635 C441.297,51.0607635 443.8139,54.7945635 445.4778,57.7663635 C445.4778,55.5258635 445.4778,53.2533635 445.4778,50.9816635 C445.4778,48.6946635 445.5082,46.4071635 445.5722,44.0889635 C445.5722,40.8055635 445.5082,37.7234635 445.3815,34.8468635 C445.2548,31.9509635 445.0183,29.1353635 444.6377,26.4126635 L456.9893,26.4126635 C456.7354,28.4655635 456.5622,30.4568635 456.4349,32.3719635 C456.3076,34.2861635 456.2444,36.3710635 456.2444,38.6271635 C456.2444,41.6616635 456.1815,46.7189635 456.0701,53.7984635 C455.9431,60.8947635 455.8804,64.7058635 455.8804,65.2504635 C455.8804,69.9343635 455.9431,73.7628635 456.0701,76.7347635 C456.1968,79.7215635 456.4978,83.2070635 456.9893,87.2226635 L444.6377,87.2226635 C444.8276,85.6354635 445.0183,83.7062635 445.1921,81.4345635 C445.3815,79.1464635 445.4778,77.2171635 445.4778,75.6453635 C444.8602,74.7277635 442.6585,71.7233635 438.8901,66.6206635 C434.0763,59.9915635 430.5602,54.8571635 428.3271,51.2004635 Z M465.6024,87.2226635 C466.0931,83.3317635 466.3465,79.6909635 466.3465,76.2837635 L466.3465,61.2359635 C465.7926,61.2359635 465.3178,61.2515635 464.9533,61.2836635 C464.589,61.3145635 463.9084,61.4227635 462.9103,61.5942635 L462.9103,51.1225635 L466.3465,51.3867635 L466.3465,37.8969635 C466.3465,34.3162635 466.0931,30.4900635 465.6024,26.4126635 L498.4438,26.4126635 L498.4438,36.8061635 C496.7177,36.6193635 494.9603,36.4790635 493.1546,36.3554635 C491.3662,36.2310635 489.6082,36.1683635 487.8663,36.1683635 L477.4784,36.1683635 L477.4784,51.5729635 L481.9277,51.5729635 L483.6064,51.5729635 C487.5658,51.5729635 491.4924,51.3867635 495.388,51.0278635 L495.388,61.5163635 C493.8358,61.3301635 492.2841,61.1895635 490.7006,61.0653635 C489.1178,60.9411635 487.5341,60.8791635 485.9177,60.8791635 L477.4784,60.8791635 L477.4784,77.5590635 L486.1088,77.5590635 L487.8663,77.5590635 C492.3311,77.5590635 496.4964,77.3413635 500.392,76.9209635 L500.392,87.2226635 L465.6024,87.2226635 Z M517.0969,87.2226635 C517.2876,85.2153635 517.4305,83.2070635 517.5572,81.2006635 C517.6822,79.1934635 517.7468,77.1701635 517.7468,75.1002635 L517.7468,36.1683635 C515.1506,36.1683635 512.6479,36.1833635 510.2245,36.2159635 C507.8182,36.2463635 505.1897,36.4487635 502.3397,36.8061635 L502.3397,26.4126635 L544.3806,26.4126635 L544.3806,36.8061635 C542.6393,36.6193635 540.8807,36.4790635 539.0923,36.3554635 C537.2872,36.2310635 535.5606,36.1683635 533.8825,36.1683635 L528.8785,36.1683635 C528.8785,39.3893635 528.8153,44.7267635 528.7047,52.1651635 C528.5775,59.6182635 528.5148,63.6168635 528.5148,64.1619635 C528.5148,72.7820635 528.8785,80.4699635 529.6226,87.2226635 L517.0969,87.2226635 Z M286.1543,18.1590635 C279.8912,18.1590635 275.6517,21.7179635 273.4143,28.8354635 C271.9882,33.2523635 271.2849,39.4282635 271.2849,47.3612635 C271.2849,55.3796635 271.944,61.4712635 273.2859,65.6367635 C275.5238,72.7548635 279.8282,76.3131635 286.1543,76.3131635 C292.5453,76.3131635 296.8908,72.7965635 299.1262,65.7626635 C300.469,61.5965635 301.13,55.4623635 301.13,47.3612635 C301.13,39.0092635 300.5124,32.8756635 299.2552,28.9604635 C297.0175,21.7598635 292.6298,18.1590635 286.1543,18.1590635 Z M286.1543,89.1870635 C274.7358,89.1870635 266.5125,84.8120635 261.4223,76.0623635 C257.4382,69.1120635 255.435,59.5451635 255.435,47.3612635 C255.435,35.0112635 257.3963,25.4449635 261.2939,18.6618635 C266.3844,9.82776351 274.6513,5.41046351 286.1543,5.41046351 C297.551,5.41046351 305.7735,9.78686351 310.8659,18.5354635 C314.848,25.4862635 316.8513,35.0946635 316.8513,47.3612635 C316.8513,59.4609635 314.848,68.9859635 310.8659,75.9367635 C305.7735,84.7706635 297.551,89.1870635 286.1543,89.1870635 L286.1543,89.1870635 Z" id="Fill-5" fill="#DC2B1C"></path>
        <path d="M5.5476,104.916764 L5.5476,108.903164 L9.3047,108.903164 C9.9144,108.903164 10.4462,108.704464 10.8901,108.306964 C11.3295,107.918364 11.5489,107.456364 11.5489,106.916364 C11.5489,106.367864 11.3295,105.901564 10.8901,105.512864 C10.4462,105.115464 9.9144,104.916764 9.3047,104.916764 L5.5476,104.916764 Z M5.5476,112.573964 L5.5476,120.226964 L1.4005,120.226964 L1.4005,101.245864 L9.3047,101.245864 C11.061,101.245864 12.5637,101.798664 13.8225,102.904164 C15.0715,104.018464 15.6962,105.357264 15.6962,106.916364 C15.6962,108.466864 15.0715,109.801464 13.8225,110.915764 C12.5736,112.021264 11.0707,112.573964 9.3047,112.573964 L5.5476,112.573964 Z M24.8884,104.536664 C24.0051,104.536664 23.2443,104.817564 22.6051,105.374564 C21.9659,105.936064 21.6439,106.614164 21.6439,107.395664 L21.6439,114.076964 C21.6439,114.862964 21.9659,115.536764 22.6051,116.102564 C23.2443,116.668364 24.0051,116.948964 24.8884,116.948964 C25.7864,116.948964 26.5473,116.668364 27.1768,116.102564 C27.816,115.545264 28.1381,114.871764 28.1381,114.076964 L28.1381,107.395664 C28.1381,106.614164 27.816,105.936064 27.1768,105.374564 C26.5473,104.817564 25.7864,104.536664 24.8884,104.536664 Z M24.8884,100.856964 C26.928,100.856964 28.6747,101.496164 30.1237,102.778864 C31.5632,104.061564 32.2803,105.599064 32.2803,107.395664 L32.2803,114.076964 C32.2803,115.873564 31.5632,117.415264 30.1237,118.693664 C28.6747,119.976364 26.928,120.619864 24.8884,120.619864 C22.8588,120.619864 21.1217,119.976364 19.6727,118.693664 C18.2236,117.415264 17.5013,115.873564 17.5013,114.076964 L17.5013,107.395664 C17.5013,105.599064 18.2236,104.061564 19.6727,102.778864 C21.1217,101.496164 22.8588,100.856964 24.8884,100.856964 Z M56.027,101.245864 L50.4796,120.226964 L47.4202,120.226964 L45.1366,112.371064 L42.819,120.226964 L39.7601,120.226964 L34.2121,101.245864 L38.4865,101.245864 L41.2922,110.811964 L44.1073,101.245864 L46.1369,101.245864 L48.9523,110.811964 L51.7526,101.245864 L56.027,101.245864 Z M69.3272,101.245864 L69.3272,104.916764 L62.4526,104.916764 L62.4526,108.903164 L67.727,108.903164 L67.727,112.573964 L62.4526,112.573964 L62.4526,116.556064 L69.3272,116.556064 L69.3272,120.226964 L58.3055,120.226964 L58.3055,101.245864 L69.3272,101.245864 Z M75.6654,112.573964 L75.6654,120.226964 L71.5183,120.226964 L71.5183,101.245864 L79.4225,101.245864 C81.1791,101.245864 82.6815,101.802864 83.9403,102.917164 C85.1893,104.022764 85.8143,105.357264 85.8143,106.916364 C85.8143,108.104064 85.4237,109.187964 84.643,110.168464 C83.8675,111.140264 82.8476,111.826764 81.5839,112.228464 L85.297,120.226964 L80.8083,120.226964 L77.2514,112.573964 L75.6654,112.573964 Z M75.6654,104.916764 L75.6654,108.903164 L79.4225,108.903164 C80.0322,108.903164 80.5594,108.708664 80.9985,108.320064 C81.4422,107.922664 81.6667,107.456364 81.6667,106.916364 C81.6667,106.367864 81.4422,105.901564 80.9985,105.512864 C80.5594,105.115464 80.0322,104.916764 79.4225,104.916764 L75.6654,104.916764 Z M102.0279,104.536664 C101.1446,104.536664 100.3838,104.817564 99.7446,105.374564 C99.1054,105.936064 98.7834,106.614164 98.7834,107.395664 L98.7834,114.076964 C98.7834,114.862964 99.1054,115.536764 99.7446,116.102564 C100.3838,116.668364 101.1446,116.948964 102.0279,116.948964 C102.9259,116.948964 103.6868,116.668364 104.3163,116.102564 C104.9555,115.545264 105.2776,114.871764 105.2776,114.076964 L105.2776,107.395664 C105.2776,106.614164 104.9555,105.936064 104.3163,105.374564 C103.6868,104.817564 102.9259,104.536664 102.0279,104.536664 Z M102.0279,100.856964 C104.0674,100.856964 105.8142,101.496164 107.2632,102.778864 C108.7027,104.061564 109.4198,105.599064 109.4198,107.395664 L109.4198,114.076964 C109.4198,115.873564 108.7027,117.415264 107.2632,118.693664 C105.8142,119.976364 104.0674,120.619864 102.0279,120.619864 C99.9983,120.619864 98.2612,119.976364 96.8122,118.693664 C95.3631,117.415264 94.6408,115.873564 94.6408,114.076964 L94.6408,107.395664 C94.6408,105.599064 95.3631,104.061564 96.8122,102.778864 C98.2612,101.496164 99.9983,100.856964 102.0279,100.856964 Z M123.6617,101.245864 L123.6617,104.916764 L116.8018,104.916764 L116.8018,108.903164 L122.0615,108.903164 L122.0615,112.573964 L116.8018,112.573964 L116.8018,120.226964 L112.64,120.226964 L112.64,101.245864 L123.6617,101.245864 Z M143.496,101.245864 L143.496,104.916764 L136.6214,104.916764 L136.6214,108.903164 L141.8955,108.903164 L141.8955,112.573964 L136.6214,112.573964 L136.6214,116.556064 L143.496,116.556064 L143.496,120.226964 L132.4743,120.226964 L132.4743,101.245864 L143.496,101.245864 Z M164.1103,101.245864 L164.1103,120.226964 L159.9533,120.226964 L159.9533,110.673664 L155.5378,119.656964 L154.2642,119.656964 L149.8339,110.673664 L149.8339,120.226964 L145.6868,120.226964 L145.6868,101.245864 L149.7169,101.245864 L154.8938,111.762164 L160.08,101.245864 L164.1103,101.245864 Z M172.0975,104.916764 L172.0975,108.903164 L175.8546,108.903164 C176.4643,108.903164 176.9964,108.704464 177.44,108.306964 C177.8794,107.918364 178.0988,107.456364 178.0988,106.916364 C178.0988,106.367864 177.8794,105.901564 177.44,105.512864 C176.9964,105.115464 176.4643,104.916764 175.8546,104.916764 L172.0975,104.916764 Z M172.0975,112.573964 L172.0975,120.226964 L167.9504,120.226964 L167.9504,101.245864 L175.8546,101.245864 C177.6112,101.245864 179.1136,101.798664 180.3724,102.904164 C181.6214,104.018464 182.2461,105.357264 182.2461,106.916364 C182.2461,108.466864 181.6214,109.801464 180.3724,110.915764 C179.1235,112.021264 177.6205,112.573964 175.8546,112.573964 L172.0975,112.573964 Z M193.356,101.245864 L198.9036,120.226964 L194.6293,120.226964 L193.7854,117.341864 L187.9939,117.341864 L187.1546,120.226964 L182.8805,120.226964 L188.4231,101.245864 L193.356,101.245864 Z M189.0819,113.657964 L192.6972,113.657964 L190.8822,107.473664 L189.0819,113.657964 Z M212.3067,101.245864 L212.3067,104.916764 L208.0862,104.916764 L208.0862,120.226964 L203.9292,120.226964 L203.9292,104.916764 L199.7087,104.916764 L199.7087,101.245864 L212.3067,101.245864 Z M229.3055,101.245864 L229.3055,120.226964 L225.1584,120.226964 L225.1584,112.573964 L218.7277,112.573964 L218.7277,120.226964 L214.5806,120.226964 L214.5806,101.245864 L218.7277,101.245864 L218.7277,108.903164 L225.1584,108.903164 L225.1584,101.245864 L229.3055,101.245864 Z M246.734,101.245864 L241.0594,112.038564 L241.0594,120.226964 L236.9171,120.226964 L236.9171,112.038564 L231.2379,101.245864 L235.8144,101.245864 L238.9858,107.270364 L242.1623,101.245864 L246.734,101.245864 Z M12.7099,133.308864 L12.7099,136.979764 L8.4897,136.979764 L8.4897,152.289964 L4.3324,152.289964 L4.3324,136.979764 L0.1122,136.979764 L0.1122,133.308864 L12.7099,133.308864 Z M19.1313,144.636964 L19.1313,152.289964 L14.9842,152.289964 L14.9842,133.308864 L22.8883,133.308864 C24.6446,133.308864 26.1473,133.865864 27.4062,134.980164 C28.6551,136.085664 29.2799,137.420264 29.2799,138.979264 C29.2799,140.166964 28.8895,141.250964 28.1089,142.231464 C27.3333,143.203164 26.3131,143.889764 25.0494,144.291364 L28.7628,152.289964 L24.2739,152.289964 L20.717,144.636964 L19.1313,144.636964 Z M19.1313,136.979764 L19.1313,140.966064 L22.8883,140.966064 C23.498,140.966064 24.025,140.771664 24.4641,140.382964 C24.908,139.985564 25.1325,139.519264 25.1325,138.979264 C25.1325,138.430764 24.908,137.964464 24.4641,137.575864 C24.025,137.178464 23.498,136.979764 22.8883,136.979764 L19.1313,136.979764 Z M46.6497,146.139864 C46.6497,147.936464 45.9277,149.478264 44.4787,150.756664 C43.0389,152.039364 41.3022,152.682764 39.2626,152.682764 C37.2327,152.682764 35.4908,152.039364 34.0418,150.756664 C32.5975,149.478264 31.8707,147.936464 31.8707,146.139864 L31.8707,133.308864 L36.0181,133.308864 L36.0181,146.139864 C36.0181,146.925964 36.335,147.599764 36.9742,148.165564 C37.6134,148.731364 38.3748,149.011964 39.2626,149.011964 C40.1555,149.011964 40.9217,148.731364 41.5508,148.165564 C42.1851,147.599764 42.5072,146.925964 42.5072,146.139864 L42.5072,133.308864 L46.6497,133.308864 L46.6497,146.139864 Z M61.6674,133.308864 L61.6674,136.979764 L57.4469,136.979764 L57.4469,152.289964 L53.2899,152.289964 L53.2899,136.979764 L49.0694,136.979764 L49.0694,133.308864 L61.6674,133.308864 Z M78.6665,133.308864 L78.6665,152.289964 L74.5194,152.289964 L74.5194,144.636964 L68.0884,144.636964 L68.0884,152.289964 L63.9413,152.289964 L63.9413,133.308864 L68.0884,133.308864 L68.0884,140.966064 L74.5194,140.966064 L74.5194,133.308864 L78.6665,133.308864 Z M95.9099,136.599564 C95.0266,136.599564 94.2655,136.880464 93.6263,137.437564 C92.9874,137.999064 92.6651,138.677064 92.6651,139.458664 L92.6651,146.139864 C92.6651,146.925964 92.9874,147.599764 93.6263,148.165564 C94.2655,148.731364 95.0266,149.011964 95.9099,149.011964 C96.8076,149.011964 97.5687,148.731364 98.1983,148.165564 C98.8375,147.608264 99.1593,146.934764 99.1593,146.139864 L99.1593,139.458664 C99.1593,138.677064 98.8375,137.999064 98.1983,137.437564 C97.5687,136.880464 96.8076,136.599564 95.9099,136.599564 Z M95.9099,132.919964 C97.9494,132.919964 99.6959,133.559164 101.1449,134.841864 C102.5846,136.124464 103.3015,137.662064 103.3015,139.458664 L103.3015,146.139864 C103.3015,147.936464 102.5846,149.478264 101.1449,150.756664 C99.6959,152.039364 97.9494,152.682764 95.9099,152.682764 C93.88,152.682764 92.1432,152.039364 90.6939,150.756664 C89.2448,149.478264 88.5228,147.936464 88.5228,146.139864 L88.5228,139.458664 C88.5228,137.662064 89.2448,136.124464 90.6939,134.841864 C92.1432,133.559164 93.88,132.919964 95.9099,132.919964 Z M117.5436,133.308864 L117.5436,136.979764 L110.6838,136.979764 L110.6838,140.966064 L115.9435,140.966064 L115.9435,144.636964 L110.6838,144.636964 L110.6838,152.289964 L106.522,152.289964 L106.522,133.308864 L117.5436,133.308864 Z M129.3273,138.901664 C129.3273,139.627264 129.6445,140.166964 130.2737,140.521064 C130.7959,140.819264 131.4983,140.966064 132.3768,140.966064 C134.3871,140.966064 136.0652,141.466964 137.4219,142.473264 C138.8514,143.544164 139.5637,144.952164 139.5637,146.697164 C139.5637,148.368464 138.8318,149.793764 137.3632,150.972664 C135.9433,152.112764 134.2797,152.682764 132.3768,152.682764 C129.5274,152.682764 127.3317,151.503864 125.7998,149.150264 L127.6001,148.230164 L129.3857,147.306064 C130.1323,148.441864 131.1275,149.011964 132.3768,149.011964 C133.1376,149.011964 133.821,148.795964 134.4308,148.368464 C135.0796,147.910664 135.4067,147.353364 135.4067,146.697164 C135.4067,145.971464 135.0895,145.431464 134.46,145.077464 C133.9381,144.783764 133.2402,144.636964 132.3768,144.636964 C130.3616,144.636964 128.6832,144.131864 127.3268,143.129764 C125.8973,142.058564 125.185,140.650564 125.185,138.901664 C125.185,137.234564 125.9166,135.813564 127.3852,134.638864 C128.8051,133.489964 130.4688,132.919964 132.3768,132.919964 C135.2165,132.919964 137.4071,134.099164 138.9489,136.461564 L135.348,138.296964 C134.6113,137.165364 133.6209,136.599564 132.3768,136.599564 C131.6108,136.599564 130.9277,136.811364 130.3177,137.234564 C129.6589,137.688064 129.3273,138.245064 129.3273,138.901664 Z M148.5609,136.599564 C147.6776,136.599564 146.9168,136.880464 146.2776,137.437564 C145.648,137.999064 145.3308,138.677064 145.3308,139.458664 L145.3308,146.139864 C145.3308,146.925964 145.648,147.599764 146.2776,148.165564 C146.9168,148.731364 147.6776,149.011964 148.5609,149.011964 C149.8101,149.011964 150.8054,148.441864 151.5517,147.306064 L155.1378,149.137264 C153.5964,151.499664 151.4055,152.682764 148.5609,152.682764 C146.531,152.682764 144.7942,152.039364 143.3451,150.756664 C141.8961,149.478264 141.1738,147.936464 141.1738,146.139864 L141.1738,139.458664 C141.1738,137.662064 141.8961,136.124464 143.3451,134.841864 C144.7942,133.559164 146.531,132.919964 148.5609,132.919964 C151.4055,132.919964 153.5964,134.099164 155.1378,136.461564 L151.5517,138.296964 C150.8054,137.165364 149.8101,136.599564 148.5609,136.599564 Z M157.3287,133.308864 L161.4906,133.308864 L161.4906,152.289964 L157.3287,152.289964 L157.3287,133.308864 Z M176.3475,133.308864 L176.3475,136.979764 L169.4729,136.979764 L169.4729,140.966064 L174.7471,140.966064 L174.7471,144.636964 L169.4729,144.636964 L169.4729,148.619064 L176.3475,148.619064 L176.3475,152.289964 L165.3258,152.289964 L165.3258,133.308864 L176.3475,133.308864 Z M192.6929,133.308864 L192.6929,152.289964 L188.6725,152.289964 L182.6855,141.726064 L182.6855,152.289964 L178.5384,152.289964 L178.5384,133.308864 L182.554,133.308864 L188.5308,143.876964 L188.5308,133.308864 L192.6929,133.308864 Z M203.1584,136.599564 C202.2754,136.599564 201.5143,136.880464 200.8751,137.437564 C200.2456,137.999064 199.9286,138.677064 199.9286,139.458664 L199.9286,146.139864 C199.9286,146.925964 200.2456,147.599764 200.8751,148.165564 C201.5143,148.731364 202.2754,149.011964 203.1584,149.011964 C204.408,149.011964 205.4032,148.441864 206.1496,147.306064 L209.7357,149.137264 C208.1939,151.499664 206.0033,152.682764 203.1584,152.682764 C201.1288,152.682764 199.392,152.039364 197.9427,150.756664 C196.4936,149.478264 195.7716,147.936464 195.7716,146.139864 L195.7716,139.458664 C195.7716,137.662064 196.4936,136.124464 197.9427,134.841864 C199.392,133.559164 201.1288,132.919964 203.1584,132.919964 C206.0033,132.919964 208.1939,134.099164 209.7357,136.461564 L206.1496,138.296964 C205.4032,137.165364 204.408,136.599564 203.1584,136.599564 Z M222.9482,133.308864 L222.9482,136.979764 L216.0737,136.979764 L216.0737,140.966064 L221.3478,140.966064 L221.3478,144.636964 L216.0737,144.636964 L216.0737,148.619064 L222.9482,148.619064 L222.9482,152.289964 L211.9266,152.289964 L211.9266,133.308864 L222.9482,133.308864 Z" id="Fill-6" fill="#737370"></path>
    </g>
</svg>